<?xml version="1.0" encoding="UTF-8" standalone="no"?>
<svg
   xmlns:dc="http://purl.org/dc/elements/1.1/"
   xmlns:cc="http://creativecommons.org/ns#"
   xmlns:rdf="http://www.w3.org/1999/02/22-rdf-syntax-ns#"
   xmlns:svg="http://www.w3.org/2000/svg"
   xmlns="http://www.w3.org/2000/svg"
   xmlns:sodipodi="http://sodipodi.sourceforge.net/DTD/sodipodi-0.dtd"
   xmlns:inkscape="http://www.inkscape.org/namespaces/inkscape"
   width="200"
   height="200"
   version="1.1"
   id="svg52"
   sodipodi:docname="folder-publicshare.svg"
   inkscape:version="1.0.1 (3bc2e813f5, 2020-09-07)">
  <sodipodi:namedview
     pagecolor="#ffffff"
     bordercolor="#666666"
     borderopacity="1"
     objecttolerance="10"
     gridtolerance="10"
     guidetolerance="10"
     inkscape:pageopacity="0"
     inkscape:pageshadow="2"
     inkscape:window-width="1920"
     inkscape:window-height="978"
     id="namedview54"
     showgrid="false"
     inkscape:zoom="1.668772"
     inkscape:cx="102.6518"
     inkscape:cy="27.430695"
     inkscape:window-x="0"
     inkscape:window-y="0"
     inkscape:window-maximized="1"
     inkscape:current-layer="svg52"
     inkscape:document-rotation="0" />
  <metadata
     id="metadata2">
    <rdf:RDF>
      <cc:Work
         rdf:about="">
        <dc:format>image/svg+xml</dc:format>
        <dc:type
           rdf:resource="http://purl.org/dc/dcmitype/StillImage" />
        <dc:title></dc:title>
      </cc:Work>
    </rdf:RDF>
  </metadata>
  <defs
     id="defs14">
    <linearGradient
       id="linearGradient1011"
       x1="3.9687"
       x2="3.9687"
       y1="-12.171"
       y2="-6.879"
       gradientTransform="matrix(1 0 0 .99894 1.0583 14.153)"
       gradientUnits="userSpaceOnUse">
      <stop
         stop-color="#059bff"
         offset="0"
         id="stop4" />
      <stop
         stop-color="#005aff"
         offset="1"
         id="stop6" />
    </linearGradient>
    <linearGradient
       id="linearGradient921"
       x1="7.9373"
       x2="7.9373"
       y1="1.0583"
       y2="-8.2019"
       gradientTransform="translate(1.0583,14.42)"
       gradientUnits="userSpaceOnUse">
      <stop
         stop-color="#005aff"
         offset="0"
         id="stop9" />
      <stop
         stop-color="#059bff"
         offset="1"
         id="stop11" />
    </linearGradient>
    <style
       type="text/css"
       id="current-color-scheme">.ColorScheme-Text {
        color:#4d4d4d;
      }</style>
    <style
       id="style865"
       type="text/css">.ColorScheme-Text {
        color:#4d4d4d;
      }</style>
    <linearGradient
       gradientUnits="userSpaceOnUse"
       gradientTransform="matrix(3.1562629,0,0,3.1562629,-10.468371,-468.12796)"
       y2="166"
       y1="155"
       x2="25"
       x1="25"
       id="linearGradient1387">
      <stop
         id="stop867"
         offset="0"
         stop-color="#3296d7" />
      <stop
         id="stop869"
         offset="1"
         stop-color="#0a7db4" />
    </linearGradient>
    <linearGradient
       gradientUnits="userSpaceOnUse"
       gradientTransform="matrix(3.1562629,0,0,3.1562629,-10.46849,-468.12796)"
       y2="185"
       y1="185"
       x2="65"
       x1="5"
       id="linearGradient1401">
      <stop
         id="stop872"
         offset="0"
         stop-color="#3492cb" />
      <stop
         id="stop874"
         offset=".083713"
         stop-color="#6ec8fa" />
      <stop
         id="stop876"
         offset=".91237"
         stop-color="#6ec8fa" />
      <stop
         id="stop878"
         offset="1"
         stop-color="#3492cb" />
    </linearGradient>
    <linearGradient
       gradientUnits="userSpaceOnUse"
       gradientTransform="matrix(2.1673212,0,0,4.8857776,108.75613,-5391.6261)"
       y2="1140.2"
       y1="1138.4"
       x2="-9.617"
       x1="-9.617"
       id="linearGradient1438">
      <stop
         id="stop881"
         offset="0"
         stop-opacity="0"
         stop-color="#1482be" />
      <stop
         id="stop883"
         offset="1"
         stop-color="#1482be" />
    </linearGradient>
    <filter
       color-interpolation-filters="sRGB"
       height="1.0264"
       width="1.022"
       y="-.0132"
       x="-.011"
       id="filter1733">
      <feGaussianBlur
         id="feGaussianBlur886"
         stdDeviation="0.072761339" />
    </filter>
    <filter
       color-interpolation-filters="sRGB"
       height="1.297"
       width="1.0297"
       y="-.1485"
       x="-.01485"
       id="filter935">
      <feGaussianBlur
         id="feGaussianBlur889"
         stdDeviation="0.098224626" />
    </filter>
  </defs>
  <g
     id="g928"
     style="fill:#5e4aa6;stroke-width:0.26458"
     transform="matrix(11.929333,0,0,11.929333,-0.99970172,-0.99913381)">
    <circle
       id="circle922"
       r="0"
       cy="-325.31"
       cx="-284.20001" />
    <circle
       id="circle924"
       r="0"
       cy="-325.31"
       cx="-284.20001" />
    <circle
       id="circle926"
       r="0"
       cy="-326.53"
       cx="-317.64999" />
  </g>
  <g
     id="g918"
     transform="translate(-202.76022,0.6790755)">
    <g
       id="g941"
       transform="matrix(0.89473684,0,0,0.89473684,-177.67788,9.8472405)">
      <path
         id="rect902"
         style="opacity:1;fill:#0a0a0a;fill-opacity:1;stroke-width:2.18341;stroke-linecap:round"
         d="m 441.96023,5 v 166.12695 c 0,13.22596 10.64709,23.87305 23.87305,23.87305 h 113.11914 29.13477 23.87304 V 171.12695 137.86133 107.56055 H 529.39383 V 5 Z" />
      <path
         id="rect915"
         style="opacity:1;fill:#23afc8;fill-opacity:1;stroke-width:1.51476;stroke-linecap:round"
         d="m 544.49344,5 v 23.556641 16.773437 6.935547 16.773437 23.556641 h 23.55664 16.71484 6.92383 16.71484 23.55664 V 69.039062 52.265625 28.556641 C 631.96023,15.50611 621.45412,5 608.40359,5 h -23.63867 -16.71484 z" />
    </g>
    <g
       id="g907"
       transform="matrix(11.590915,0,0,11.590915,448.9255,-10.976247)"
       style="opacity:1;fill:#197d91;fill-opacity:1">
      <path
         id="path905"
         d="m -7.2232,3.1477 a 0.76495,0.76495 0 0 0 -0.76512,0.76476 0.76495,0.76495 0 0 0 0.037387,0.23338 l -1.5662,0.90414 a 0.76495,0.76495 0 0 0 -0.56549,-0.25117 0.76495,0.76495 0 0 0 -0.76476,0.76476 0.76495,0.76495 0 0 0 0.76476,0.76512 0.76495,0.76495 0 0 0 0.56585,-0.25153 l 1.5651,0.90377 a 0.76495,0.76495 0 0 0 -0.036658,0.23338 0.76495,0.76495 0 0 0 0.76512,0.76476 0.76495,0.76495 0 0 0 0.76476,-0.76476 0.76495,0.76495 0 0 0 -0.76476,-0.76512 0.76495,0.76495 0 0 0 -0.56549,0.25117 l -1.5655,-0.90377 A 0.76495,0.76495 0 0 0 -9.317543,5.56357 0.76495,0.76495 0 0 0 -9.35493,5.33091 l 1.5666,-0.90414 A 0.76495,0.76495 0 0 0 -7.2232,4.67758 0.76495,0.76495 0 0 0 -6.45844,3.91246 0.76495,0.76495 0 0 0 -7.2232,3.1477 Z"
         inkscape:connector-curvature="0"
         style="fill:#197d91;fill-opacity:1;stroke-width:0.011324" />
    </g>
  </g>
</svg>
