<?xml version="1.0" encoding="UTF-8" standalone="no"?>
<svg
   xmlns:dc="http://purl.org/dc/elements/1.1/"
   xmlns:cc="http://creativecommons.org/ns#"
   xmlns:rdf="http://www.w3.org/1999/02/22-rdf-syntax-ns#"
   xmlns:svg="http://www.w3.org/2000/svg"
   xmlns="http://www.w3.org/2000/svg"
   xmlns:sodipodi="http://sodipodi.sourceforge.net/DTD/sodipodi-0.dtd"
   xmlns:inkscape="http://www.inkscape.org/namespaces/inkscape"
   width="200"
   height="200"
   version="1.1"
   id="svg62"
   sodipodi:docname="folder-pictures.svg"
   inkscape:version="1.0.1 (3bc2e813f5, 2020-09-07)">
  <sodipodi:namedview
     pagecolor="#ffffff"
     bordercolor="#666666"
     borderopacity="1"
     objecttolerance="10"
     gridtolerance="10"
     guidetolerance="10"
     inkscape:pageopacity="0"
     inkscape:pageshadow="2"
     inkscape:window-width="1920"
     inkscape:window-height="978"
     id="namedview64"
     showgrid="false"
     inkscape:zoom="1.668772"
     inkscape:cx="148.20426"
     inkscape:cy="95.735625"
     inkscape:window-x="0"
     inkscape:window-y="0"
     inkscape:window-maximized="1"
     inkscape:current-layer="svg62"
     inkscape:document-rotation="0" />
  <metadata
     id="metadata2">
    <rdf:RDF>
      <cc:Work
         rdf:about="">
        <dc:format>image/svg+xml</dc:format>
        <dc:type
           rdf:resource="http://purl.org/dc/dcmitype/StillImage" />
        <dc:title></dc:title>
      </cc:Work>
    </rdf:RDF>
  </metadata>
  <defs
     id="defs14">
    <linearGradient
       id="linearGradient1011"
       x1="3.9687"
       x2="3.9687"
       y1="-12.171"
       y2="-6.879"
       gradientTransform="matrix(1 0 0 .99894 1.0583 14.153)"
       gradientUnits="userSpaceOnUse">
      <stop
         stop-color="#059bff"
         offset="0"
         id="stop4" />
      <stop
         stop-color="#005aff"
         offset="1"
         id="stop6" />
    </linearGradient>
    <linearGradient
       id="linearGradient921"
       x1="7.9373"
       x2="7.9373"
       y1="1.0583"
       y2="-8.2019"
       gradientTransform="translate(1.0583,14.42)"
       gradientUnits="userSpaceOnUse">
      <stop
         stop-color="#005aff"
         offset="0"
         id="stop9" />
      <stop
         stop-color="#059bff"
         offset="1"
         id="stop11" />
    </linearGradient>
    <style
       type="text/css"
       id="current-color-scheme">.ColorScheme-Text {
        color:#4d4d4d;
      }</style>
    <style
       id="style875"
       type="text/css">.ColorScheme-Text {
        color:#4d4d4d;
      }</style>
    <linearGradient
       gradientUnits="userSpaceOnUse"
       gradientTransform="matrix(3.1562629,0,0,3.1562629,222.0254,-468.12796)"
       y2="166"
       y1="155"
       x2="25"
       x1="25"
       id="linearGradient1387">
      <stop
         id="stop877"
         offset="0"
         stop-color="#3296d7" />
      <stop
         id="stop879"
         offset="1"
         stop-color="#0a7db4" />
    </linearGradient>
    <linearGradient
       gradientUnits="userSpaceOnUse"
       gradientTransform="matrix(3.1562629,0,0,3.1562629,222.02528,-468.12796)"
       y2="185"
       y1="185"
       x2="65"
       x1="5"
       id="linearGradient1401">
      <stop
         id="stop882"
         offset="0"
         stop-color="#3492cb" />
      <stop
         id="stop884"
         offset=".083713"
         stop-color="#6ec8fa" />
      <stop
         id="stop886"
         offset=".91237"
         stop-color="#6ec8fa" />
      <stop
         id="stop888"
         offset="1"
         stop-color="#3492cb" />
    </linearGradient>
    <linearGradient
       gradientUnits="userSpaceOnUse"
       gradientTransform="matrix(2.1673212,0,0,4.8857776,341.2499,-5391.6261)"
       y2="1140.2"
       y1="1138.4"
       x2="-9.617"
       x1="-9.617"
       id="linearGradient1438">
      <stop
         id="stop891"
         offset="0"
         stop-opacity="0"
         stop-color="#1482be" />
      <stop
         id="stop893"
         offset="1"
         stop-color="#1482be" />
    </linearGradient>
    <filter
       color-interpolation-filters="sRGB"
       height="1.0264"
       width="1.022"
       y="-.0132"
       x="-.011"
       id="filter1733">
      <feGaussianBlur
         id="feGaussianBlur896"
         stdDeviation="0.072761339" />
    </filter>
    <filter
       color-interpolation-filters="sRGB"
       height="1.297"
       width="1.0297"
       y="-.1485"
       x="-.01485"
       id="filter935">
      <feGaussianBlur
         id="feGaussianBlur899"
         stdDeviation="0.098224626" />
    </filter>
  </defs>
  <g
     id="g941"
     transform="matrix(0.89473684,0,0,0.89473684,-380.4381,10.526316)">
    <path
       id="rect902"
       style="opacity:1;fill:#0a0a0a;fill-opacity:1;stroke-width:2.18341;stroke-linecap:round"
       d="m 441.96023,5 v 166.12695 c 0,13.22596 10.64709,23.87305 23.87305,23.87305 h 113.11914 29.13477 23.87304 V 171.12695 137.86133 107.56055 H 529.39383 V 5 Z" />
    <path
       id="rect915"
       style="opacity:1;fill:#23afc8;fill-opacity:1;stroke-width:1.51476;stroke-linecap:round"
       d="m 544.49344,5 v 23.556641 16.773437 6.935547 16.773437 23.556641 h 23.55664 16.71484 6.92383 16.71484 23.55664 V 69.039062 52.265625 28.556641 C 631.96023,15.50611 621.45412,5 608.40359,5 h -23.63867 -16.71484 z" />
  </g>
  <path
     id="path899"
     d="m 167.28271,36.069984 h -8.23514 l -2.30598,-3.458927 c -0.65863,-0.9887 -1.64738,-1.481527 -2.80033,-1.481527 h -16.30619 c -1.15295,0 -2.14012,0.492801 -2.80033,1.481527 l -2.14012,3.458927 h -8.23514 a 6.6079867,6.6079867 0 0 0 -6.58936,6.587837 v 27.999917 a 6.6079867,6.6079867 0 0 0 6.58936,6.587835 h 42.82281 a 6.6079867,6.6079867 0 0 0 6.58783,-6.587835 V 42.657821 a 6.6079867,6.6079867 0 0 0 -6.58783,-6.587837 z m -41.1761,11.529476 a 3.3039933,3.3039933 0 0 1 -3.29468,-3.29468 c 0,-1.813153 1.48153,-3.29468 3.29316,-3.29468 1.81315,0 3.29468,1.48305 3.29468,3.29468 a 3.3039933,3.3039933 0 0 1 -3.29468,3.29468 z m 19.76385,21.410554 c -7.24644,0 -13.17534,-5.929154 -13.17534,-13.175336 0,-7.247956 5.92916,-13.177026 13.17534,-13.177026 7.24796,0 13.17703,5.929155 13.17703,13.177026 0,7.246437 -5.92916,13.175336 -13.17703,13.175336 z"
     inkscape:connector-curvature="0"
     style="opacity:1;fill:#197d91;fill-opacity:1;stroke-width:1.54968" />
</svg>
