<?xml version="1.0" encoding="UTF-8" standalone="no"?>
<svg
   xmlns:dc="http://purl.org/dc/elements/1.1/"
   xmlns:cc="http://creativecommons.org/ns#"
   xmlns:rdf="http://www.w3.org/1999/02/22-rdf-syntax-ns#"
   xmlns:svg="http://www.w3.org/2000/svg"
   xmlns="http://www.w3.org/2000/svg"
   xmlns:sodipodi="http://sodipodi.sourceforge.net/DTD/sodipodi-0.dtd"
   xmlns:inkscape="http://www.inkscape.org/namespaces/inkscape"
   width="200"
   height="200"
   version="1.1"
   id="svg62"
   sodipodi:docname="folder-templates.svg"
   inkscape:version="1.0.1 (3bc2e813f5, 2020-09-07)">
  <sodipodi:namedview
     pagecolor="#ffffff"
     bordercolor="#666666"
     borderopacity="1"
     objecttolerance="10"
     gridtolerance="10"
     guidetolerance="10"
     inkscape:pageopacity="0"
     inkscape:pageshadow="2"
     inkscape:window-width="1920"
     inkscape:window-height="978"
     id="namedview64"
     showgrid="false"
     inkscape:zoom="1.18"
     inkscape:cx="-107.81843"
     inkscape:cy="31.717576"
     inkscape:window-x="0"
     inkscape:window-y="0"
     inkscape:window-maximized="1"
     inkscape:current-layer="svg62"
     inkscape:document-rotation="0" />
  <metadata
     id="metadata2">
    <rdf:RDF>
      <cc:Work
         rdf:about="">
        <dc:format>image/svg+xml</dc:format>
        <dc:type
           rdf:resource="http://purl.org/dc/dcmitype/StillImage" />
        <dc:title></dc:title>
      </cc:Work>
    </rdf:RDF>
  </metadata>
  <defs
     id="defs14">
    <linearGradient
       id="linearGradient1011"
       x1="3.9687"
       x2="3.9687"
       y1="-12.171"
       y2="-6.879"
       gradientTransform="matrix(1 0 0 .99894 1.0583 14.153)"
       gradientUnits="userSpaceOnUse">
      <stop
         stop-color="#059bff"
         offset="0"
         id="stop4" />
      <stop
         stop-color="#005aff"
         offset="1"
         id="stop6" />
    </linearGradient>
    <linearGradient
       id="linearGradient921"
       x1="7.9373"
       x2="7.9373"
       y1="1.0583"
       y2="-8.2019"
       gradientTransform="translate(1.0583,14.42)"
       gradientUnits="userSpaceOnUse">
      <stop
         stop-color="#005aff"
         offset="0"
         id="stop9" />
      <stop
         stop-color="#059bff"
         offset="1"
         id="stop11" />
    </linearGradient>
    <style
       type="text/css"
       id="current-color-scheme">.ColorScheme-Text {
        color:#4d4d4d;
      }</style>
    <style
       id="style875"
       type="text/css">.ColorScheme-Text {
        color:#4d4d4d;
      }</style>
    <linearGradient
       gradientUnits="userSpaceOnUse"
       gradientTransform="matrix(0.26458,0,0,0.26458,-0.79373,-39.158)"
       y2="166"
       y1="155"
       x2="25"
       x1="25"
       id="linearGradient1387">
      <stop
         id="stop877"
         offset="0"
         stop-color="#3296d7" />
      <stop
         id="stop879"
         offset="1"
         stop-color="#0a7db4" />
    </linearGradient>
    <linearGradient
       gradientUnits="userSpaceOnUse"
       gradientTransform="matrix(0.26458,0,0,0.26458,-0.79374,-39.158)"
       y2="185"
       y1="185"
       x2="65"
       x1="5"
       id="linearGradient1401">
      <stop
         id="stop882"
         offset="0"
         stop-color="#3492cb" />
      <stop
         id="stop884"
         offset=".083713"
         stop-color="#6ec8fa" />
      <stop
         id="stop886"
         offset=".91237"
         stop-color="#6ec8fa" />
      <stop
         id="stop888"
         offset="1"
         stop-color="#3492cb" />
    </linearGradient>
    <linearGradient
       gradientUnits="userSpaceOnUse"
       gradientTransform="matrix(0.18168,0,0,0.40956,9.2005,-451.88)"
       y2="1140.2"
       y1="1138.4"
       x2="-9.617"
       x1="-9.617"
       id="linearGradient1438">
      <stop
         id="stop891"
         offset="0"
         stop-opacity="0"
         stop-color="#1482be" />
      <stop
         id="stop893"
         offset="1"
         stop-color="#1482be" />
    </linearGradient>
    <filter
       color-interpolation-filters="sRGB"
       height="1.0264"
       width="1.022"
       y="-.0132"
       x="-.011"
       id="filter1733">
      <feGaussianBlur
         id="feGaussianBlur896"
         stdDeviation="0.072761339" />
    </filter>
    <filter
       color-interpolation-filters="sRGB"
       height="1.297"
       width="1.0297"
       y="-.1485"
       x="-.01485"
       id="filter935">
      <feGaussianBlur
         id="feGaussianBlur899"
         stdDeviation="0.098224626" />
    </filter>
    <filter
       id="filter11290"
       x="-.024"
       y="-.024"
       width="1.048"
       height="1.048"
       color-interpolation-filters="sRGB">
      <feGaussianBlur
         stdDeviation="0.15875313"
         id="feGaussianBlur894" />
    </filter>
  </defs>
  <g
     fill="#5e4aa6"
     stroke-width="0.26458"
     id="g927"
     transform="matrix(3.779602,0,0,3.779602,-104.61121,-137.44221)">
    <circle
       cx="-330.35001"
       cy="-328.38"
       r="0"
       id="circle917" />
    <circle
       cx="-312.10999"
       cy="-326.25"
       r="0"
       id="circle919" />
    <circle
       cx="-306.01999"
       cy="-333.07001"
       r="0"
       id="circle921" />
    <circle
       cx="-308.84"
       cy="-326.01001"
       r="0"
       id="circle923" />
    <circle
       cx="-328.79999"
       cy="-330.45001"
       r="0"
       id="circle925" />
  </g>
  <g
     id="g993"
     transform="translate(231.6934,42.26614)">
    <g
       id="g941"
       transform="matrix(0.89473684,0,0,0.89473684,-612.1315,-31.739824)">
      <path
         id="rect902"
         style="opacity:1;fill:#0a0a0a;fill-opacity:1;stroke-width:2.18341;stroke-linecap:round"
         d="m 441.96023,5 v 166.12695 c 0,13.22596 10.64709,23.87305 23.87305,23.87305 h 113.11914 29.13477 23.87304 V 171.12695 137.86133 107.56055 H 529.39383 V 5 Z" />
      <path
         id="rect915"
         style="opacity:1;fill:#23afc8;fill-opacity:1;stroke-width:1.51476;stroke-linecap:round"
         d="m 544.49344,5 v 23.556641 16.773437 6.935547 16.773437 23.556641 h 23.55664 16.71484 6.92383 16.71484 23.55664 V 69.039062 52.265625 28.556641 C 631.96023,15.50611 621.45412,5 608.40359,5 h -23.63867 -16.71484 z" />
    </g>
    <g
       transform="matrix(0.60325293,0,0,0.60325293,-1866.626,-90.881952)"
       enable-background="new"
       fill="#ffffff"
       id="g981"
       style="fill:#197d91;fill-opacity:1">
      <path
         d="m 2965,124 c -2.6667,0 -3.7247,1.1858 -4.3555,2.4473 C 2960.014,127.7088 2960,129 2960,129 v 60.402 l 0.045,0.21875 c 0.1593,0.69553 0.7999,3.2139 2.2696,7.5293 1.4676,4.3097 6.6505,13.828 9.6855,19.68 3.0316,-5.8477 8.218,-15.37 9.6855,-19.68 1.4695,-4.3156 2.113,-6.8507 2.2696,-7.5312 l 0.045,-0.2168 v -60.402 c 0,-2.6667 -1.1858,-3.7247 -2.4473,-4.3555 -1.2621,-0.63073 -2.5529,-0.64453 -2.5529,-0.64453 z m -1,4 h 16 v 12 h -16 z m 0,56 h 16 v 4.9102 c -0.1301,0.55295 -0.7088,2.861 -2.1016,6.9512 -0.7556,2.2192 -3.3179,7.2695 -5.8984,12.26 -2.5804,-4.9899 -5.1425,-10.04 -5.8984,-12.26 -1.3934,-4.0912 -1.9706,-6.3868 -2.1016,-6.9453 z"
         id="path977"
         style="fill:#197d91;fill-opacity:1" />
      <path
         d="m 2920,124 v 92 h 28 v -92 z m 4,4 h 20 v 8 h -8 v 4 h 8 v 12 h -8 v 4 h 8 v 12 h -8 v 4 h 8 v 12 h -8 v 4 h 8 v 12 h -8 v 4 h 8 v 8 h -20 v -83 z"
         color="#000000"
         color-rendering="auto"
         dominant-baseline="auto"
         enable-background="accumulate"
         image-rendering="auto"
         shape-rendering="auto"
         solid-color="#000000"
         style="font-variant-ligatures:normal;font-variant-position:normal;font-variant-caps:normal;font-variant-numeric:normal;font-variant-alternates:normal;font-feature-settings:normal;text-indent:0;text-decoration:none;text-decoration-line:none;text-decoration-style:solid;text-decoration-color:#000000;text-transform:none;text-orientation:mixed;white-space:normal;shape-padding:0;isolation:auto;mix-blend-mode:normal;fill:#197d91;fill-opacity:1"
         id="path979" />
    </g>
  </g>
</svg>
