<?xml version="1.0" encoding="UTF-8" standalone="no"?>
<svg
   xmlns:dc="http://purl.org/dc/elements/1.1/"
   xmlns:cc="http://creativecommons.org/ns#"
   xmlns:rdf="http://www.w3.org/1999/02/22-rdf-syntax-ns#"
   xmlns:svg="http://www.w3.org/2000/svg"
   xmlns="http://www.w3.org/2000/svg"
   xmlns:sodipodi="http://sodipodi.sourceforge.net/DTD/sodipodi-0.dtd"
   xmlns:inkscape="http://www.inkscape.org/namespaces/inkscape"
   width="200"
   height="200"
   version="1.1"
   id="svg42"
   sodipodi:docname="folder-network.svg"
   inkscape:version="1.0.1 (3bc2e813f5, 2020-09-07)">
  <sodipodi:namedview
     pagecolor="#ffffff"
     bordercolor="#666666"
     borderopacity="1"
     objecttolerance="10"
     gridtolerance="10"
     guidetolerance="10"
     inkscape:pageopacity="0"
     inkscape:pageshadow="2"
     inkscape:window-width="1920"
     inkscape:window-height="978"
     id="namedview44"
     showgrid="false"
     inkscape:zoom="1.668772"
     inkscape:cx="155.74952"
     inkscape:cy="111.00912"
     inkscape:window-x="0"
     inkscape:window-y="0"
     inkscape:window-maximized="1"
     inkscape:current-layer="svg42"
     inkscape:document-rotation="0" />
  <metadata
     id="metadata2">
    <rdf:RDF>
      <cc:Work
         rdf:about="">
        <dc:format>image/svg+xml</dc:format>
        <dc:type
           rdf:resource="http://purl.org/dc/dcmitype/StillImage" />
        <dc:title></dc:title>
      </cc:Work>
    </rdf:RDF>
  </metadata>
  <defs
     id="defs14">
    <linearGradient
       id="linearGradient1011"
       x1="3.9687"
       x2="3.9687"
       y1="-12.171"
       y2="-6.879"
       gradientTransform="matrix(1 0 0 .99894 1.0583 14.153)"
       gradientUnits="userSpaceOnUse">
      <stop
         stop-color="#059bff"
         offset="0"
         id="stop4" />
      <stop
         stop-color="#005aff"
         offset="1"
         id="stop6" />
    </linearGradient>
    <linearGradient
       id="linearGradient921"
       x1="7.9373"
       x2="7.9373"
       y1="1.0583"
       y2="-8.2019"
       gradientTransform="translate(1.0583,14.42)"
       gradientUnits="userSpaceOnUse">
      <stop
         stop-color="#005aff"
         offset="0"
         id="stop9" />
      <stop
         stop-color="#059bff"
         offset="1"
         id="stop11" />
    </linearGradient>
    <style
       type="text/css"
       id="current-color-scheme">.ColorScheme-Text {
        color:#4d4d4d;
      }</style>
    <style
       id="style852"
       type="text/css">.ColorScheme-Text {
        color:#4d4d4d;
      }</style>
    <linearGradient
       gradientUnits="userSpaceOnUse"
       gradientTransform="matrix(3.1562629,0,0,3.1562629,254.51948,-468.12796)"
       y2="166"
       y1="155"
       x2="25"
       x1="25"
       id="linearGradient1387">
      <stop
         id="stop854"
         offset="0"
         stop-color="#3296d7" />
      <stop
         id="stop856"
         offset="1"
         stop-color="#0a7db4" />
    </linearGradient>
    <linearGradient
       gradientUnits="userSpaceOnUse"
       gradientTransform="matrix(3.1562629,0,0,3.1562629,254.51936,-468.12796)"
       y2="185"
       y1="185"
       x2="65"
       x1="5"
       id="linearGradient1401">
      <stop
         id="stop859"
         offset="0"
         stop-color="#3492cb" />
      <stop
         id="stop861"
         offset=".083713"
         stop-color="#6ec8fa" />
      <stop
         id="stop863"
         offset=".91237"
         stop-color="#6ec8fa" />
      <stop
         id="stop865"
         offset="1"
         stop-color="#3492cb" />
    </linearGradient>
    <linearGradient
       gradientUnits="userSpaceOnUse"
       gradientTransform="matrix(2.1673212,0,0,4.8857776,373.74398,-5391.6261)"
       y2="1140.2"
       y1="1138.4"
       x2="-9.617"
       x1="-9.617"
       id="linearGradient1438">
      <stop
         id="stop868"
         offset="0"
         stop-opacity="0"
         stop-color="#1482be" />
      <stop
         id="stop870"
         offset="1"
         stop-color="#1482be" />
    </linearGradient>
    <filter
       color-interpolation-filters="sRGB"
       height="1.0264"
       width="1.022"
       y="-.0132"
       x="-.011"
       id="filter1733">
      <feGaussianBlur
         id="feGaussianBlur873"
         stdDeviation="0.072761339" />
    </filter>
    <filter
       color-interpolation-filters="sRGB"
       height="1.297"
       width="1.0297"
       y="-.1485"
       x="-.01485"
       id="filter935">
      <feGaussianBlur
         id="feGaussianBlur876"
         stdDeviation="0.098224626" />
    </filter>
  </defs>
  <g
     id="g951"
     style="fill:#5e4aa6;stroke-width:0.26458"
     transform="matrix(11.929333,0,0,11.929333,263.98815,-0.99913381)">
    <g
       id="g945"
       transform="translate(-3.2526e-7,4.7281e-5)">
      <g
         id="g939"
         transform="translate(-3.2526e-7,4.7281e-5)">
        <g
           id="g933"
           transform="translate(-3.2526e-7,4.7281e-5)">
          <g
             id="g927"
             transform="translate(-3.2526e-7,4.7281e-5)">
            <g
               id="g921"
               transform="translate(-3.2526e-7,4.7281e-5)">
              <g
                 id="g915"
                 transform="translate(-3.2526e-7,4.7281e-5)">
                <circle
                   id="circle909"
                   r="0"
                   cy="-325.31"
                   cx="-284.20001" />
                <circle
                   id="circle911"
                   r="0"
                   cy="-325.31"
                   cx="-284.20001" />
                <circle
                   id="circle913"
                   r="0"
                   cy="-326.53"
                   cx="-317.64999" />
              </g>
              <circle
                 id="circle917"
                 r="0"
                 cy="-325.38"
                 cx="-281.60001" />
              <circle
                 id="circle919"
                 r="0"
                 cy="-325.38"
                 cx="-281.60001" />
            </g>
            <circle
               id="circle923"
               r="0"
               cy="-325.16"
               cx="-283.03" />
            <circle
               id="circle925"
               r="0"
               cy="-325.16"
               cx="-283.03" />
          </g>
          <circle
             id="circle929"
             r="0"
             cy="-325.66"
             cx="-283.95001" />
          <circle
             id="circle931"
             r="0"
             cy="-325.66"
             cx="-283.95001" />
        </g>
        <circle
           id="circle935"
           r="0"
           cy="-325.72"
           cx="-277.78" />
        <circle
           id="circle937"
           r="0"
           cy="-325.72"
           cx="-277.78" />
      </g>
      <circle
         id="circle941"
         r="0"
         cy="-325.41"
         cx="-280.04999" />
      <circle
         id="circle943"
         r="0"
         cy="-325.41"
         cx="-280.04999" />
    </g>
    <circle
       id="circle947"
       r="0"
       cy="-325.41"
       cx="-283.42999" />
    <circle
       id="circle949"
       r="0"
       cy="-325.41"
       cx="-283.42999" />
  </g>
  <g
     id="g941"
     transform="matrix(0.89473684,0,0,0.89473684,-380.4381,10.526316)">
    <path
       id="rect902"
       style="opacity:1;fill:#0a0a0a;fill-opacity:1;stroke-width:2.18341;stroke-linecap:round"
       d="m 441.96023,5 v 166.12695 c 0,13.22596 10.64709,23.87305 23.87305,23.87305 h 113.11914 29.13477 23.87304 V 171.12695 137.86133 107.56055 H 529.39383 V 5 Z" />
    <path
       id="rect915"
       style="opacity:1;fill:#23afc8;fill-opacity:1;stroke-width:1.51476;stroke-linecap:round"
       d="m 544.49344,5 v 23.556641 16.773437 6.935547 16.773437 23.556641 h 23.55664 16.71484 6.92383 16.71484 23.55664 V 69.039062 52.265625 28.556641 C 631.96023,15.50611 621.45412,5 608.40359,5 h -23.63867 -16.71484 z" />
  </g>
  <path
     id="path943"
     d="m 145.86949,26.189274 c -0.96872,0 -1.94322,0.07813 -2.88684,0.17613 a 27.440686,27.440686 0 0 0 -5.42646,1.049927 28.125693,28.125693 0 0 0 -18.45959,18.459591 27.440686,27.440686 0 0 0 -1.05003,5.42637 28.084323,28.084323 0 0 0 -0.17645,2.886749 c 0,0.968723 0.0798,1.943221 0.17645,2.886838 a 27.440686,27.440686 0 0 0 1.05003,5.426377 28.125693,28.125693 0 0 0 18.45959,18.459598 27.440686,27.440686 0 0 0 5.42646,1.0528 c 0.94362,0.0953 1.91792,0.17357 2.88684,0.17357 0.96893,0 1.94313,-0.0789 2.88685,-0.17616 a 27.440686,27.440686 0 0 0 5.42637,-1.04714 28.602889,28.602889 0 0 0 5.07348,-2.189613 27.948669,27.948669 0 0 0 13.39034,-16.273732 27.440686,27.440686 0 0 0 1.04714,-5.426369 c 0.0985,-0.943601 0.17645,-1.918018 0.17645,-2.886846 0,-0.965836 -0.0798,-1.946012 -0.17645,-2.886742 a 27.440686,27.440686 0 0 0 -1.04714,-5.426566 28.196888,28.196888 0 0 0 -5.16324,-9.53651 c -0.57147,-0.691529 -1.20396,-1.290737 -1.83951,-1.926389 -2.52847,-2.528369 -5.48515,-4.622739 -8.8363,-6.036816 a 29.013701,29.013701 0 0 0 -2.62362,-0.960405 27.440686,27.440686 0 0 0 -5.42637,-1.049927 28.879008,28.879008 0 0 0 -2.88684,-0.17613 z m 0,2.79987 c 4.23627,0 8.22086,1.038863 11.72594,2.886746 0.0924,0.05205 0.16836,0.125813 0.26015,0.17613 0.0703,0.09284 0.0529,0.193485 0.17645,0.260302 0.0904,0.05205 0.17644,0.131018 0.26014,0.17613 0.14826,0.08851 0.29373,0.207369 0.26275,0.349671 -0.0356,0.209976 -0.38089,0.196093 -0.52376,0.350537 0.0173,0.293273 -0.10064,0.237742 -0.17645,0.436432 0.0443,0.12842 0.15692,0.11193 0.17645,0.263766 -0.0269,0.162247 -0.23812,0.181344 -0.17645,0.349671 0.2742,0.212574 0.52906,0.03473 0.7893,0 0.56792,-0.06937 1.04723,0.0087 1.40013,-0.26291 -0.0356,-0.218644 0.1675,-0.279381 0.26015,-0.436431 0.18789,0.131017 0.34481,0.302807 0.52654,0.436431 -0.10669,0.04329 -0.34115,0.114537 -0.43919,0.176131 -0.14017,0.09544 -0.1851,0.243812 -0.3475,0.34967 -0.11728,0.07813 -0.40293,0.349671 -0.52655,0.349671 -0.14826,0 -0.41986,-0.123205 -0.52655,-0.09024 -0.15077,0.04329 -0.0904,0.290666 -0.26015,0.34967 -0.33597,0.123205 -0.93237,-0.32711 -1.05003,0.17613 0.14018,0.290666 0.61901,0.193485 0.87387,0.349671 0.15971,0.100663 0.39782,0.61691 0.44006,0.786969 a 2.0524232,2.0524232 0 0 1 0,0.789576 c -0.15971,0.40606 -0.58207,0.358349 -1.05282,0.349672 -0.12612,0 -0.23282,0.0087 -0.34751,0 -0.78929,-0.05205 -1.56801,-0.302808 -1.92639,0.260302 0.0269,0.433825 0.0975,0.671557 0,1.049927 -0.0702,0.274176 -0.36424,0.462466 -0.3501,0.700208 0.006,0.123205 0.23283,0.35835 0.26275,0.526666 0.0173,0.09024 -0.0443,0.268982 0,0.349672 0.13142,0.249882 0.46478,-0.04329 0.70021,0 0.22397,0.03473 0.43659,0.364419 0.43659,0.609964 a 1.5988948,1.5988948 0 0 1 -0.17644,0.700207 c -0.22397,0.335789 -0.64104,0.255099 -0.96055,0.43904 -0.26631,0.150981 -0.36685,0.521471 -0.52656,0.786969 -0.16836,0.285461 -0.3272,0.3809 -0.26015,0.786969 a 1.8900227,1.8900227 0 0 1 -0.96324,0.963147 2.7663891,2.7663891 0 0 0 -0.43919,0.263766 2.21771,2.21771 0 0 0 -0.34741,0.349672 c -0.17895,0.196082 -0.42861,0.282853 -0.52655,0.436431 -0.0703,0.117134 -0.009,0.367018 -0.0876,0.526666 -0.11199,0.212574 -0.29719,0.397382 -0.4392,0.609965 -0.0615,0.103203 -0.19049,0.218654 -0.26015,0.350536 -0.1622,0.296738 -0.38089,0.529275 -0.35009,0.789577 0.0269,0.249883 0.33605,0.305415 0.35009,0.524059 0.0173,0.123206 -0.0924,0.218645 -0.0904,0.349671 0.008,0.196038 0.0702,0.285461 0.0904,0.43646 0.0356,0.378292 -0.19318,0.529283 -0.26361,0.78953 -0.0356,0.120586 0.026,0.252512 0,0.347024 -0.0615,0.19084 -0.34481,0.302845 -0.3501,0.526638 -0.006,0.15704 0.24601,0.302845 0.26275,0.526638 0.009,0.151846 -0.11728,0.293304 -0.0904,0.436464 0.0529,0.274126 0.57408,0.660249 0.7893,0.873872 0.28843,0.290659 0.57148,0.481603 0.70021,0.789529 0.10669,0.257706 0.15076,0.681129 0.3501,0.873872 0.14547,0.140611 0.42245,0.202171 0.61025,0.350533 0.17895,0.140498 0.42601,0.20217 0.61651,0.350524 0.30767,0.242971 0.72753,0.736648 1.22359,0.700211 0.25745,-0.01694 0.49557,-0.12324 0.7866,-0.176113 0.29988,-0.05194 0.65778,-0.204833 0.96324,-0.173573 0.23282,0.02645 0.45324,0.190839 0.70021,0.176113 0.25216,-0.01694 0.58553,-0.137966 0.87386,-0.262891 0.50453,-0.218712 1.27958,-0.63345 2.01317,-0.526638 0.56003,0.089 0.57149,0.714082 0.96325,0.963239 0.44804,0.03492 0.7814,-0.08899 1.1367,0 0.2689,0.06992 0.58822,0.57443 0.61285,0.786989 0.0269,0.218712 -0.14546,0.388679 -0.17645,0.526637 -0.0702,0.293305 -0.12343,0.686331 -0.17365,0.87388 -0.0443,0.148346 -0.0924,0.290651 -0.0904,0.438997 0,0.130974 0.21243,0.436464 0.3528,0.609924 0.16837,0.215212 0.40928,0.3783 0.61025,0.612577 0.37214,0.428617 0.52905,1.008169 0.7893,1.576381 0.0615,0.140612 -0.0615,0.167419 0,0.347984 -0.11198,0.856404 -0.40312,1.416777 -0.96305,2.363176 -0.26631,0.308063 -0.53184,0.668943 -0.52655,1.050026 -0.0173,0.915527 0.47883,1.388872 0.44006,2.276398 -0.0924,1.189911 0.002,1.374726 -0.0904,2.010377 0.40301,0.204735 0.20463,0.803441 0.0904,1.226384 -0.17366,0.503169 -0.34212,0.627279 -0.44006,0.963239 a 1.1199672,1.1199672 0 0 0 0.61285,0.08947 25.179778,25.179778 0 0 1 -18.19983,7.699984 25.151878,25.151878 0 0 1 -9.44973,-1.836917 c -0.008,-0.0056 0.008,-0.08947 0,-0.09044 0.26631,-0.111884 0.76997,0.196171 0.96335,-0.173556 0.0952,-0.178759 -0.12874,-0.521452 0,-0.700211 0.0904,-0.12324 0.68616,-0.232535 0.87386,-0.262843 0.27159,-0.04331 0.54858,0.0087 0.70021,-0.08947 a 0.79800425,0.79800425 0 0 0 0.3501,-0.70021 c -0.0173,-0.148354 -0.14547,-0.21868 -0.26014,-0.350485 -0.0975,-0.111892 -0.0269,-0.249858 -0.0904,-0.349718 -0.11998,-0.178758 -0.29989,-0.266408 -0.35011,-0.526654 0.36685,-0.07024 0.87136,0.412068 1.40013,0.262843 0.25216,-0.07024 0.67202,-0.550985 0.7893,-0.786989 0.0356,-0.07024 -0.0443,-0.350484 0,-0.436496 0.0443,-0.09852 0.15692,-0.125748 0.17365,-0.176065 0.0356,-0.137095 -0.026,-0.176056 0,-0.260246 0.0924,-0.260335 0.37214,-0.426012 0.52656,-0.616118 0.11467,-0.140563 0.24071,-0.288046 0.35009,-0.436496 0.11998,-0.157016 0.17896,-0.210026 0.26015,-0.347896 0.0799,-0.46507 -0.28564,-0.819893 -0.17365,-1.226278 0.11997,-0.459877 0.78401,-0.755722 1.22349,-0.963344 0.15441,-0.07025 0.31046,-0.215212 0.44006,-0.260238 0.30517,-0.109393 0.67452,-0.07025 0.96036,-0.176065 0.47883,-0.173565 0.64383,-0.700211 0.87665,-1.136804 0.11198,-0.204832 0.24071,-0.378292 0.26015,-0.526646 0.026,-0.131038 -0.026,-0.282852 0,-0.436504 0.026,-0.150951 0.0443,-0.2689 0.0904,-0.436497 a 4.451968,4.451968 0 0 0 0.0875,-0.876557 c 0,-0.202236 -0.0875,-0.252552 -0.0875,-0.436505 -0.0356,-0.660281 0.19319,-0.688855 0.4366,-1.050017 0.12344,-0.178758 0.17645,-0.484128 0.26361,-0.612561 0.41187,-0.609965 1.10044,-0.910043 1.05003,-1.836821 -0.0173,-0.308031 -0.12614,-0.95198 -0.35011,-1.050122 -0.12873,-0.05194 -0.42601,-0.01694 -0.61285,-0.08899 -0.60227,-0.223898 -1.03598,-0.912777 -1.66307,-0.96315 -0.13142,-0.0056 -0.20194,0.0056 -0.3501,0 -0.24341,-0.0056 -0.51231,-0.232479 -0.7867,-0.262892 -0.17366,-0.01694 -0.50981,0.05194 -0.61285,0 -0.15692,-0.06992 -0.13402,-0.349678 -0.26015,-0.436464 -0.10381,-0.06992 -0.27948,-0.117191 -0.43919,-0.176105 a 2.0860001,2.0860001 0 0 0 -0.70021,-0.173573 c -0.0904,-0.0056 -0.33606,0.01694 -0.4366,0 -0.15691,-0.02645 -0.29093,-0.170911 -0.43659,-0.262891 -0.18511,-0.111901 -0.2742,-0.19084 -0.35011,-0.349678 0.1675,-0.548365 -0.41456,-0.641184 -0.52655,-0.960457 -0.0529,-0.148346 0.0529,-0.392163 0,-0.526638 -0.0615,-0.188299 -0.22667,-0.279424 -0.43659,-0.436456 -0.36425,-0.285465 -0.70021,-0.545816 -1.22638,-0.612577 -0.23282,-0.02645 -0.50451,0.01694 -0.784,0 a 1.363568,1.363568 0 0 1 -0.87666,-0.437303 c -0.21522,-0.252512 -0.25216,-0.495483 -0.43919,-0.612569 -0.17645,-0.111901 -0.49028,-0.145805 -0.61025,-0.263746 -0.0529,-0.05194 -0.0356,-0.145806 -0.0904,-0.260247 -0.0904,-0.184799 -0.28564,-0.216058 -0.17366,-0.439012 -0.20463,-0.100666 -0.13141,0.128425 -0.3501,0.09005 -0.19569,-0.279432 -0.33865,-0.436464 -0.7867,-0.352218 -0.20464,0.04347 -0.3756,0.347025 -0.61285,0.352218 -0.19569,0.0056 -0.3527,-0.316724 -0.61285,-0.352218 -0.19569,-0.02645 -0.47623,0.207365 -0.61025,0.176105 -0.22138,-0.03492 -0.24072,-0.305385 -0.4392,-0.436456 -0.14546,-0.09855 -0.44275,-0.355726 -0.52376,-0.349686 -0.25485,0.0056 -0.43659,0.537969 -0.78929,0.349686 -0.17116,-0.218712 0.29372,-0.23514 0.0904,-0.439005 -0.15441,-0.150999 -0.22926,0.0082 -0.3501,0.09005 -0.14297,0.09534 -0.28036,0.207365 -0.44006,0.260351 -0.3501,0.133619 -0.59881,0.120586 -0.87387,0.263738 -0.25216,0.13362 -0.29093,0.352323 -0.4365,0.61257 -0.11728,0.212566 -0.3475,0.515411 -0.52655,0.526637 -0.21252,0.01694 -0.41976,-0.268932 -0.61025,-0.35317 -0.58822,-0.252511 -0.91841,0.170912 -1.40003,0.176106 -0.44805,0.0056 -1.07244,-0.714091 -1.05002,-1.136804 0.0173,-0.260246 0.14297,-0.643829 0.17365,-0.963336 0.026,-0.252512 0.25746,-0.465078 0.26275,-0.70021 0.006,-0.308031 -0.49836,-0.576971 -0.70021,-0.61257 -0.47883,-0.089 -1.12006,0.216059 -1.66316,0 -0.10063,-0.173572 0.20185,-0.268932 0.26275,-0.436464 0.0356,-0.09855 -0.0356,-0.157031 0,-0.262891 0.0615,-0.162226 0.2716,-0.263739 0.3501,-0.436456 0.0529,-0.131079 0.026,-0.364413 0.0875,-0.52664 0.0703,-0.181344 0.24601,-0.302817 0.26361,-0.436442 0.0173,-0.173532 -0.12612,-0.412149 -0.26361,-0.524059 a 2.7271358,2.7271358 0 0 0 -0.96266,0.174061 c -0.54859,0.252491 -0.40562,0.965937 -0.96036,1.139596 -0.1904,0.06041 -0.48778,0.140603 -0.70021,0.173564 a 24.948877,24.948877 0 0 1 1.66104,-5.249536 c 0.1957,0.03473 0.35809,0.15966 0.52656,0.17613 0.46738,0.03474 0.48681,-0.321905 0.87386,-0.526666 0.39773,0.05205 0.60227,-0.03473 0.96324,0 0.24341,0.02607 0.59351,0.335788 0.7867,0.349671 0.16221,0.0056 0.1957,-0.202164 0.35011,-0.176129 0.15441,0.02607 0.41187,0.344465 0.43919,0.526666 0.026,0.229064 -0.15441,0.447718 -0.0904,0.700198 0.24072,0.243812 0.7082,0.383498 1.05003,0.526667 0.22397,-0.183942 0.0356,-0.609964 0,-0.876588 -0.006,-0.117124 0.0173,-0.243803 0,-0.349661 -0.026,-0.181344 -0.0875,-0.367018 -0.0875,-0.526667 0,-0.727964 0.56003,-1.024913 1.05012,-1.310557 0.20993,-0.123205 0.42861,-0.347064 0.61285,-0.439039 0.25745,-0.125813 0.39782,-0.140561 0.61025,-0.260303 0.38888,-0.218654 0.75043,-0.450315 1.05002,-0.700208 0.14018,-0.330574 -0.0173,-0.725357 0,-1.049927 0.14018,-0.08851 0.20464,0.01741 0.35011,0 0.23542,-0.05205 0.30767,-0.392176 0.43919,-0.526666 0.0798,-0.07813 0.34481,-0.09802 0.4365,-0.173532 0.23543,-0.183942 0.23543,-0.44511 0.4365,-0.526666 0.0702,-0.02607 0.23812,-0.05205 0.3501,-0.08851 0.15442,-0.04329 0.36945,-0.17613 0.61286,-0.263766 0.15691,-0.05205 0.55204,-0.02607 0.61285,-0.08851 0.0789,-0.07813 -0.0173,-0.408666 0,-0.526666 0.11997,-0.574396 0.9717,-0.593474 1.48681,-0.784362 0.3554,-0.140562 0.73898,-0.428621 1.1368,-0.353135 -0.0798,0.274176 -0.41456,0.196084 -0.3501,0.526666 0.0875,0.462466 0.62429,-0.111929 0.78929,-0.176129 0.30768,-0.131008 0.90437,-0.202164 1.31046,-0.349671 0.35799,-0.125812 0.9492,-0.375696 0.61285,-0.786969 -0.28035,-0.01741 -0.36684,0.249883 -0.61285,0.34967 -0.1675,0.02607 -0.20713,-0.07812 -0.3501,-0.08851 -0.13767,-0.0057 -0.21243,0.111929 -0.3501,0.08851 -0.13768,-0.02607 -0.32807,-0.274175 -0.35011,-0.436431 -0.0529,-0.428621 0.43919,-0.559647 0.61285,-0.876588 -0.11728,-0.386105 -0.63574,-0.02607 -0.96334,-0.173532 0.0356,-0.229063 0.1675,-0.478957 0.4392,-0.526666 a 1.7305084,1.7305084 0 0 1 0.87386,0.176129 c 0.0779,0.0607 -0.0269,0.241206 0.0876,0.350537 0.13401,0.117134 0.35269,0.02607 0.52654,0 0.0615,-0.290666 -0.40032,-0.162247 -0.3501,-0.350537 0.34481,-0.223858 0.97719,-0.120607 1.40003,-0.176129 0.24341,-0.03473 0.48153,-0.232537 0.70021,-0.349672 0.20194,-0.117133 0.39772,-0.280246 0.61025,-0.08851 0.0615,0.209976 -0.14547,0.330584 -0.26015,0.436433 -0.39244,0.347929 -0.74523,0.736642 -1.05002,1.139593 0.18789,0.181344 0.47007,0.05205 0.7867,0.08851 0.12343,0.01741 0.30768,0.06937 0.4365,0.09024 0.15441,0.02607 0.31662,-0.02607 0.43919,0 0.21252,0.05205 0.22398,0.349672 0.4366,0.349672 0.34481,0 0.37213,-0.290667 0.17365,-0.526667 0.0615,-0.237741 0.17645,-0.442503 0.0904,-0.609964 -0.15971,-0.31669 -0.75572,0.05205 -0.7893,-0.349671 -0.0173,-0.255098 0.26015,-0.333181 0.3501,-0.526667 -0.0356,-0.487625 0.40033,-0.517988 0.35011,-0.960404 -0.026,-0.183942 -0.22397,-0.178737 -0.35011,-0.349671 -0.0615,-0.09284 -0.0975,-0.285452 -0.17365,-0.349671 -0.26631,-0.223859 -0.75572,-0.18829 -0.78929,-0.616911 -0.0173,-0.252491 0.0356,-0.422549 0,-0.700208 -0.0356,-0.257695 -0.29989,-0.996723 -0.52377,-1.047137 -0.28564,-0.06071 -0.44805,0.452923 -0.7867,0.609964 a 1.3804045,1.3804045 0 0 1 -0.70021,0.09024 c -0.12343,-0.02607 -0.33606,-0.117134 -0.3501,-0.350537 -0.0173,-0.133624 0.026,-0.181344 0.0876,-0.26291 0.0173,-0.01741 -0.0173,-0.06937 0,-0.08851 a 25.396248,25.396248 0 0 1 7.00006,-0.963146 z m -10.41364,2.276397 c -0.24601,0.795648 -0.96594,1.248792 -1.92351,1.223585 -0.23542,0.223858 -0.13767,0.652478 -0.26361,0.963146 a 0.77279753,0.77279753 0 0 1 -0.70021,0.436433 c -0.18789,-0.01741 -0.52655,-0.260303 -0.52655,-0.436433 0,-0.145766 0.14018,-0.310619 0.17645,-0.439039 a 24.987361,24.987361 0 0 1 3.23685,-1.749847 z m 21.43822,0.873913 a 0.7672078,0.7672078 0 0 0 -0.26275,0.08851 c -0.19569,0.117134 -0.20464,0.293273 -0.3501,0.349671 -0.20993,0.07813 -0.49558,0.07813 -0.52655,0.263766 -0.026,0.157052 0.18173,0.207368 0.17644,0.349671 -0.0798,0.188281 -0.22397,0.207369 -0.26274,0.436432 0.26014,0.422549 0.90436,0.0056 1.22637,-0.08851 0.14017,-0.04329 0.2716,0.02607 0.34741,-0.08851 0.0875,-0.140561 0.0173,-0.419942 0.0904,-0.612571 0.0702,-0.212574 0.28843,-0.162247 0.26015,-0.349672 -0.0173,-0.18828 -0.38359,-0.38091 -0.70021,-0.34967 z m -27.7399,3.236755 c 0.1879,0.223858 0.34481,0.554432 0,0.700208 -0.0529,0.02607 -0.66317,0.111929 -0.7867,0.09024 -0.0356,-0.0056 -0.0529,-0.06071 -0.0875,-0.09024 0.26641,-0.260303 0.59611,-0.450316 0.87386,-0.700208 z m 0.70021,0.876587 c 0.12343,0.0056 0.20714,0.252491 0.3501,0.260303 0.14018,0.01741 0.3554,-0.11193 0.44006,-0.08851 0.21252,0.05205 0.29094,0.452922 0.0875,0.609964 -0.1675,0.01741 -0.22397,-0.202164 -0.34741,-0.176129 -0.3474,0.0607 -0.44275,0.721893 -0.7002,0.700207 -0.24602,-0.02607 -0.42602,-0.521461 -0.17646,-0.700207 0.006,-0.150981 -0.0975,-0.196084 -0.0875,-0.350538 0.0789,-0.09544 0.23195,-0.276783 0.4365,-0.260302 z m -1.13671,0.173532 c 0.0703,0 0.0615,-0.02607 0.0876,0 -0.0356,0.271569 -0.14018,0.31062 -0.3501,0.43904 a 1.433608,1.433608 0 0 0 -0.70021,0.960318 c -0.0356,0.140561 -0.43919,0.559647 -0.61026,0.526666 -0.40311,-0.08851 0.1675,-0.845964 0.26015,-0.963146 0.10382,-0.12842 0.23283,-0.207369 0.35011,-0.349672 0.11728,-0.14056 0.15163,-0.442502 0.26361,-0.526666 0.12344,-0.08851 0.48682,-0.09544 0.70021,-0.08851 z m 34.47644,0.700208 c 0.40032,-0.02607 0.60227,0.457252 0.784,0.700208 0.15442,0.198691 0.627,0.476349 0.87666,0.612562 0.14296,0.07813 0.28036,0.190878 0.44006,0.263766 0.165,0.06937 0.41447,0.167451 0.61025,0.349671 0.19569,0.178737 0.34482,0.447717 0.35011,0.609964 0.006,0.164854 -0.11199,0.285452 -0.0875,0.43904 0.17645,0.02607 0.2689,-0.150981 0.3501,-0.350537 0.66057,0.940894 1.22089,1.946112 1.74995,2.973623 a 0.33039078,0.33039078 0 0 0 -0.17646,0.263765 c -0.0529,0.285453 0.1675,0.649872 -0.26015,0.700208 -0.27159,0.03474 -0.59081,-0.26898 -0.96333,-0.34967 -0.15076,-0.03474 -0.40302,0.03473 -0.52655,0 -0.27949,-0.09802 -0.19569,-0.445111 -0.4366,-0.612562 a 1.9599665,1.9599665 0 0 0 -0.7002,-0.260293 c -0.13768,-0.01741 -0.20714,0.01741 -0.35011,0 -0.17366,-0.02607 -0.47008,0 -0.61025,-0.09024 -0.14018,-0.08851 -0.49028,-0.232537 -0.52655,-0.349671 -0.0529,-0.188291 0.42861,-0.452922 0.43659,-0.609964 0.009,-0.123205 -0.14816,-0.167452 -0.17365,-0.353135 -0.0173,-0.111929 0.0269,-0.276783 0,-0.347063 -0.0356,-0.133615 -0.22927,-0.257696 -0.4392,-0.26291 -0.18174,0 -0.36434,0.08851 -0.52376,0.08851 -0.22397,0.0056 -0.68347,-0.111928 -0.96324,-0.08851 -0.1675,0.01741 -0.27949,0.07813 -0.4366,0.08851 -0.44275,0.03473 -0.7029,-0.02607 -1.05011,0 -0.25217,0.01741 -0.72754,0.157052 -0.96325,0.26291 -0.11728,0.05205 -0.19569,0.184808 -0.35011,0.260303 -0.0702,0.03473 -0.1675,0.04329 -0.26015,0.09025 -0.14296,0.0607 -0.38887,0.223858 -0.52654,0.260302 -0.19569,0.05205 -0.42602,-0.01741 -0.78661,0 -0.26015,0.01741 -0.69405,-0.03473 -0.70021,-0.347064 -0.006,-0.476349 0.86521,-0.26898 1.31056,-0.353134 0.1675,-0.03473 0.23543,-0.232537 0.43919,-0.347064 0.0952,-0.05205 0.1675,-0.114537 0.26015,-0.176129 0.15441,-0.106725 0.41456,-0.316691 0.43919,-0.436433 0.0173,-0.11193 -0.10274,-0.268981 -0.0904,-0.349671 0.0173,-0.106724 0.21243,-0.212573 0.3527,-0.349671 0.21243,-0.216047 0.34751,-0.476349 0.61025,-0.612562 0.17895,-0.09802 0.53185,-0.119741 0.61285,-0.262891 0.0173,-0.162246 -0.006,-0.202163 0,-0.34967 0.11199,-0.100664 0.0799,-0.154445 0.17645,-0.173533 0.2742,-0.0607 0.55205,0.103204 0.87387,0.08851 0.14017,-0.0056 0.29093,0.0087 0.43659,-0.08851 0.12344,-0.08851 0.22927,-0.202163 0.35011,-0.26289 0.13401,-0.06937 0.2742,-0.25249 0.43919,-0.263766 z m -32.11644,0.263767 c 0.0702,-0.0087 0.18174,0.0084 0.26641,0 0.11467,-0.0056 0.22397,0 0.3501,0 0.12613,0 0.29709,-0.05205 0.3501,0 -0.0875,0.335787 -0.87386,0.209976 -1.13959,0.08851 0.008,-0.06071 0.10939,-0.07813 0.17645,-0.08851 z m -0.96035,0.612561 c 0.0875,0 0.17115,-0.03473 0.26361,0 -0.23542,0.196093 -0.55734,0.308022 -0.96334,0.436432 -0.19569,0.06071 -0.49028,0.125813 -0.52655,-0.08851 -0.0356,-0.266374 0.17895,-0.237742 0.3501,-0.26291 0.22398,-0.02607 0.61651,-0.08851 0.87666,-0.08851 z m 33.16319,0 c -0.1675,0.05205 -0.25217,0.392176 0,0.436432 0.11728,-0.06937 0.11728,-0.223859 0.0875,-0.436432 -0.0703,-0.06937 -0.0356,-0.01741 -0.0875,0 z m -0.0904,0.700208 c -0.0799,0.02607 -0.17366,-0.0056 -0.26015,0.08851 0.006,0.285451 0.0529,0.447718 0,0.700208 0.16221,0.316691 0.53185,0.125812 0.61035,-0.08851 0.0985,-0.531871 -0.10381,-0.767015 -0.34741,-0.700208 z m 2.18962,1.400127 a 0.75320941,0.75320941 0 0 0 -0.52655,0.173533 c 0.19039,0.308021 0.5406,0.364419 0.96324,0.439039 0.15162,-0.11193 0.10381,-0.419943 0.17645,-0.616035 -0.18424,0 -0.30239,0.01741 -0.52656,0 h -0.0875 z m -44.45046,10.759032 c 0.17895,0.229099 0.37214,0.495386 0.61026,0.616924 0.12873,0.06041 0.27699,0.05194 0.4392,0.089 0.13141,0.02645 0.22397,0.137958 0.3501,0.176105 0.2689,0.09323 0.66056,0.07839 0.87386,0.176113 0.32721,0.140612 0.50702,0.71059 0.7893,0.873872 0.0173,0.162226 -0.0529,0.316717 0,0.436465 0.13142,0.17875 0.39773,0.231631 0.61025,0.349677 0.26015,0.14316 0.36954,0.500685 0.61285,0.61257 0.0875,0.03492 0.21869,-0.03492 0.3501,0 0.33587,0.100666 0.40928,0.609932 0.70021,0.526637 0.1879,-0.05194 0.23197,-0.344484 0.26275,-0.526637 0.12613,-0.140604 0.23812,-0.349678 0.4365,-0.349678 0.31662,-0.0056 0.40927,0.392164 0.52655,0.70021 0.0615,0.173565 0.21609,0.340992 0.26015,0.526638 a 4.592048,4.592048 0 0 1 0,1.400026 c -0.0798,0.232479 -0.41986,0.355726 -0.61025,0.609932 -0.0924,0.123232 -0.19319,0.268932 -0.26275,0.349678 -0.12344,0.154491 -0.25745,0.212566 -0.3501,0.349678 -0.0529,0.07839 -0.0443,0.243826 -0.0904,0.349685 -0.15076,0.327951 -0.38888,0.571777 -0.26015,0.963239 0.0529,0.15704 0.26015,0.335799 0.26015,0.526638 0,0.223793 -0.48682,0.279433 -0.52376,0.524098 -0.0269,0.178758 0.20714,0.548364 0.26361,0.786988 0.0356,0.178759 0.33067,0.321919 0.4366,0.43986 0.17894,0.196138 0.36424,0.44515 0.52655,0.700202 0.31922,0.492878 0.47008,1.091971 0.784,1.573696 0.1675,0.252544 0.50453,0.433802 0.61651,0.700202 0.0529,0.131038 -0.0529,0.402543 0,0.526646 0.18174,0.412164 1.07235,0.845967 1.48392,1.047235 0.1957,0.09852 0.35011,0.162209 0.52656,0.26294 0.27169,0.154418 0.82634,0.462376 0.96334,0.70021 0.12343,0.21522 0.20194,0.708001 0.26274,1.050114 0.0789,0.447667 -0.0173,0.828652 0,1.313256 0.0173,0.26294 0.0875,0.433803 0.0875,0.700202 0,0.09237 0.006,0.257746 0,0.349726 -0.006,0.31672 0.026,0.643832 0,0.963243 a 3.6456417,3.6456417 0 0 0 0,0.524145 c 0.0173,0.15971 0.165,0.212527 0.17645,0.349719 0.009,0.148353 -0.19319,0.321918 -0.17645,0.439867 0.0356,0.319225 0.3756,0.579657 0.4365,0.873961 0.0529,0.235132 0.11728,0.769576 0.0904,1.050025 -0.026,0.148354 -0.0702,0.364437 -0.0904,0.526646 -0.0173,0.125748 0.0173,0.232632 0,0.347024 -6.97485,-4.480348 -11.63549,-12.263743 -11.63549,-21.174608 0,-1.142384 0.11467,-2.223097 0.26274,-3.326415 z m 9.62281,2.539628 c 0.24601,-0.111901 0.19849,0.319273 0,0.349678 -0.18789,0.02645 -0.18173,-0.263739 0,-0.349678 z"
     inkscape:connector-curvature="0"
     style="color:#282828;opacity:1;fill:#197d91;fill-opacity:1;stroke-width:2.79996" />
</svg>
