<?xml version="1.0" encoding="UTF-8" standalone="no"?>
<svg
   xmlns:dc="http://purl.org/dc/elements/1.1/"
   xmlns:cc="http://creativecommons.org/ns#"
   xmlns:rdf="http://www.w3.org/1999/02/22-rdf-syntax-ns#"
   xmlns:svg="http://www.w3.org/2000/svg"
   xmlns="http://www.w3.org/2000/svg"
   xmlns:xlink="http://www.w3.org/1999/xlink"
   xmlns:sodipodi="http://sodipodi.sourceforge.net/DTD/sodipodi-0.dtd"
   xmlns:inkscape="http://www.inkscape.org/namespaces/inkscape"
   width="64"
   height="64"
   version="1.1"
   viewBox="0 0 16.933 16.933"
   id="svg383"
   sodipodi:docname="user-trash-full.svg"
   inkscape:version="1.0.1 (3bc2e813f5, 2020-09-07)">
  <sodipodi:namedview
     pagecolor="#ffffff"
     bordercolor="#666666"
     borderopacity="1"
     objecttolerance="10"
     gridtolerance="10"
     guidetolerance="10"
     inkscape:pageopacity="0"
     inkscape:pageshadow="2"
     inkscape:window-width="1920"
     inkscape:window-height="978"
     id="namedview385"
     showgrid="false"
     inkscape:zoom="2.2953349"
     inkscape:cx="-78.096835"
     inkscape:cy="45.847672"
     inkscape:window-x="0"
     inkscape:window-y="0"
     inkscape:window-maximized="1"
     inkscape:current-layer="svg383"
     inkscape:snap-bbox="true"
     inkscape:bbox-nodes="true"
     inkscape:snap-bbox-edge-midpoints="true"
     showguides="true"
     inkscape:guide-bbox="true" />
  <metadata
     id="metadata2">
    <rdf:RDF>
      <cc:Work
         rdf:about="">
        <dc:format>image/svg+xml</dc:format>
        <dc:type
           rdf:resource="http://purl.org/dc/dcmitype/StillImage" />
        <dc:title></dc:title>
      </cc:Work>
    </rdf:RDF>
  </metadata>
  <defs
     id="defs219">
    <pattern
       id="bo"
       patternTransform="matrix(.26457 0 0 .26457 37.008 140.23)"
       xlink:href="#i" />
    <pattern
       id="bp"
       patternTransform="matrix(.26457 0 0 .26457 85.055 151.95)"
       xlink:href="#g" />
    <pattern
       id="f"
       patternTransform="translate(-4.5558e-6 -1.5878e-5)"
       xlink:href="#h" />
    <linearGradient
       id="b">
      <stop
         stop-color="#d9dadd"
         offset="0"
         id="stop7" />
      <stop
         stop-color="#e3e4e6"
         offset=".25424"
         id="stop9" />
      <stop
         stop-color="#d8dbde"
         offset=".74364"
         id="stop11" />
      <stop
         stop-color="#f7f7f8"
         offset="1"
         id="stop13" />
    </linearGradient>
    <clipPath
       id="bl">
      <path
         d="m45.102 268 3.7755 30.736c-5e-6 2.8428 5.3769 5.1475 12.01 5.1475 6.6332 0 12.011-2.3047 12.011-5.1475l3.7419-30.736c-7.94e-4 2.1771-7.0606 3.9419-15.769 3.9419-8.7084 2e-5 -15.768-1.7648-15.769-3.9419zm31.538 0c0-0.0854-0.01476-0.17017-0.03617-0.25425 0.02299 0.0846 0.03506 0.16942 0.03617 0.25425z"
         color="#000000"
         fill="#fff"
         opacity=".691"
         id="path16" />
    </clipPath>
    <filter
       id="at"
       x="-.084444"
       y="-.18727"
       width="1.1689"
       height="1.3745"
       color-interpolation-filters="sRGB">
      <feGaussianBlur
         stdDeviation="1.0791004"
         id="feGaussianBlur19" />
    </filter>
    <clipPath
       id="bj">
      <path
         d="m45.102 268 3.7755 30.736c-5e-6 2.8428 5.3769 5.1475 12.01 5.1475 6.6332 0 12.011-2.3047 12.011-5.1475l3.7419-30.736c-7.94e-4 2.1771-7.0606 3.9419-15.769 3.9419-8.7084 2e-5 -15.768-1.7648-15.769-3.9419zm31.538 0c0-0.0854-0.01476-0.17017-0.03617-0.25425 0.02299 0.0846 0.03506 0.16942 0.03617 0.25425z"
         color="#000000"
         fill="#fff"
         opacity=".691"
         id="path22" />
    </clipPath>
    <filter
       id="as"
       x="-.36661"
       y="-.59062"
       width="1.7332"
       height="2.1812"
       color-interpolation-filters="sRGB">
      <feGaussianBlur
         stdDeviation="1.6947276"
         id="feGaussianBlur25" />
    </filter>
    <linearGradient
       id="r"
       x1="170.46"
       x2="289.66"
       y1="713.63"
       y2="713.63"
       gradientUnits="userSpaceOnUse"
       xlink:href="#b" />
    <linearGradient
       id="k"
       x1="-.68508"
       x2="-3.3545"
       y1="217.79"
       y2="211.6"
       gradientTransform="matrix(3.7795,0,0,3.7795,82.118,-750.16)"
       gradientUnits="userSpaceOnUse"
       xlink:href="#a" />
    <linearGradient
       id="a">
      <stop
         stop-color="#fff"
         offset="0"
         id="stop30" />
      <stop
         stop-color="#fff"
         stop-opacity="0"
         offset="1"
         id="stop32" />
    </linearGradient>
    <filter
       id="c"
       x="-.085574"
       y="-.069658"
       width="1.1711"
       height="1.1393"
       color-interpolation-filters="sRGB">
      <feGaussianBlur
         stdDeviation="0.93845522"
         id="feGaussianBlur35" />
    </filter>
    <filter
       id="ah"
       x="-.080085"
       y="-.1059"
       width="1.1602"
       height="1.2118"
       color-interpolation-filters="sRGB">
      <feGaussianBlur
         stdDeviation="0.20389857"
         id="feGaussianBlur38" />
    </filter>
    <filter
       id="aj"
       x="-.080085"
       y="-.1059"
       width="1.1602"
       height="1.2118"
       color-interpolation-filters="sRGB">
      <feGaussianBlur
         stdDeviation="0.20389857"
         id="feGaussianBlur41" />
    </filter>
    <filter
       id="ae"
       x="-.37642"
       y="-.28625"
       width="1.7528"
       height="1.5725"
       color-interpolation-filters="sRGB">
      <feGaussianBlur
         stdDeviation="0.46610163"
         id="feGaussianBlur44" />
    </filter>
    <filter
       id="ad"
       x="-.37642"
       y="-.28625"
       width="1.7528"
       height="1.5725"
       color-interpolation-filters="sRGB">
      <feGaussianBlur
         stdDeviation="0.46610163"
         id="feGaussianBlur47" />
    </filter>
    <filter
       id="ai"
       x="-.080085"
       y="-.1059"
       width="1.1602"
       height="1.2118"
       color-interpolation-filters="sRGB">
      <feGaussianBlur
         stdDeviation="0.20389857"
         id="feGaussianBlur50" />
    </filter>
    <linearGradient
       id="l"
       x1="-.68508"
       x2="-3.3545"
       y1="217.79"
       y2="211.6"
       gradientUnits="userSpaceOnUse"
       xlink:href="#a" />
    <radialGradient
       id="e"
       cx="1.4014"
       cy="209.31"
       r="1.1949"
       gradientTransform="matrix(1.5723 1.7816 -.76333 .67366 158.91 65.624)"
       gradientUnits="userSpaceOnUse"
       xlink:href="#a" />
    <filter
       id="aa"
       x="-.054222"
       y="-.07024"
       width="1.1084"
       height="1.1405"
       color-interpolation-filters="sRGB">
      <feGaussianBlur
         stdDeviation="0.053991352"
         id="feGaussianBlur55" />
    </filter>
    <filter
       id="ac"
       x="-.37642"
       y="-.28625"
       width="1.7528"
       height="1.5725"
       color-interpolation-filters="sRGB">
      <feGaussianBlur
         stdDeviation="0.46610163"
         id="feGaussianBlur58" />
    </filter>
    <filter
       id="ag"
       x="-.080085"
       y="-.1059"
       width="1.1602"
       height="1.2118"
       color-interpolation-filters="sRGB">
      <feGaussianBlur
         stdDeviation="0.20389857"
         id="feGaussianBlur61" />
    </filter>
    <filter
       id="ab"
       x="-.37642"
       y="-.28625"
       width="1.7528"
       height="1.5725"
       color-interpolation-filters="sRGB">
      <feGaussianBlur
         stdDeviation="0.46610163"
         id="feGaussianBlur64" />
    </filter>
    <filter
       id="af"
       x="-.080085"
       y="-.1059"
       width="1.1602"
       height="1.2118"
       color-interpolation-filters="sRGB">
      <feGaussianBlur
         stdDeviation="0.20389857"
         id="feGaussianBlur67" />
    </filter>
    <filter
       id="z"
       x="-.24316"
       y="-.78397"
       width="1.4863"
       height="2.5679"
       color-interpolation-filters="sRGB">
      <feGaussianBlur
         stdDeviation="0.89514091"
         id="feGaussianBlur70" />
    </filter>
    <filter
       id="v"
       x="-.24316"
       y="-.78397"
       width="1.4863"
       height="2.5679"
       color-interpolation-filters="sRGB">
      <feGaussianBlur
         stdDeviation="0.89514091"
         id="feGaussianBlur73" />
    </filter>
    <filter
       id="y"
       x="-.24316"
       y="-.78397"
       width="1.4863"
       height="2.5679"
       color-interpolation-filters="sRGB">
      <feGaussianBlur
         stdDeviation="0.89514091"
         id="feGaussianBlur76" />
    </filter>
    <filter
       id="u"
       x="-.24316"
       y="-.78397"
       width="1.4863"
       height="2.5679"
       color-interpolation-filters="sRGB">
      <feGaussianBlur
         stdDeviation="0.89514091"
         id="feGaussianBlur79" />
    </filter>
    <filter
       id="t"
       x="-.16005"
       y="-.24367"
       width="1.3201"
       height="1.4873"
       color-interpolation-filters="sRGB">
      <feGaussianBlur
         stdDeviation="0.5727377"
         id="feGaussianBlur82" />
    </filter>
    <filter
       id="x"
       x="-.24316"
       y="-.78397"
       width="1.4863"
       height="2.5679"
       color-interpolation-filters="sRGB">
      <feGaussianBlur
         stdDeviation="0.89514091"
         id="feGaussianBlur85" />
    </filter>
    <filter
       id="w"
       x="-.24316"
       y="-.78397"
       width="1.4863"
       height="2.5679"
       color-interpolation-filters="sRGB">
      <feGaussianBlur
         stdDeviation="0.89514091"
         id="feGaussianBlur88" />
    </filter>
    <clipPath
       id="ax">
      <path
         d="m-16.962 206.64c-1.1694-0.69689-2.6576-1.9844-2.6576-3.9333 0-1.1694 0.75595-1.7127 0.75595-1.7127-0.05906 0.61421-0.7087 1.7954 0.12993 2.4805 0.2008 0.3071 0.43703 0.33073 1.1103 0.3071 0.67327-0.0236 0.53153 0.17718 0.53153 0.17718s0.16536-0.74414 0.33073-0.93313c0.16536-0.18899 0.86226-1.7009 0.86226-1.7009s3.3191-1.6891 3.5553-1.7954c0.23624-0.1063 1.193-0.24805 1.193-0.24805s3.39 1.193 3.5553 1.3584c0.16536 0.16536 0.37798 1.2638 0.37798 1.2638l-0.42522 1.6418-3.0829 1.1576 1.571 3.3782-3.3545 0.22443s-3.6616-0.29529-4.453-1.6655z"
         fill="#b0afad"
         fill-rule="evenodd"
         id="path91" />
    </clipPath>
    <clipPath
       id="az">
      <path
         d="m-16.962 206.64c-1.1694-0.69689-2.6576-1.9844-2.6576-3.9333 0-1.1694 0.75595-1.7127 0.75595-1.7127-0.05906 0.61421-0.7087 1.7954 0.12993 2.4805 0.2008 0.3071 0.43703 0.33073 1.1103 0.3071 0.67327-0.0236 0.53153 0.17718 0.53153 0.17718s0.16536-0.74414 0.33073-0.93313c0.16536-0.18899 0.86226-1.7009 0.86226-1.7009s3.3191-1.6891 3.5553-1.7954c0.23624-0.1063 1.193-0.24805 1.193-0.24805s3.39 1.193 3.5553 1.3584c0.16536 0.16536 0.37798 1.2638 0.37798 1.2638l-0.42522 1.6418-3.0829 1.1576 1.571 3.3782-3.3545 0.22443s-3.6616-0.29529-4.453-1.6655z"
         fill="#b0afad"
         fill-rule="evenodd"
         id="path94" />
    </clipPath>
    <clipPath
       id="ay">
      <path
         d="m-16.962 206.64c-1.1694-0.69689-2.6576-1.9844-2.6576-3.9333 0-1.1694 0.75595-1.7127 0.75595-1.7127-0.05906 0.61421-0.7087 1.7954 0.12993 2.4805 0.2008 0.3071 0.43703 0.33073 1.1103 0.3071 0.67327-0.0236 0.53153 0.17718 0.53153 0.17718s0.16536-0.74414 0.33073-0.93313c0.16536-0.18899 0.86226-1.7009 0.86226-1.7009s3.3191-1.6891 3.5553-1.7954c0.23624-0.1063 1.193-0.24805 1.193-0.24805s3.39 1.193 3.5553 1.3584c0.16536 0.16536 0.37798 1.2638 0.37798 1.2638l-0.42522 1.6418-3.0829 1.1576 1.571 3.3782-3.3545 0.22443s-3.6616-0.29529-4.453-1.6655z"
         fill="#b0afad"
         fill-rule="evenodd"
         id="path97" />
    </clipPath>
    <clipPath
       id="bh">
      <path
         d="m-14.611 203.49c4.2995 1.6064 4.3704 4.3113 5.3035 4.3113 0.93313 0 0.83863 0.4961 1.3229-0.16536 0.48428-0.66146 1.6064-1.8308 1.7245-2.8939 0.11812-1.0631 1.0276-0.57878 1.0158-0.14174-0.011811 0.43703-0.30711 3.3545-0.2008 3.579s0.25986 0.34254 0.35435-0.43704c0.094494-0.77957 0.11812-1.9844 0.31892-2.1379 0.2008-0.15356 1.4292-0.8977 1.6655-1.7481 0 0 0.03543-0.42523-0.68508-0.67328-0.72052-0.24804 1.7127-2.2915 1.7127-2.2915s3.4845 1.6064 4.3704 2.5277c0 0-0.33707 1.2262 0.08054 1.2262s0.60136 1.0858-0.31738 0.86862-1.6203-0.61806-2.1883 0.0167-0.81851 1.2361-1.1192 1.353-0.70158 0.31738-0.68488-0.53454-0.11693 0.70158-0.3675 0.66817c-0.25056-0.0334-0.15034 0.40091-1.6871 0.45102 0 0 0.90204 0.3508 0.96885 0.88534 0.06682 0.53454 0.11693 0.55124 0.11693 0.55124s1.921 0.16705 2.0045-0.3842c0.08352-0.55124 0.55124-1.3029 0.7517-1.5535 0.20045-0.25057 1.1025-1.2862 1.9544-1.1693 0 0-1.5535 0.98555-2.1716 2.3553-0.61806 1.3698 4.3932 1.0023 4.3932 1.0023s2.6727-0.70158 2.9734-1.6537 0.3675-4.6271-0.21716-5.2285c-0.89971-0.75589-2.0809-1.4646-3.5219-0.54328-1.441 0.92131-0.25986 1.3702-2.2206-0.35435-1.9608-1.7245-3.7561-2.5041-3.7561-2.5041s-2.2915 3.0947-2.3387 2.764c-0.047247-0.33073-0.56696-2.0552-0.82682-0.77957 0 0-0.75595-0.28348-0.68508 0.37797 0.070871 0.66146-1.0158-0.7087-1.0158-0.7087s0.094494 1.8899-0.37798 2.1261c0 0 1.9844-0.51971 1.252 0.54335-0.73233 1.063-1.5592 1.1339-2.8348 1.2048-1.2757 0.0709-2.1025-0.66145-2.7403-0.85044s-1.1576-0.75595-2.3269-0.0591z"
         fill="#dedede"
         fill-rule="evenodd"
         id="path100" />
    </clipPath>
    <filter
       id="aq"
       x="-.17321"
       y="-.12147"
       width="1.3464"
       height="1.2429"
       color-interpolation-filters="sRGB">
      <feGaussianBlur
         stdDeviation="0.18354709"
         id="feGaussianBlur103" />
    </filter>
    <clipPath
       id="bg">
      <path
         d="m-14.611 203.49c4.2995 1.6064 4.3704 4.3113 5.3035 4.3113 0.93313 0 0.83863 0.4961 1.3229-0.16536 0.48428-0.66146 1.6064-1.8308 1.7245-2.8939 0.11812-1.0631 1.0276-0.57878 1.0158-0.14174-0.011811 0.43703-0.30711 3.3545-0.2008 3.579s0.25986 0.34254 0.35435-0.43704c0.094494-0.77957 0.11812-1.9844 0.31892-2.1379 0.2008-0.15356 1.4292-0.8977 1.6655-1.7481 0 0 0.03543-0.42523-0.68508-0.67328-0.72052-0.24804 1.7127-2.2915 1.7127-2.2915s3.4845 1.6064 4.3704 2.5277c0 0-0.33707 1.2262 0.08054 1.2262s0.60136 1.0858-0.31738 0.86862-1.6203-0.61806-2.1883 0.0167-0.81851 1.2361-1.1192 1.353-0.70158 0.31738-0.68488-0.53454-0.11693 0.70158-0.3675 0.66817c-0.25056-0.0334-0.15034 0.40091-1.6871 0.45102 0 0 0.90204 0.3508 0.96885 0.88534 0.06682 0.53454 0.11693 0.55124 0.11693 0.55124s1.921 0.16705 2.0045-0.3842c0.08352-0.55124 0.55124-1.3029 0.7517-1.5535 0.20045-0.25057 1.1025-1.2862 1.9544-1.1693 0 0-1.5535 0.98555-2.1716 2.3553-0.61806 1.3698 4.3932 1.0023 4.3932 1.0023s2.6727-0.70158 2.9734-1.6537 0.3675-4.6271-0.21716-5.2285c-0.89971-0.75589-2.0809-1.4646-3.5219-0.54328-1.441 0.92131-0.25986 1.3702-2.2206-0.35435-1.9608-1.7245-3.7561-2.5041-3.7561-2.5041s-2.2915 3.0947-2.3387 2.764c-0.047247-0.33073-0.56696-2.0552-0.82682-0.77957 0 0-0.75595-0.28348-0.68508 0.37797 0.070871 0.66146-1.0158-0.7087-1.0158-0.7087s0.094494 1.8899-0.37798 2.1261c0 0 1.9844-0.51971 1.252 0.54335-0.73233 1.063-1.5592 1.1339-2.8348 1.2048-1.2757 0.0709-2.1025-0.66145-2.7403-0.85044s-1.1576-0.75595-2.3269-0.0591z"
         fill="#dedede"
         fill-rule="evenodd"
         id="path106" />
    </clipPath>
    <filter
       id="ap"
       x="-.053854"
       y="-.03284"
       width="1.1077"
       height="1.0657"
       color-interpolation-filters="sRGB">
      <feGaussianBlur
         stdDeviation="0.097488778"
         id="feGaussianBlur109" />
    </filter>
    <clipPath
       id="bf">
      <path
         d="m-14.611 203.49c4.2995 1.6064 4.3704 4.3113 5.3035 4.3113 0.93313 0 0.83863 0.4961 1.3229-0.16536 0.48428-0.66146 1.6064-1.8308 1.7245-2.8939 0.11812-1.0631 1.0276-0.57878 1.0158-0.14174-0.011811 0.43703-0.30711 3.3545-0.2008 3.579s0.25986 0.34254 0.35435-0.43704c0.094494-0.77957 0.11812-1.9844 0.31892-2.1379 0.2008-0.15356 1.4292-0.8977 1.6655-1.7481 0 0 0.03543-0.42523-0.68508-0.67328-0.72052-0.24804 1.7127-2.2915 1.7127-2.2915s3.4845 1.6064 4.3704 2.5277c0 0-0.33707 1.2262 0.08054 1.2262s0.60136 1.0858-0.31738 0.86862-1.6203-0.61806-2.1883 0.0167-0.81851 1.2361-1.1192 1.353-0.70158 0.31738-0.68488-0.53454-0.11693 0.70158-0.3675 0.66817c-0.25056-0.0334-0.15034 0.40091-1.6871 0.45102 0 0 0.90204 0.3508 0.96885 0.88534 0.06682 0.53454 0.11693 0.55124 0.11693 0.55124s1.921 0.16705 2.0045-0.3842c0.08352-0.55124 0.55124-1.3029 0.7517-1.5535 0.20045-0.25057 1.1025-1.2862 1.9544-1.1693 0 0-1.5535 0.98555-2.1716 2.3553-0.61806 1.3698 4.3932 1.0023 4.3932 1.0023s2.6727-0.70158 2.9734-1.6537 0.3675-4.6271-0.21716-5.2285c-0.89971-0.75589-2.0809-1.4646-3.5219-0.54328-1.441 0.92131-0.25986 1.3702-2.2206-0.35435-1.9608-1.7245-3.7561-2.5041-3.7561-2.5041s-2.2915 3.0947-2.3387 2.764c-0.047247-0.33073-0.56696-2.0552-0.82682-0.77957 0 0-0.75595-0.28348-0.68508 0.37797 0.070871 0.66146-1.0158-0.7087-1.0158-0.7087s0.094494 1.8899-0.37798 2.1261c0 0 1.9844-0.51971 1.252 0.54335-0.73233 1.063-1.5592 1.1339-2.8348 1.2048-1.2757 0.0709-2.1025-0.66145-2.7403-0.85044s-1.1576-0.75595-2.3269-0.0591z"
         fill="#dedede"
         fill-rule="evenodd"
         id="path112" />
    </clipPath>
    <filter
       id="ao"
       x="-.21518"
       y="-.1753"
       width="1.4304"
       height="1.3506"
       color-interpolation-filters="sRGB">
      <feGaussianBlur
         stdDeviation="0.13798654"
         id="feGaussianBlur115" />
    </filter>
    <clipPath
       id="be">
      <path
         d="m-14.611 203.49c4.2995 1.6064 4.3704 4.3113 5.3035 4.3113 0.93313 0 0.83863 0.4961 1.3229-0.16536 0.48428-0.66146 1.6064-1.8308 1.7245-2.8939 0.11812-1.0631 1.0276-0.57878 1.0158-0.14174-0.011811 0.43703-0.30711 3.3545-0.2008 3.579s0.25986 0.34254 0.35435-0.43704c0.094494-0.77957 0.11812-1.9844 0.31892-2.1379 0.2008-0.15356 1.4292-0.8977 1.6655-1.7481 0 0 0.03543-0.42523-0.68508-0.67328-0.72052-0.24804 1.7127-2.2915 1.7127-2.2915s3.4845 1.6064 4.3704 2.5277c0 0-0.33707 1.2262 0.08054 1.2262s0.60136 1.0858-0.31738 0.86862-1.6203-0.61806-2.1883 0.0167-0.81851 1.2361-1.1192 1.353-0.70158 0.31738-0.68488-0.53454-0.11693 0.70158-0.3675 0.66817c-0.25056-0.0334-0.15034 0.40091-1.6871 0.45102 0 0 0.90204 0.3508 0.96885 0.88534 0.06682 0.53454 0.11693 0.55124 0.11693 0.55124s1.921 0.16705 2.0045-0.3842c0.08352-0.55124 0.55124-1.3029 0.7517-1.5535 0.20045-0.25057 1.1025-1.2862 1.9544-1.1693 0 0-1.5535 0.98555-2.1716 2.3553-0.61806 1.3698 4.3932 1.0023 4.3932 1.0023s2.6727-0.70158 2.9734-1.6537 0.3675-4.6271-0.21716-5.2285c-0.89971-0.75589-2.0809-1.4646-3.5219-0.54328-1.441 0.92131-0.25986 1.3702-2.2206-0.35435-1.9608-1.7245-3.7561-2.5041-3.7561-2.5041s-2.2915 3.0947-2.3387 2.764c-0.047247-0.33073-0.56696-2.0552-0.82682-0.77957 0 0-0.75595-0.28348-0.68508 0.37797 0.070871 0.66146-1.0158-0.7087-1.0158-0.7087s0.094494 1.8899-0.37798 2.1261c0 0 1.9844-0.51971 1.252 0.54335-0.73233 1.063-1.5592 1.1339-2.8348 1.2048-1.2757 0.0709-2.1025-0.66145-2.7403-0.85044s-1.1576-0.75595-2.3269-0.0591z"
         fill="#dedede"
         fill-rule="evenodd"
         id="path118" />
    </clipPath>
    <filter
       id="an"
       x="-.042908"
       y="-.08227"
       width="1.0858"
       height="1.1645"
       color-interpolation-filters="sRGB">
      <feGaussianBlur
         stdDeviation="0.17003381"
         id="feGaussianBlur121" />
    </filter>
    <clipPath
       id="bd">
      <path
         d="m-14.611 203.49c4.2995 1.6064 4.3704 4.3113 5.3035 4.3113 0.93313 0 0.83863 0.4961 1.3229-0.16536 0.48428-0.66146 1.6064-1.8308 1.7245-2.8939 0.11812-1.0631 1.0276-0.57878 1.0158-0.14174-0.011811 0.43703-0.30711 3.3545-0.2008 3.579s0.25986 0.34254 0.35435-0.43704c0.094494-0.77957 0.11812-1.9844 0.31892-2.1379 0.2008-0.15356 1.4292-0.8977 1.6655-1.7481 0 0 0.03543-0.42523-0.68508-0.67328-0.72052-0.24804 1.7127-2.2915 1.7127-2.2915s3.4845 1.6064 4.3704 2.5277c0 0-0.33707 1.2262 0.08054 1.2262s0.60136 1.0858-0.31738 0.86862-1.6203-0.61806-2.1883 0.0167-0.81851 1.2361-1.1192 1.353-0.70158 0.31738-0.68488-0.53454-0.11693 0.70158-0.3675 0.66817c-0.25056-0.0334-0.15034 0.40091-1.6871 0.45102 0 0 0.90204 0.3508 0.96885 0.88534 0.06682 0.53454 0.11693 0.55124 0.11693 0.55124s1.921 0.16705 2.0045-0.3842c0.08352-0.55124 0.55124-1.3029 0.7517-1.5535 0.20045-0.25057 1.1025-1.2862 1.9544-1.1693 0 0-1.5535 0.98555-2.1716 2.3553-0.61806 1.3698 4.3932 1.0023 4.3932 1.0023s2.6727-0.70158 2.9734-1.6537 0.3675-4.6271-0.21716-5.2285c-0.89971-0.75589-2.0809-1.4646-3.5219-0.54328-1.441 0.92131-0.25986 1.3702-2.2206-0.35435-1.9608-1.7245-3.7561-2.5041-3.7561-2.5041s-2.2915 3.0947-2.3387 2.764c-0.047247-0.33073-0.56696-2.0552-0.82682-0.77957 0 0-0.75595-0.28348-0.68508 0.37797 0.070871 0.66146-1.0158-0.7087-1.0158-0.7087s0.094494 1.8899-0.37798 2.1261c0 0 1.9844-0.51971 1.252 0.54335-0.73233 1.063-1.5592 1.1339-2.8348 1.2048-1.2757 0.0709-2.1025-0.66145-2.7403-0.85044s-1.1576-0.75595-2.3269-0.0591z"
         fill="#dedede"
         fill-rule="evenodd"
         id="path124" />
    </clipPath>
    <filter
       id="am"
       x="-.076365"
       y="-.076177"
       width="1.1527"
       height="1.1524"
       color-interpolation-filters="sRGB">
      <feGaussianBlur
         stdDeviation="0.22924756"
         id="feGaussianBlur127" />
    </filter>
    <clipPath
       id="bc">
      <path
         d="m-55.223 402.47c16.25 6.0714 16.518 16.295 20.045 16.295 3.5268 0 3.1696 1.875 5-0.62498 1.8304-2.5 6.0714-6.9196 6.5179-10.938 0.44643-4.0179 3.8839-2.1875 3.8393-0.53571-0.04464 1.6518-1.1607 12.679-0.75893 13.527s0.98214 1.2946 1.3393-1.6518c0.35714-2.9464 0.44643-7.5 1.2054-8.0803 0.75893-0.58039 5.4018-3.3929 6.2946-6.6072 0 0 0.13391-1.6072-2.5893-2.5447-2.7232-0.93747 6.4732-8.6607 6.4732-8.6607s13.17 6.0714 16.518 9.5536c0 0-1.274 4.6345 0.3044 4.6345s2.2728 4.1037-1.1996 3.283c-3.4724-0.82076-6.124-2.336-8.2706 0.0631s-3.0936 4.672-4.23 5.1139-2.6517 1.1996-2.5885-2.0203c0.063118-3.2198-0.44194 2.6516-1.389 2.5254-0.94702-0.12624-0.56821 1.5152-6.3766 1.7046 0 0 3.4093 1.3259 3.6618 3.3462 0.25255 2.0203 0.44194 2.0834 0.44194 2.0834s7.2605 0.63137 7.5761-1.4521c0.31567-2.0834 2.0834-4.9245 2.8411-5.8715 0.75761-0.94703 4.1669-4.8614 7.3867-4.4194 0 0-5.8715 3.7249-8.2075 8.902-2.336 5.177 16.604 3.7881 16.604 3.7881s10.102-2.6516 11.238-6.2503c1.1364-3.5987 1.389-17.488-0.82075-19.761-3.4005-2.8569-7.8648-5.5355-13.311-2.0533-5.4464 3.4821-0.98214 5.1786-8.3929-1.3393-7.4107-6.5179-14.196-9.4643-14.196-9.4643s-8.6607 11.696-8.8393 10.446c-0.17857-1.25-2.1429-7.7678-3.125-2.9464 0 0-2.8571-1.0714-2.5893 1.4286 0.26786 2.5-3.8393-2.6786-3.8393-2.6786s0.35714 7.1428-1.4286 8.0357c0 0 7.5-1.9643 4.7321 2.0536-2.7679 4.0178-5.8929 4.2857-10.714 4.5535-4.8214 0.26797-7.9464-2.5-10.357-3.2143s-4.375-2.8571-8.7946-0.22337z"
         fill="#dedede"
         fill-rule="evenodd"
         id="path130" />
    </clipPath>
    <filter
       id="al"
       x="-.19752"
       y="-.12406"
       width="1.395"
       height="1.2481"
       color-interpolation-filters="sRGB">
      <feGaussianBlur
         stdDeviation="0.2430634"
         id="feGaussianBlur133" />
    </filter>
    <clipPath
       id="bb">
      <path
         d="m-14.611 203.49c4.2995 1.6064 4.3704 4.3113 5.3035 4.3113 0.93313 0 0.83863 0.4961 1.3229-0.16536 0.48428-0.66146 1.6064-1.8308 1.7245-2.8939 0.11812-1.0631 1.0276-0.57878 1.0158-0.14174-0.011811 0.43703-0.30711 3.3545-0.2008 3.579s0.25986 0.34254 0.35435-0.43704c0.094494-0.77957 0.11812-1.9844 0.31892-2.1379 0.2008-0.15356 1.4292-0.8977 1.6655-1.7481 0 0 0.03543-0.42523-0.68508-0.67328-0.72052-0.24804 1.7127-2.2915 1.7127-2.2915s3.4845 1.6064 4.3704 2.5277c0 0-0.33707 1.2262 0.08054 1.2262s0.60136 1.0858-0.31738 0.86862-1.6203-0.61806-2.1883 0.0167-0.81851 1.2361-1.1192 1.353-0.70158 0.31738-0.68488-0.53454-0.11693 0.70158-0.3675 0.66817c-0.25056-0.0334-0.15034 0.40091-1.6871 0.45102 0 0 0.90204 0.3508 0.96885 0.88534 0.06682 0.53454 0.11693 0.55124 0.11693 0.55124s1.921 0.16705 2.0045-0.3842c0.08352-0.55124 0.55124-1.3029 0.7517-1.5535 0.20045-0.25057 1.1025-1.2862 1.9544-1.1693 0 0-1.5535 0.98555-2.1716 2.3553-0.61806 1.3698 4.3932 1.0023 4.3932 1.0023s2.6727-0.70158 2.9734-1.6537 0.3675-4.6271-0.21716-5.2285c-0.89971-0.75589-2.0809-1.4646-3.5219-0.54328-1.441 0.92131-0.25986 1.3702-2.2206-0.35435-1.9608-1.7245-3.7561-2.5041-3.7561-2.5041s-2.2915 3.0947-2.3387 2.764c-0.047247-0.33073-0.56696-2.0552-0.82682-0.77957 0 0-0.75595-0.28348-0.68508 0.37797 0.070871 0.66146-1.0158-0.7087-1.0158-0.7087s0.094494 1.8899-0.37798 2.1261c0 0 1.9844-0.51971 1.252 0.54335-0.73233 1.063-1.5592 1.1339-2.8348 1.2048-1.2757 0.0709-2.1025-0.66145-2.7403-0.85044s-1.1576-0.75595-2.3269-0.0591z"
         fill="#dedede"
         fill-rule="evenodd"
         id="path136" />
    </clipPath>
    <filter
       id="ak"
       x="-.11969"
       y="-.14714"
       width="1.2394"
       height="1.2943"
       color-interpolation-filters="sRGB">
      <feGaussianBlur
         stdDeviation="0.12848643"
         id="feGaussianBlur139" />
    </filter>
    <clipPath
       id="ba">
      <path
         d="m-16.962 206.64c-1.1694-0.69689-2.6576-1.9844-2.6576-3.9333 0-1.1694 0.75595-1.7127 0.75595-1.7127-0.05906 0.61421-0.7087 1.7954 0.12993 2.4805 0.2008 0.3071 0.43703 0.33073 1.1103 0.3071 0.67327-0.0236 0.53153 0.17718 0.53153 0.17718s0.16536-0.74414 0.33073-0.93313c0.16536-0.18899 0.86226-1.7009 0.86226-1.7009s3.3191-1.6891 3.5553-1.7954c0.23624-0.1063 1.193-0.24805 1.193-0.24805s3.39 1.193 3.5553 1.3584c0.16536 0.16536 0.37798 1.2638 0.37798 1.2638l-0.42522 1.6418-3.0829 1.1576 1.571 3.3782-3.3545 0.22443s-3.6616-0.29529-4.453-1.6655z"
         fill="#b0afad"
         fill-rule="evenodd"
         id="path142" />
    </clipPath>
    <clipPath
       id="bi">
      <g
         transform="translate(-3.4018,-18.615)"
         id="g151">
        <path
           transform="matrix(.26458 0 0 .26458 0 97)"
           d="m170.46 646.3 14.27 116.17c-2e-5 10.744 20.322 19.455 45.393 19.455s45.395-8.7107 45.395-19.455l14.143-116.17c-3e-3 8.2284-26.686 14.899-59.6 14.898-32.914 8e-5 -59.597-6.67-59.6-14.898zm119.2 0c0-0.3229-0.0558-0.64315-0.13672-0.96094 0.0869 0.31986 0.13251 0.64034 0.13672 0.96094z"
           color="#000000"
           fill="url(#r)"
           opacity=".915"
           id="path145" />
        <path
           d="m46.505 302.14c7.684-6.0136 8.7531-2.8063 14.767-2.205 6.0136 0.60135 15.903-4.2763 15.903-4.2763l-1.0023 13.631s-28.531 2.0713-29.667-7.1495z"
           clip-path="url(#bl)"
           fill="#fff"
           fill-rule="evenodd"
           filter="url(#at)"
           opacity=".729"
           id="path147" />
        <path
           d="m60.737 305.42c6.7486-6.3476 8.1517-7.4836 10.758-1.6704 2.6059 5.8131-10.758 1.6704-10.758 1.6704z"
           clip-path="url(#bj)"
           fill="#a4a4a4"
           fill-rule="evenodd"
           filter="url(#as)"
           opacity=".483"
           id="path149" />
      </g>
    </clipPath>
    <filter
       id="ar"
       x="-.24031"
       y="-.031949"
       width="1.4806"
       height="1.0639"
       color-interpolation-filters="sRGB">
      <feGaussianBlur
         stdDeviation="0.50623594"
         id="feGaussianBlur154" />
    </filter>
    <clipPath
       id="bm">
      <path
         d="m45.102 268 3.7755 30.736c-5e-6 2.8428 5.3769 5.1475 12.01 5.1475 6.6332 0 12.011-2.3047 12.011-5.1475l3.7419-30.736c-7.94e-4 2.1771-7.0606 3.9419-15.769 3.9419-8.7084 2e-5 -15.768-1.7648-15.769-3.9419zm31.538 0c0-0.0854-0.01476-0.17017-0.03617-0.25425 0.02299 0.0846 0.03506 0.16942 0.03617 0.25425z"
         color="#000000"
         fill="#fff"
         opacity=".691"
         id="path157" />
    </clipPath>
    <filter
       id="au"
       x="-.084444"
       y="-.18727"
       width="1.1689"
       height="1.3745"
       color-interpolation-filters="sRGB">
      <feGaussianBlur
         stdDeviation="1.0791004"
         id="feGaussianBlur160" />
    </filter>
    <clipPath
       id="bk">
      <path
         d="m45.102 268 3.7755 30.736c-5e-6 2.8428 5.3769 5.1475 12.01 5.1475 6.6332 0 12.011-2.3047 12.011-5.1475l3.7419-30.736c-7.94e-4 2.1771-7.0606 3.9419-15.769 3.9419-8.7084 2e-5 -15.768-1.7648-15.769-3.9419zm31.538 0c0-0.0854-0.01476-0.17017-0.03617-0.25425 0.02299 0.0846 0.03506 0.16942 0.03617 0.25425z"
         color="#000000"
         fill="#fff"
         opacity=".691"
         id="path163" />
    </clipPath>
    <filter
       id="d"
       x="-.36661"
       y="-.59062"
       width="1.7332"
       height="2.1812"
       color-interpolation-filters="sRGB">
      <feGaussianBlur
         stdDeviation="1.6947276"
         id="feGaussianBlur166" />
    </filter>
    <linearGradient
       id="s"
       x1="170.46"
       x2="289.66"
       y1="704.73"
       y2="704.73"
       gradientTransform="matrix(1.0989,0,0,1.0989,-150.32,-674.15)"
       gradientUnits="userSpaceOnUse">
      <stop
         stop-color="#dcdde0"
         offset="0"
         id="stop169" />
      <stop
         stop-color="#e3e4e6"
         offset=".25424"
         id="stop171" />
      <stop
         stop-color="#d8dbde"
         offset=".74364"
         id="stop173" />
      <stop
         stop-color="#e1e1e5"
         offset="1"
         id="stop175" />
    </linearGradient>
    <linearGradient
       id="j"
       x1="170.46"
       x2="289.66"
       y1="713.63"
       y2="713.63"
       gradientTransform="matrix(1.0989,0,0,1.0989,-150.32,-674.15)"
       gradientUnits="userSpaceOnUse"
       xlink:href="#b" />
    <pattern
       id="i"
       width="495.11253"
       height="169.71596"
       patternTransform="matrix(.25862 0 0 .25862 40.717 233.84)"
       patternUnits="userSpaceOnUse">
      <path
         transform="matrix(15.699 0 0 15.699 -708.04 -4600.9)"
         d="m46.505 302.14c7.684-6.0136 8.7531-2.8063 14.767-2.205 6.0136 0.60135 15.903-4.2763 15.903-4.2763l-1.0023 13.631s-28.531 2.0713-29.667-7.1495z"
         clip-path="url(#bm)"
         fill="#fff"
         fill-rule="evenodd"
         filter="url(#au)"
         opacity=".729"
         id="path179" />
    </pattern>
    <pattern
       id="h"
       width="301.87741"
       height="125.41462"
       patternTransform="matrix(.25862 0 0 .25862 87.684 245.3)"
       patternUnits="userSpaceOnUse">
      <path
         transform="matrix(15.699 0 0 15.699 -889.65 -4645.2)"
         d="m60.737 305.42c6.7486-6.3476 8.1517-7.4836 10.758-1.6704 2.6059 5.8131-10.758 1.6704-10.758 1.6704z"
         clip-path="url(#bk)"
         fill="#a4a4a4"
         fill-rule="evenodd"
         filter="url(#d)"
         opacity=".483"
         id="path182" />
    </pattern>
    <pattern
       id="g"
       width="301.8774"
       height="125.41463"
       patternTransform="matrix(.25862 0 0 .25862 87.684 245.3)"
       patternUnits="userSpaceOnUse">
      <rect
         width="301.88"
         height="125.41"
         fill="url(#f)"
         id="rect185" />
    </pattern>
    <linearGradient
       id="q"
       x1="-8.6403"
       x2="-5.0417"
       y1="207.18"
       y2="207.18"
       gradientTransform="matrix(4.1648,0,0,4.1648,126.22,-812.53)"
       gradientUnits="userSpaceOnUse">
      <stop
         stop-color="#99662e"
         offset="0"
         id="stop188" />
      <stop
         stop-color="#b67937"
         offset="1"
         id="stop190" />
    </linearGradient>
    <linearGradient
       id="p"
       x1="-7.6835"
       x2="-4.1513"
       y1="202.91"
       y2="205.26"
       gradientTransform="matrix(4.1648,0,0,4.1648,126.22,-812.53)"
       gradientUnits="userSpaceOnUse">
      <stop
         stop-color="#77d743"
         offset="0"
         id="stop193" />
      <stop
         stop-color="#254a12"
         offset="1"
         id="stop195" />
    </linearGradient>
    <linearGradient
       id="o"
       x1="-9.8639"
       x2="-9.916"
       y1="203.74"
       y2="204.85"
       gradientTransform="matrix(4.1648,0,0,4.1648,126.22,-812.53)"
       gradientUnits="userSpaceOnUse">
      <stop
         stop-color="#3cd0f2"
         offset="0"
         id="stop198" />
      <stop
         stop-color="#0eacd0"
         offset="1"
         id="stop200" />
    </linearGradient>
    <linearGradient
       id="n"
       x1="-7.6187"
       x2="-5.0417"
       y1="205.46"
       y2="205.46"
       gradientTransform="matrix(4.1648,0,0,4.1648,126.22,-812.53)"
       gradientUnits="userSpaceOnUse">
      <stop
         stop-color="#872c1f"
         offset="0"
         id="stop203" />
      <stop
         stop-color="#bf3f2d"
         offset="1"
         id="stop205" />
    </linearGradient>
    <linearGradient
       id="m"
       x1="-3.579"
       x2="-2.2384"
       y1="206.88"
       y2="205.53"
       gradientTransform="matrix(4.1648,0,0,4.1648,126.22,-812.53)"
       gradientUnits="userSpaceOnUse">
      <stop
         stop-color="#3c4533"
         offset="0"
         id="stop208" />
      <stop
         stop-color="#3c4533"
         offset=".32423"
         id="stop210" />
      <stop
         stop-color="#414a37"
         offset=".5756"
         id="stop212" />
      <stop
         stop-color="#3c4533"
         offset=".80512"
         id="stop214" />
      <stop
         stop-color="#3c4533"
         offset="1"
         id="stop216" />
    </linearGradient>
  </defs>
  <path
     id="rect1034"
     style="fill:#23afc8;stroke-width:4.869;stroke-linecap:round"
     d="M 4.5 4.5 L 4.5 32 C 4.5 47.235002 16.765002 59.5 32 59.5 C 47.234995 59.5 59.5 47.235002 59.5 32 L 59.5 4.5 L 52.291016 4.5 L 52.291016 11.708984 L 52.291016 32 C 52.291016 43.241446 43.241437 52.291016 32 52.291016 C 20.758555 52.291016 11.708984 43.241446 11.708984 32 L 11.708984 11.708984 L 11.708984 4.5 L 4.5 4.5 z "
     transform="scale(0.26457812)" />
  <path
     id="path1246"
     style="fill:#0a0a0a;fill-opacity:1;stroke-width:0.668781;stroke-linecap:round"
     d="m 4.6892519,1.190602 v 7.2758981 c 0,2.0925959 1.6846523,3.7772479 3.7772484,3.7772479 2.0925947,0 3.7772477,-1.684652 3.7772477,-3.7772479 V 1.190602 Z"
     sodipodi:nodetypes="cssscc" />
</svg>
