<?xml version="1.0" encoding="UTF-8" standalone="no"?>
<svg
   xmlns:dc="http://purl.org/dc/elements/1.1/"
   xmlns:cc="http://creativecommons.org/ns#"
   xmlns:rdf="http://www.w3.org/1999/02/22-rdf-syntax-ns#"
   xmlns:svg="http://www.w3.org/2000/svg"
   xmlns="http://www.w3.org/2000/svg"
   xmlns:sodipodi="http://sodipodi.sourceforge.net/DTD/sodipodi-0.dtd"
   xmlns:inkscape="http://www.inkscape.org/namespaces/inkscape"
   width="16"
   height="16"
   version="1.1"
   id="svg4"
   sodipodi:docname="ephy-bookmarks-symbolic.svg"
   inkscape:version="1.0.2 (e86c870879, 2021-01-15)">
  <metadata
     id="metadata10">
    <rdf:RDF>
      <cc:Work
         rdf:about="">
        <dc:format>image/svg+xml</dc:format>
        <dc:type
           rdf:resource="http://purl.org/dc/dcmitype/StillImage" />
        <dc:title></dc:title>
      </cc:Work>
    </rdf:RDF>
  </metadata>
  <defs
     id="defs8" />
  <sodipodi:namedview
     pagecolor="#ffffff"
     bordercolor="#666666"
     borderopacity="1"
     objecttolerance="10"
     gridtolerance="10"
     guidetolerance="10"
     inkscape:pageopacity="0"
     inkscape:pageshadow="2"
     inkscape:window-width="1920"
     inkscape:window-height="992"
     id="namedview6"
     showgrid="true"
     inkscape:zoom="18.362679"
     inkscape:cx="1.8512039"
     inkscape:cy="7.1185836"
     inkscape:window-x="0"
     inkscape:window-y="0"
     inkscape:window-maximized="1"
     inkscape:current-layer="svg4">
    <inkscape:grid
       type="xygrid"
       id="grid877" />
  </sodipodi:namedview>
  <path
     d="m 4.8006615,0 c 0,0 -0.43146,-0.012793 -0.87695,0.22852 -0.44549,0.24131 -0.92383,0.89765 -0.92383,1.6387 v 12.133 a 1.0001,1.0001 0 0 0 1.5449,0.83789 l 3.4551,-2.2461 3.4551005,2.2461 a 1.0001,1.0001 0 0 0 1.5449,-0.83789 v -12.133 c 0,0 0.01489,-0.40654 -0.19141,-0.85352 C 12.602172,0.56672 11.960212,0 11.199072,0 H 4.8006715 Z m 0,1 h 6.3984005 c 0.8,0 0.80078,0.86719 0.80078,0.86719 v 12.133 l -4.0000005,-2.5996 -4,2.5996 V 1.86719 C 3.9998415,1.00052 4.8006215,1 4.8006215,1 Z"
     color="#000000"
     color-rendering="auto"
     dominant-baseline="auto"
     fill="#363636"
     image-rendering="auto"
     shape-rendering="auto"
     solid-color="#000000"
     style="font-variant-ligatures:normal;font-variant-position:normal;font-variant-caps:normal;font-variant-numeric:normal;font-variant-alternates:normal;font-feature-settings:normal;text-indent:0;text-decoration:none;text-decoration-line:none;text-decoration-style:solid;text-decoration-color:#000000;text-transform:none;text-orientation:mixed;white-space:normal;shape-padding:0;isolation:auto;mix-blend-mode:normal"
     id="path2" />
</svg>
