<?xml version="1.0" encoding="UTF-8"?>
<svg width="64" height="64" version="1.1" viewBox="0 0 16.933 16.933" xmlns="http://www.w3.org/2000/svg" xmlns:cc="http://creativecommons.org/ns#" xmlns:dc="http://purl.org/dc/elements/1.1/" xmlns:rdf="http://www.w3.org/1999/02/22-rdf-syntax-ns#">
 <metadata>
  <rdf:RDF>
   <cc:Work rdf:about="">
    <dc:format>image/svg+xml</dc:format>
    <dc:type rdf:resource="http://purl.org/dc/dcmitype/StillImage"/>
    <dc:title/>
   </cc:Work>
  </rdf:RDF>
 </metadata>
 <g fill="#5e4aa6">
  <g transform="scale(.26458)">
   <circle cx="-1248.7" cy="-1241.6" r="0"/>
   <circle cx="-1140.3" cy="-1301.8" r="0"/>
   <circle cx="-1158.1" cy="-1246" r="0"/>
  </g>
  <circle cx="-306.2" cy="-335.41" r="0" stroke-width=".26458"/>
  <circle cx="-15.281" cy="-.57755" r="0" fill-rule="evenodd" stroke-width=".26458"/>
 </g>
 <g fill-rule="evenodd">
  <path transform="scale(.26458)" d="m14.869 9.5625c-1.168-0.07563-2.3138 0.64137-2.6309 1.8379l-0.81836 3.0527h2.5605l0.64844-2.418v-0.007812c-0.005102 0.019351 0.011452-0.016717 0.10352 0.007812l9.0215 2.418h9.5488l-17.936-4.8086c-0.16543-0.04411-0.33119-0.071231-0.49805-0.082031zm-4.252 7.8887-0.30469 1.1328v9.5449l2.8633-10.678h-2.5586zm24.324 0 18.748 5.0254v-2.5586l-9.2012-2.4668h-9.5469zm21.746 3.2715v2.5566l0.24805 0.066406c0.095397 0.025777 0.081944 0.079884 0.089844 0.050781l-0.33789 1.2617v9.5664l2.7285-10.178c0.37191-1.3637-0.51108-2.7275-1.8379-3.0859l-0.89062-0.23828zm-49.371 9.0391-2.7344 10.199c-0.36367 1.3586 0.51041 2.7207 1.8398 3.0781l0.89453 0.24024v-2.5547l-0.25391-0.068359c-0.09954-0.026835-0.089274-0.076773-0.095703-0.052734l0.34961-1.3047v-9.5371zm46.373 6.0918-2.8652 10.697h2.5586l0.30664-1.1426v-9.5547zm-43.377 5.6738v2.5547l9.2051 2.4688h9.5469l-18.752-5.0234zm20.385 8.0215 17.934 4.8086c1.3225 0.35268 2.7639-0.39099 3.1309-1.75v-0.007813l0.81836-3.0508h-2.5586l-0.64453 2.4082c0.002997-0.010961-0.010575 0.03238-0.10352 0.007813l-9.0176-2.416h-9.5586z" color="#000000" color-rendering="auto" dominant-baseline="auto" fill="#ffc771" image-rendering="auto" shape-rendering="auto" solid-color="#000000" stop-color="#000000" style="font-feature-settings:normal;font-variant-alternates:normal;font-variant-caps:normal;font-variant-east-asian:normal;font-variant-ligatures:normal;font-variant-numeric:normal;font-variant-position:normal;font-variation-settings:normal;inline-size:0;isolation:auto;mix-blend-mode:normal;shape-margin:0;shape-padding:0;text-decoration-color:#000000;text-decoration-line:none;text-decoration-style:solid;text-indent:0;text-orientation:mixed;text-transform:none;white-space:normal"/>
  <path d="m14.419 12.262c0 0.17911-0.15575 0.32447-0.34351 0.32447h-11.218c-0.18949 0-0.34351-0.1471-0.34351-0.32447v-7.5918c0-0.17911 0.15575-0.32447 0.34351-0.32447h11.219c0.19036 0 0.34351 0.14709 0.34351 0.32447z" color="#000000" color-rendering="auto" dominant-baseline="auto" fill="#a75dfa" image-rendering="auto" shape-rendering="auto" solid-color="#000000" stop-color="#000000" style="font-feature-settings:normal;font-variant-alternates:normal;font-variant-caps:normal;font-variant-east-asian:normal;font-variant-ligatures:normal;font-variant-numeric:normal;font-variant-position:normal;font-variation-settings:normal;inline-size:0;isolation:auto;mix-blend-mode:normal;shape-margin:0;shape-padding:0;text-decoration-color:#000000;text-decoration-line:none;text-decoration-style:solid;text-indent:0;text-orientation:mixed;text-transform:none;white-space:normal"/>
  <path d="m11.062 9.7638v-2.9497a0.354 0.354 0 0 0-0.35132-0.35311h-4.1312v-0.9443c0-0.1177-0.1177-0.354-0.354-0.354-0.23541 0-0.354 0.2363-0.354 0.354v0.9443h-0.9434c-0.1177 0-0.354 0.1177-0.354 0.354 0 0.23541 0.2363 0.35311 0.354 0.35311h0.9434v2.9497c0 0.19617 0.1605 0.354 0.35222 0.354h4.1303v0.9434c0 0.11771 0.1186 0.354 0.354 0.354 0.2363 0 0.354-0.2363 0.354-0.354v-0.9434h0.9434c0.1186 0 0.354-0.1186 0.354-0.354 0-0.2363-0.23541-0.354-0.354-0.354zm-4.4825 0v-2.5948h3.7745v2.5948z" fill="#fff" stroke-width=".89169"/>
 </g>
</svg>
