<?xml version="1.0" encoding="UTF-8"?>
<svg width="64" height="64" version="1.1" viewBox="0 0 64 64" xmlns="http://www.w3.org/2000/svg" xmlns:cc="http://creativecommons.org/ns#" xmlns:dc="http://purl.org/dc/elements/1.1/" xmlns:rdf="http://www.w3.org/1999/02/22-rdf-syntax-ns#" xmlns:xlink="http://www.w3.org/1999/xlink">
 <metadata>
  <rdf:RDF>
   <cc:Work rdf:about="">
    <dc:format>image/svg+xml</dc:format>
    <dc:type rdf:resource="http://purl.org/dc/dcmitype/StillImage"/>
    <dc:title>Template icons dark</dc:title>
   </cc:Work>
  </rdf:RDF>
 </metadata>
 <title>Template icons dark</title>
 <defs>
  <style type="text/css"/>
  <style type="text/css"/>
  <style type="text/css"/>
  <style type="text/css"/>
  <style type="text/css"/>
  <style type="text/css"/>
  <style type="text/css"/>
  <style type="text/css"/>
  <style type="text/css"/>
  <style type="text/css"/>
  <style type="text/css"/>
  <style type="text/css"/>
 </defs>
 <g fill="#5e4aa6" stroke-width=".26458">
  <g transform="matrix(3.7796 0 0 3.7796 -.10281 .024568)">
   <circle cx="-330.35" cy="-328.38" r="0"/>
   <circle cx="-312.11" cy="-326.25" r="0"/>
   <circle cx="-306.02" cy="-333.07" r="0"/>
   <circle cx="-308.84" cy="-326.01" r="0"/>
   <circle cx="-330.35" cy="-328.38" r="0"/>
   <circle cx="-312.11" cy="-326.25" r="0"/>
   <circle cx="-306.02" cy="-333.07" r="0"/>
   <circle cx="-308.84" cy="-326.01" r="0"/>
  </g>
  <g transform="matrix(3.7796 0 0 3.7796 -.10224 .024379)">
   <circle cx="-330.35" cy="-328.38" r="0"/>
   <circle cx="-312.11" cy="-326.25" r="0"/>
   <circle cx="-306.02" cy="-333.07" r="0"/>
   <circle cx="-308.84" cy="-326.01" r="0"/>
  </g>
 </g>
 <path d="m41.293 56.827c-4.1457-0.68868-9.5291-5.4345-14.444-12.732-2.0623-3.0629-4.172-6.8431-5.5493-9.9446-0.27572-0.6238-0.37677-0.77351-0.46161-0.68369-0.16593 0.17841-1.3661 2.7884-1.9986 4.3466-1.063 2.6237-1.8128 5.1238-2.2419 7.4819-0.27447 1.5108-0.29942 4.439-0.04367 5.346 0.59386 2.1072 1.8827 2.9818 3.8925 2.6449 1.4472-0.24204 3.2013-1.0355 5.0615-2.2894 0.82591-0.55768 1.0442-0.66372 1.3637-0.66497 0.48781-0.0037 0.85336 0.262 1.023 0.74606 0.11353 0.32063 0.11353 0.4142-0.0025 0.71987-0.11229 0.29444-0.30441 0.46784-1.1765 1.0605-1.2052 0.81594-3.265 1.8689-4.3191 2.2057-2.7622 0.8833-4.9118 0.56017-6.4252-0.96814-1.391-1.4022-1.9899-3.6691-1.8052-6.833 0.24078-4.1171 2.0497-9.7362 4.9093-15.246l0.71737-1.3798-0.54146-1.4659c-0.519-1.4022-1.5433-4.6536-1.5433-4.8956 0-0.17716-0.3144-0.14098-1.6893 0.19712-3.1502 0.77476-5.492 1.7617-7.1699 3.0216-3.3 2.4765-2.4266 5.2698 2.5201 8.052 0.78599 0.44289 0.96814 0.68119 0.96814 1.2713 0 0.30816-0.05739 0.43416-0.3094 0.68617-0.54021 0.54146-1.0442 0.42793-2.7135-0.60634-2.4154-1.4971-3.9424-3.2026-4.4788-5.0003-0.19712-0.65624-0.19712-1.9787 0-2.6399 0.28445-0.96189 0.76478-1.7267 1.6306-2.5987 1.9425-1.9537 5.165-3.4533 9.5815-4.4614 0.89952-0.20586 1.1079-0.28321 1.0729-0.39798-0.02246-0.07735-0.12476-0.59261-0.22706-1.1428-0.60134-3.2226-0.61881-6.9167-0.04491-8.9652 0.66122-2.3629 1.8614-3.769 3.7727-4.4252 0.77974-0.26823 2.3418-0.22456 3.4134 0.09233 1.0767 0.32063 2.4129 0.97937 3.5944 1.7716 1.4098 0.94319 1.824 1.3387 1.8838 1.7953 0.13724 1.048-0.94567 1.6132-1.8302 0.95442-2.7696-2.0635-4.7483-2.8482-6.334-2.5139-1.1515 0.24328-2.0311 1.4272-2.4765 3.3311-0.17592 0.75729-0.19961 1.1166-0.20087 2.9992-0.0012 2.1359 0.02994 2.4802 0.4192 4.721l0.19587 1.1253 0.46161-0.05614c2.1221-0.25576 3.9512-0.43416 5.0777-0.49529l1.3387-0.07112 0.20834-0.26823c2.2607-2.9069 5.5481-6.3003 8.0382-8.2978 4.7696-3.8276 8.8605-5.1563 11.674-3.7926 1.5894 0.76977 2.595 2.343 2.9843 4.6722 0.25451 1.5221 0.05364 5.1226-0.34184 6.1369-0.13724 0.34932-0.57639 0.60259-1.048 0.60259-0.29818 0-0.45412-0.05989-0.68369-0.26449-0.27197-0.24328-0.29693-0.3119-0.29444-0.79722 0-0.29194 0.07735-1.1241 0.16967-1.8502 0.26949-2.1109 0.08484-4.0609-0.49155-5.19-0.27946-0.54894-0.85086-1.1328-1.3461-1.3761-0.37053-0.18339-0.56141-0.21209-1.4285-0.20836-0.91199 0.0037-1.0904 0.03368-1.9899 0.34059-2.7822 0.94817-5.9722 3.2313-9.3944 6.7221a66.302 66.302 0 0 0-2.1833 2.3517l-0.99059 1.1378 0.86084 0.01996c12.064 0.28695 22.232 3.0566 27.025 7.3632 1.0779 0.96938 2.0087 2.4129 2.2781 3.5394 0.13724 0.57014 0.13974 1.6792 5e-3 2.2719-0.49529 2.1908-2.9032 4.3429-6.4126 5.7339-0.55518 0.22082-0.67246 0.23704-0.97188 0.14847a1.0941 1.0941 0 0 1-0.80969-1.0555c0-0.57889 0.27946-0.85585 1.2813-1.2763 2.1808-0.91448 3.8712-2.1958 4.5125-3.4209 0.22332-0.42667 0.257-0.59136 0.257-1.2638 0-0.69865-0.02994-0.8309-0.30566-1.3661-0.38926-0.75355-1.6743-2.0423-2.741-2.7485-5.2399-3.4659-15.114-5.7152-25.084-5.7165h-1.6444l-0.62006 0.84213c-0.92697 1.2601-2.938 4.3217-3.739 5.6902l-0.70614 1.2089 0.48656 1.1129c4.8656 11.167 12.42 20.598 17.99 22.456 1.2127 0.40547 2.1283 0.42419 2.8695 0.06238 1.3873-0.6787 2.1134-2.439 2.2245-5.3934 0.18714-4.9305-1.5894-11.745-4.9006-18.807-0.34308-0.73234-0.54894-1.2913-0.54894-1.4897 0-0.59635 0.49031-1.0667 1.1054-1.058 0.54521 0.0062 0.78599 0.22582 1.2014 1.0979 2.6848 5.6155 4.4751 11.242 5.1438 16.168 0.22456 1.6556 0.22456 5.0266 0.0025 6.2305-0.35681 1.9276-0.99309 3.3149-1.9675 4.2917-1.1852 1.1915-2.726 1.6469-4.5462 1.3436zm-19.262-29.981c0.33935-0.55019 1.0006-1.5619 1.4696-2.2481 0.4691-0.68618 0.85211-1.275 0.85211-1.31 0-0.11603-4.3005 0.31939-4.4302 0.44914-0.07859 0.07859 0.17965 1.0368 0.7523 2.7984 0.4167 1.28 0.52899 1.5408 0.6238 1.4373 0.06238-0.06862 0.39175-0.57639 0.73234-1.1266zm9.176 8.1642c-1.3674-0.48782-2.1658-1.6293-2.1484-3.0666 0.01004-0.75355 0.18091-1.2701 0.6213-1.8689 1.1154-1.5195 3.3935-1.693 4.7659-0.3618 1.5745 1.5283 1.1091 4.2568-0.88454 5.1687-0.68617 0.31314-1.6831 0.36804-2.3542 0.12851z" fill="#0fd59a" stroke="#10d49a" stroke-width=".3618"/>
 <g transform="translate(-69.903 -56.179)" fill="#5e4aa6">
  <circle cx="-1248.7" cy="-1241.6" r="0"/>
  <circle cx="-149.15" cy="23.855" r="0" fill-rule="evenodd"/>
  <circle cx="-1248.7" cy="-1241.6" r="0"/>
  <circle cx="-149.15" cy="23.855" r="0" fill-rule="evenodd"/>
  <circle cx="-1150.9" cy="-1256.6" r="0"/>
  <circle cx="-51.327" cy="8.8744" r="0" fill-rule="evenodd"/>
  <g transform="matrix(3.7796,0,0,3.7796,167.86,4.61)" stroke-width=".26458">
   <g transform="translate(-.0272 .0065001)">
    <circle cx="-330.35" cy="-328.38" r="0"/>
    <circle cx="-312.11" cy="-326.25" r="0"/>
    <circle cx="-306.02" cy="-333.07" r="0"/>
    <circle cx="-308.84" cy="-326.01" r="0"/>
    <circle cx="-330.35" cy="-328.38" r="0"/>
    <circle cx="-312.11" cy="-326.25" r="0"/>
    <circle cx="-306.02" cy="-333.07" r="0"/>
    <circle cx="-308.84" cy="-326.01" r="0"/>
   </g>
   <g transform="translate(-.02705 .0064503)">
    <circle cx="-330.35" cy="-328.38" r="0"/>
    <circle cx="-312.11" cy="-326.25" r="0"/>
    <circle cx="-306.02" cy="-333.07" r="0"/>
    <circle cx="-308.84" cy="-326.01" r="0"/>
   </g>
  </g>
 </g>
</svg>
