<?xml version="1.0" encoding="UTF-8"?>
<svg width="64" height="64" version="1.1" viewBox="0 0 16.933 16.933" xmlns="http://www.w3.org/2000/svg" xmlns:cc="http://creativecommons.org/ns#" xmlns:dc="http://purl.org/dc/elements/1.1/" xmlns:rdf="http://www.w3.org/1999/02/22-rdf-syntax-ns#" xmlns:xlink="http://www.w3.org/1999/xlink">
 <metadata>
  <rdf:RDF>
   <cc:Work rdf:about="">
    <dc:format>image/svg+xml</dc:format>
    <dc:type rdf:resource="http://purl.org/dc/dcmitype/StillImage"/>
    <dc:title/>
   </cc:Work>
  </rdf:RDF>
 </metadata>
 <defs>
  <style type="text/css"/>
  <style type="text/css"/>
  <style type="text/css"/>
  <style type="text/css"/>
  <style type="text/css"/>
  <style type="text/css"/>
  <style type="text/css"/>
 </defs>
 <g transform="translate(-.02705 .0064503)" fill="#5e4aa6" stroke-width=".26458">
  <circle cx="-330.35" cy="-328.38" r="0"/>
  <circle cx="-312.11" cy="-326.25" r="0"/>
  <circle cx="-306.02" cy="-333.07" r="0"/>
  <circle cx="-308.84" cy="-326.01" r="0"/>
 </g>
 <g transform="matrix(.26458 0 0 .26458 -27.767 -1.3632)" fill="#5e4aa6" stroke-width=".26458">
  <g transform="matrix(3.7796 0 0 3.7796 -.10281 .024568)">
   <circle cx="-330.35" cy="-328.38" r="0"/>
   <circle cx="-312.11" cy="-326.25" r="0"/>
   <circle cx="-306.02" cy="-333.07" r="0"/>
   <circle cx="-308.84" cy="-326.01" r="0"/>
   <circle cx="-330.35" cy="-328.38" r="0"/>
   <circle cx="-312.11" cy="-326.25" r="0"/>
   <circle cx="-306.02" cy="-333.07" r="0"/>
   <circle cx="-308.84" cy="-326.01" r="0"/>
  </g>
  <g transform="matrix(3.7796 0 0 3.7796 -.10224 .024379)">
   <circle cx="-330.35" cy="-328.38" r="0"/>
   <circle cx="-312.11" cy="-326.25" r="0"/>
   <circle cx="-306.02" cy="-333.07" r="0"/>
   <circle cx="-308.84" cy="-326.01" r="0"/>
  </g>
 </g>
 <path d="m10.925 15.035c-1.0969-0.18221-2.5212-1.4379-3.8216-3.3685-0.54564-0.81036-1.1038-1.8105-1.4682-2.6312-0.072952-0.16504-0.099686-0.20466-0.12213-0.18089-0.043906 0.0472-0.36143 0.73774-0.52879 1.15-0.28123 0.69416-0.47962 1.3556-0.59316 1.9796-0.072622 0.39972-0.079213 1.1744-0.011492 1.4144 0.15712 0.55752 0.4981 0.7889 1.0299 0.69979 0.38288-0.06404 0.84698-0.27398 1.3391-0.60571 0.21851-0.14754 0.27627-0.1756 0.3608-0.17594 0.12906-9.78e-4 0.22578 0.06932 0.27067 0.19739 0.030037 0.08483 0.030037 0.10959-6.631e-4 0.19046-0.029706 0.07791-0.080534 0.12378-0.31128 0.28057-0.31886 0.21588-0.86383 0.49447-1.1427 0.58359-0.73083 0.2337-1.2996 0.1482-1.7-0.25614-0.36804-0.37101-0.52649-0.97078-0.47763-1.8079 0.063706-1.0893 0.54231-2.576 1.2989-4.0337l0.1898-0.36506-0.14326-0.38785c-0.13732-0.37101-0.40832-1.2312-0.40832-1.2953 0-0.046871-0.083189-0.037299-0.44694 0.052152-0.83346 0.20499-1.4531 0.4661-1.897 0.79946-0.8731 0.65523-0.64202 1.3943 0.66676 2.1303 0.20796 0.11718 0.25614 0.18023 0.25614 0.33636 0 0.08153-0.01519 0.11487-0.081855 0.18154-0.14293 0.14326-0.27627 0.11322-0.71792-0.16042-0.63905-0.39609-1.0431-0.84734-1.185-1.323-0.052148-0.17363-0.052148-0.52352 0-0.69846 0.075264-0.25449 0.20235-0.45684 0.43142-0.68755 0.51394-0.51691 1.3666-0.91366 2.535-1.1804 0.238-0.054465 0.29312-0.074931 0.28387-0.1053-0.0059439-0.020466-0.033009-0.15679-0.060073-0.30236-0.1591-0.85261-0.16372-1.8299-0.011888-2.372 0.17494-0.62517 0.49247-0.99719 0.99817-1.1708 0.20631-0.070968 0.61958-0.059414 0.90311 0.024428 0.28486 0.084832 0.63838 0.25912 0.95099 0.46871 0.37299 0.24954 0.48259 0.35419 0.49842 0.475 0.036311 0.27728-0.2502 0.42681-0.48423 0.25251-0.73278-0.54594-1.2563-0.75357-1.6758-0.66513-0.30467 0.064366-0.53738 0.37761-0.65523 0.88134-0.046548 0.20036-0.052809 0.29543-0.053152 0.79352-3.302e-4 0.5651 0.00793 0.65621 0.11091 1.2491l0.051818 0.29774 0.12213-0.014853c0.56146-0.067669 1.0454-0.11487 1.3435-0.13104l0.35419-0.018816 0.05512-0.070968c0.59813-0.76909 1.4679-1.6669 2.1267-2.1954 1.2619-1.0127 2.3443-1.3642 3.0886-1.0034 0.42053 0.20367 0.68658 0.6199 0.78956 1.2362 0.06734 0.40269 0.01419 1.3553-0.09044 1.6238-0.03631 0.092422-0.1525 0.15943-0.27728 0.15943-0.0789 0-0.12015-0.015845-0.18088-0.069979-0.07196-0.064366-0.07857-0.082522-0.07791-0.21093 0-0.077241 0.02046-0.29741 0.0449-0.4895 0.0713-0.55849 0.02244-1.0744-0.13005-1.3732-0.07394-0.14524-0.22512-0.29972-0.35615-0.36409-0.09803-0.048521-0.14853-0.056115-0.37796-0.055127-0.2413 9.785e-4 -0.28849 0.00892-0.52649 0.090113-0.7361 0.25086-1.5802 0.85492-2.4855 1.7786a17.541 17.541 0 0 0-0.57764 0.6222l-0.26209 0.30104 0.22776 0.00528c3.1919 0.07592 5.882 0.80872 7.1503 1.9482 0.28519 0.25647 0.53144 0.63838 0.60274 0.93645 0.03631 0.15084 0.03697 0.44429 0.0013 0.60109-0.13104 0.57964-0.76811 1.149-1.6967 1.517-0.14688 0.05842-0.17792 0.06271-0.25713 0.03928a0.28948 0.28948 0 0 1-0.21427-0.27926c0-0.15316 0.07394-0.22644 0.339-0.33768 0.57698-0.24196 1.0242-0.58096 1.1939-0.9051 0.05908-0.11289 0.068-0.15646 0.068-0.33438 0-0.18484-0.0079-0.21983-0.08088-0.36143-0.10297-0.19937-0.44297-0.54035-0.72518-0.72717-1.3864-0.91699-3.9987-1.5121-6.6365-1.5124h-0.43506l-0.16405 0.22281c-0.24526 0.33339-0.77733 1.1434-0.98926 1.5055l-0.18682 0.31985 0.12873 0.29444c1.2873 2.9545 3.2859 5.4497 4.7599 5.9414 0.32084 0.10728 0.56312 0.11224 0.7592 0.01651 0.36706-0.17957 0.55915-0.6453 0.58856-1.4269 0.04952-1.3045-0.42053-3.1074-1.2966-4.9759-0.09077-0.19376-0.14524-0.34164-0.14524-0.39414 0-0.15778 0.12972-0.28222 0.29246-0.27991 0.14425 0.00164 0.20796 0.059746 0.31787 0.29047 0.71034 1.4857 1.184 2.9745 1.3609 4.2775 0.05941 0.43803 0.05941 1.33 6.64e-4 1.6485-0.0944 0.50999-0.26275 0.87703-0.52054 1.1355-0.31358 0.31524-0.72125 0.43573-1.2028 0.35549zm-5.0963-7.9324c0.08978-0.14556 0.26473-0.41325 0.38883-0.5948 0.12411-0.18155 0.22545-0.33735 0.22545-0.34658 0-0.030698-1.1378 0.084503-1.1721 0.11883-0.020791 0.020793 0.047538 0.27431 0.19904 0.7404 0.11025 0.33867 0.13996 0.40766 0.16504 0.38027 0.016511-0.018155 0.10365-0.15249 0.19376-0.29807zm2.4278 2.16c-0.36177-0.12906-0.57304-0.43108-0.56843-0.81133 0.0026418-0.19937 0.047868-0.33603 0.16438-0.49447 0.2951-0.40203 0.89784-0.44792 1.2609-0.095725 0.41658 0.40435 0.29345 1.1263-0.23403 1.3675-0.18154 0.08285-0.44529 0.09737-0.62287 0.034z" fill="#83d03a" fill-opacity=".99608" stroke="#84d13c" stroke-opacity=".99608" stroke-width=".095725"/>
 <g fill="#5e4aa6">
  <g transform="translate(9.1329 -9.8221)" stroke-width=".26458">
   <circle cx="-330.35" cy="-328.38" r="0"/>
   <circle cx="-312.11" cy="-326.25" r="0"/>
   <circle cx="-306.02" cy="-333.07" r="0"/>
   <circle cx="-308.84" cy="-326.01" r="0"/>
  </g>
  <circle cx="-329.42" cy="-340.19" r="0" stroke-width=".26458"/>
  <circle cx="-38.507" cy="-5.3825" r="0" fill-rule="evenodd" stroke-width=".26458"/>
 </g>
</svg>
