<?xml version="1.0" encoding="UTF-8" standalone="no"?>
<svg
   xmlns:dc="http://purl.org/dc/elements/1.1/"
   xmlns:cc="http://creativecommons.org/ns#"
   xmlns:rdf="http://www.w3.org/1999/02/22-rdf-syntax-ns#"
   xmlns:svg="http://www.w3.org/2000/svg"
   xmlns="http://www.w3.org/2000/svg"
   xmlns:sodipodi="http://sodipodi.sourceforge.net/DTD/sodipodi-0.dtd"
   xmlns:inkscape="http://www.inkscape.org/namespaces/inkscape"
   width="64"
   height="64"
   version="1.1"
   viewBox="0 0 16.933 16.933"
   id="svg36"
   sodipodi:docname="audio-card.svg"
   inkscape:version="1.0.1 (3bc2e813f5, 2020-09-07)">
  <g
     id="g931"
     transform="translate(-0.1322893,-0.13228619)">
    <path
       id="path877"
       style="fill:#0a0a0a;stroke-width:2.1414;stroke-linecap:round"
       d="M 19.457031,5 A 14.5,14.5 0 0 0 5,19.5 14.5,14.5 0 0 0 19.5,34 14.5,14.5 0 0 0 34,19.5 14.5,14.5 0 0 0 19.5,5 14.5,14.5 0 0 0 19.457031,5 Z M 19.5,10 A 9.4999989,9.4999989 0 0 1 29,19.5 9.4999989,9.4999989 0 0 1 19.5,29 9.4999989,9.4999989 0 0 1 10,19.5 9.4999989,9.4999989 0 0 1 19.5,10 Z"
       transform="scale(0.26457812)" />
    <circle
       style="fill:#23afc8;fill-opacity:1;stroke-width:0.881928;stroke-linecap:round"
       id="path909"
       cx="5.1592736"
       cy="5.1592736"
       r="1.9843361" />
    <path
       id="path911"
       style="fill:#0a0a0a;stroke-width:0.566568;stroke-linecap:round"
       d="m 12.026937,1.3228906 a 3.8363827,3.8363827 0 0 0 -3.8250147,3.8363827 3.8363827,3.8363827 0 0 0 3.8363827,3.8363828 3.8363827,3.8363827 0 0 0 3.836383,-3.8363828 3.8363827,3.8363827 0 0 0 -3.836383,-3.8363827 3.8363827,3.8363827 0 0 0 -0.01137,0 z m 0.01137,1.3228906 A 2.5134918,2.5134918 0 0 1 14.551797,5.1592733 2.5134918,2.5134918 0 0 1 12.038305,7.6727655 2.5134918,2.5134918 0 0 1 9.5248129,5.1592733 2.5134918,2.5134918 0 0 1 12.038305,2.6457812 Z" />
    <circle
       style="fill:#969696;fill-opacity:1;stroke-width:0.881928;stroke-linecap:round"
       id="circle913"
       cx="12.038305"
       cy="5.1592736"
       r="1.9843361" />
    <path
       id="path915"
       style="fill:#0a0a0a;stroke-width:0.566568;stroke-linecap:round"
       d="m 5.1479047,8.2019218 a 3.8363827,3.8363827 0 0 0 -3.8250141,3.8363822 3.8363827,3.8363827 0 0 0 3.8363827,3.836382 3.8363827,3.8363827 0 0 0 3.8363828,-3.836382 3.8363827,3.8363827 0 0 0 -3.8363828,-3.8363822 3.8363827,3.8363827 0 0 0 -0.011369,0 z m 0.011369,1.3228906 A 2.5134918,2.5134918 0 0 1 7.6727655,12.038304 2.5134918,2.5134918 0 0 1 5.1592733,14.551796 2.5134918,2.5134918 0 0 1 2.6457812,12.038304 2.5134918,2.5134918 0 0 1 5.1592737,9.5248124 Z" />
    <circle
       style="fill:#969696;fill-opacity:1;stroke-width:0.881928;stroke-linecap:round"
       id="circle917"
       cx="5.1592736"
       cy="12.038305"
       r="1.9843361" />
    <path
       id="path919"
       style="fill:#0a0a0a;stroke-width:0.566568;stroke-linecap:round"
       d="m 12.026937,8.2019218 a 3.8363827,3.8363827 0 0 0 -3.8250147,3.8363822 3.8363827,3.8363827 0 0 0 3.8363827,3.836382 3.8363827,3.8363827 0 0 0 3.836383,-3.836382 3.8363827,3.8363827 0 0 0 -3.836383,-3.8363822 3.8363827,3.8363827 0 0 0 -0.01137,0 z m 0.01137,1.3228906 a 2.5134918,2.5134918 0 0 1 2.51349,2.5134916 2.5134918,2.5134918 0 0 1 -2.513492,2.513492 2.5134918,2.5134918 0 0 1 -2.5134921,-2.513492 2.5134918,2.5134918 0 0 1 2.5134921,-2.5134916 z" />
    <circle
       style="fill:#23afc8;fill-opacity:1;stroke-width:0.881928;stroke-linecap:round"
       id="circle921"
       cx="12.038305"
       cy="12.038305"
       r="1.9843361" />
  </g>
  <sodipodi:namedview
     pagecolor="#ffffff"
     bordercolor="#666666"
     borderopacity="1"
     objecttolerance="10"
     gridtolerance="10"
     guidetolerance="10"
     inkscape:pageopacity="0"
     inkscape:pageshadow="2"
     inkscape:window-width="1920"
     inkscape:window-height="978"
     id="namedview38"
     showgrid="true"
     inkscape:zoom="4.2260679"
     inkscape:cx="14.04883"
     inkscape:cy="40.951183"
     inkscape:window-x="0"
     inkscape:window-y="0"
     inkscape:window-maximized="1"
     inkscape:current-layer="svg36"
     inkscape:document-rotation="0"
     inkscape:snap-bbox="true"
     inkscape:bbox-nodes="true"
     inkscape:snap-bbox-edge-midpoints="true">
    <inkscape:grid
       type="xygrid"
       id="grid879" />
  </sodipodi:namedview>
  <metadata
     id="metadata2">
    <rdf:RDF>
      <cc:Work
         rdf:about="">
        <dc:format>image/svg+xml</dc:format>
        <dc:type
           rdf:resource="http://purl.org/dc/dcmitype/StillImage" />
        <dc:title></dc:title>
      </cc:Work>
    </rdf:RDF>
  </metadata>
  <defs
     id="defs12">
    <filter
       id="filter2761"
       x="-.024"
       y="-.024"
       width="1.048"
       height="1.048"
       color-interpolation-filters="sRGB">
      <feGaussianBlur
         stdDeviation="0.14552168"
         id="feGaussianBlur4" />
    </filter>
    <linearGradient
       id="linearGradient1024"
       x1="1.3315"
       x2="15.65"
       y1="15.576"
       y2="1.17"
       gradientTransform="translate(-1.7476107,-6.4216209)"
       gradientUnits="userSpaceOnUse">
      <stop
         stop-color="#00c8ff"
         offset="0"
         id="stop7" />
      <stop
         stop-color="#14a0ff"
         offset="1"
         id="stop9" />
    </linearGradient>
    <style
       type="text/css"
       id="style865" />
    <filter
       id="filter1057"
       x="-.027"
       y="-.027"
       width="1.054"
       height="1.054"
       color-interpolation-filters="sRGB">
      <feGaussianBlur
         stdDeviation="0.61875"
         id="feGaussianBlur867" />
    </filter>
    <linearGradient
       id="linearGradient1053"
       x1="-127"
       x2="-72"
       y1="60"
       y2="5"
       gradientTransform="matrix(0.26457812,0,0,0.26457812,34.792023,-0.13493476)"
       gradientUnits="userSpaceOnUse">
      <stop
         stop-color="#32d7ff"
         offset="0"
         id="stop870" />
      <stop
         stop-color="#329bff"
         offset="1"
         id="stop872" />
    </linearGradient>
    <style
       type="text/css"
       id="style875" />
    <style
       type="text/css"
       id="style877" />
    <style
       type="text/css"
       id="style879" />
    <style
       type="text/css"
       id="style881" />
    <style
       type="text/css"
       id="style883" />
    <style
       type="text/css"
       id="style885" />
    <style
       type="text/css"
       id="style887" />
  </defs>
  <g
     fill="#5e4aa6"
     stroke-width=".26458"
     id="g28">
    <circle
       cx="-347.64"
       cy="-328.38"
       r="0"
       id="circle14" />
    <circle
       cx="-56.726"
       cy="6.44"
       r="0"
       fill-rule="evenodd"
       id="circle16" />
    <g
       transform="translate(-.0272 .0065001)"
       id="g26">
      <circle
         cx="-330.35"
         cy="-328.38"
         r="0"
         id="circle18" />
      <circle
         cx="-312.11"
         cy="-326.25"
         r="0"
         id="circle20" />
      <circle
         cx="-306.02"
         cy="-333.07"
         r="0"
         id="circle22" />
      <circle
         cx="-308.84"
         cy="-326.01"
         r="0"
         id="circle24" />
    </g>
  </g>
  <circle
     cx="-318.64783"
     cy="-342.74667"
     r="0"
     fill="#5e4aa6"
     id="circle891"
     style="stroke-width:0.264578" />
  <circle
     cx="-287.30762"
     cy="-353.14453"
     r="0"
     id="circle893"
     style="fill:#5e4aa6;stroke-width:0.26458" />
  <circle
     cx="3.6061587"
     cy="-18.323235"
     r="0"
     fill-rule="evenodd"
     id="circle895"
     style="fill:#5e4aa6;stroke-width:0.26458" />
  <circle
     cx="-266.53763"
     cy="-372.06454"
     r="0"
     id="circle897"
     style="fill:#5e4aa6;stroke-width:0.26458" />
  <circle
     cx="24.375359"
     cy="-37.233532"
     r="0"
     fill-rule="evenodd"
     id="circle899"
     style="fill:#5e4aa6;stroke-width:0.26458" />
</svg>
