<?xml version="1.0" encoding="UTF-8" standalone="no"?>
<svg
   xmlns:dc="http://purl.org/dc/elements/1.1/"
   xmlns:cc="http://creativecommons.org/ns#"
   xmlns:rdf="http://www.w3.org/1999/02/22-rdf-syntax-ns#"
   xmlns:svg="http://www.w3.org/2000/svg"
   xmlns="http://www.w3.org/2000/svg"
   xmlns:sodipodi="http://sodipodi.sourceforge.net/DTD/sodipodi-0.dtd"
   xmlns:inkscape="http://www.inkscape.org/namespaces/inkscape"
   width="64"
   height="64"
   viewBox="0 0 16.933 16.933"
   version="1.1"
   id="svg32"
   sodipodi:docname="colorgrab.svg"
   inkscape:version="1.0.1 (3bc2e813f5, 2020-09-07)">
  <metadata
     id="metadata38">
    <rdf:RDF>
      <cc:Work
         rdf:about="">
        <dc:format>image/svg+xml</dc:format>
        <dc:type
           rdf:resource="http://purl.org/dc/dcmitype/StillImage" />
        <dc:title></dc:title>
      </cc:Work>
    </rdf:RDF>
  </metadata>
  <defs
     id="defs36" />
  <sodipodi:namedview
     pagecolor="#ffffff"
     bordercolor="#666666"
     borderopacity="1"
     objecttolerance="10"
     gridtolerance="10"
     guidetolerance="10"
     inkscape:pageopacity="0"
     inkscape:pageshadow="2"
     inkscape:window-width="1920"
     inkscape:window-height="941"
     id="namedview34"
     showgrid="false"
     inkscape:zoom="4.3862718"
     inkscape:cx="30.536849"
     inkscape:cy="41.478657"
     inkscape:window-x="0"
     inkscape:window-y="37"
     inkscape:window-maximized="1"
     inkscape:current-layer="svg32"
     inkscape:document-rotation="0" />
  <path
     id="rect835"
     style="fill:#0a0a0a;stroke-width:2;stroke-linecap:round;fill-opacity:1"
     d="M 32 4.5 A 27.499998 27.499998 0 0 0 4.5 32.005859 A 27.499998 27.499998 0 0 0 32.005859 59.5 A 27.499998 27.499998 0 0 0 32.894531 59.470703 C 32.954196 59.47675 32.997084 59.5 33.050781 59.5 L 58.373047 59.5 A 1.097852 1.097852 0 0 0 59.470703 58.402344 L 59.470703 32.644531 A 27.499998 27.499998 0 0 0 59.5 32 A 27.499998 27.499998 0 0 0 32 4.5 z M 32 15.5 A 16.50005 16.50005 0 0 1 48.5 32 A 16.50005 16.50005 0 0 1 48.482422 32.386719 L 48.482422 47.841797 A 0.65871322 0.65871322 0 0 1 47.824219 48.5 L 32.630859 48.5 C 32.598638 48.5 32.572902 48.485986 32.537109 48.482422 A 16.50005 16.50005 0 0 1 32.003906 48.5 A 16.50005 16.50005 0 0 1 15.5 32.003906 A 16.50005 16.50005 0 0 1 32 15.5 z "
     transform="scale(0.26457812)" />
  <path
     id="rect831"
     style="fill:#23afc8;stroke-width:2;stroke-linecap:round"
     d="M 32 20.5 A 11.499992 11.499992 0 0 0 20.5 32.001953 A 11.499992 11.499992 0 0 0 32 43.5 A 11.499992 11.499992 0 0 0 32.001953 43.5 A 11.499992 11.499992 0 0 0 32.375 43.488281 C 32.399945 43.490764 32.417002 43.5 32.439453 43.5 L 43.029297 43.5 A 0.45910148 0.45910148 0 0 0 43.488281 43.041016 L 43.488281 32.269531 A 11.499992 11.499992 0 0 0 43.5 32 A 11.499992 11.499992 0 0 0 32 20.5 z "
     transform="scale(0.26457812)" />
</svg>
