<?xml version="1.0" encoding="UTF-8"?>
<svg width="64" height="64" version="1.1" xmlns="http://www.w3.org/2000/svg" xmlns:cc="http://creativecommons.org/ns#" xmlns:dc="http://purl.org/dc/elements/1.1/" xmlns:rdf="http://www.w3.org/1999/02/22-rdf-syntax-ns#">
 <metadata>
  <rdf:RDF>
   <cc:Work rdf:about="">
    <dc:format>image/svg+xml</dc:format>
    <dc:type rdf:resource="http://purl.org/dc/dcmitype/StillImage"/>
    <dc:title/>
   </cc:Work>
  </rdf:RDF>
 </metadata>
 <defs>
  <style type="text/css"/>
 </defs>
 <g fill="#5e4aa6">
  <circle cx="-1325.3" cy="-1259.1" r="0"/>
  <circle cx="-1239.1" cy="-1274.8" r="0"/>
  <circle cx="-1325.3" cy="-1259.1" r="0"/>
  <circle cx="-1325.4" cy="-1259.5" r="0"/>
  <circle cx="-1239.2" cy="-1275.3" r="0"/>
  <circle cx="-1248.7" cy="-1241.6" r="0"/>
 </g>
 <circle cx="-149.15" cy="23.855" r="0" fill="#5e4aa6" fill-rule="evenodd"/>
 <g transform="matrix(.062324 0 0 .062324 -1.1341 .015539)" fill="#009585" fill-opacity=".87843">
  <path d="m959.2 213.6c-0.8-1.6-12.8-9.6-20-12.8-8.8-4-17.6-6.4-25.6-6.4-25.6 0-39.2 18.4-40.8 20.8l-33.6 48.8-230.4 367.2c-0.8 1.6-1.6 4-2.4 5.6l-0.8 0.8-45.6 125.6c-1.6 7.2 1.6 15.2 8 19.2s14.4 4 20.8 0l96.8-88.8c1.6-0.8 1.6-2.4 3.2-3.2l2.4-2.4 242.4-366.4c8-12 27.2-40 33.6-51.2 14.4-24-2.4-52-8-56.8zm-685.6 125.6h376c20 0 36-16 36-36s-16-36-36-36h-376c-20 0-36 16-36 36s16 36 36 36z" p-id="1286"/>
  <path d="m749.6 740v129.6h-586.4v-712.8h586.4v32.8h72v-35.2c0-38.4-31.2-69.6-69.6-69.6h-592c-38.4 0-69.6 31.2-69.6 69.6v717.6c0 38.4 31.2 69.6 69.6 69.6h592c38.4 0 69.6-31.2 69.6-69.6v-132z" p-id="1287"/>
  <path d="m521.6 456h-248c-20 0-36 16-36 36s16 36 36 36h248c20 0 36-16 36-36s-16-36-36-36zm-248 260.8h112c20 0 36-16 36-36s-16-36-36-36h-112c-20 0-36 16-36 36s16 36 36 36z" p-id="1288"/>
 </g>
</svg>
