<?xml version="1.0" encoding="UTF-8" standalone="no"?>
<svg
   xmlns:dc="http://purl.org/dc/elements/1.1/"
   xmlns:cc="http://creativecommons.org/ns#"
   xmlns:rdf="http://www.w3.org/1999/02/22-rdf-syntax-ns#"
   xmlns:svg="http://www.w3.org/2000/svg"
   xmlns="http://www.w3.org/2000/svg"
   xmlns:sodipodi="http://sodipodi.sourceforge.net/DTD/sodipodi-0.dtd"
   xmlns:inkscape="http://www.inkscape.org/namespaces/inkscape"
   width="64"
   height="64"
   version="1.1"
   viewBox="0 0 16.933 16.933"
   id="svg21"
   sodipodi:docname="dictionary.svg"
   inkscape:version="1.0.1 (3bc2e813f5, 2020-09-07)">
  <metadata
     id="metadata25">
    <rdf:RDF>
      <cc:Work
         rdf:about="">
        <dc:format>image/svg+xml</dc:format>
        <dc:type
           rdf:resource="http://purl.org/dc/dcmitype/StillImage" />
        <dc:title></dc:title>
      </cc:Work>
    </rdf:RDF>
  </metadata>
  <sodipodi:namedview
     pagecolor="#ffffff"
     bordercolor="#666666"
     borderopacity="1"
     objecttolerance="10"
     gridtolerance="10"
     guidetolerance="10"
     inkscape:pageopacity="0"
     inkscape:pageshadow="2"
     inkscape:window-width="1920"
     inkscape:window-height="978"
     id="namedview23"
     showgrid="false"
     inkscape:zoom="6.4921875"
     inkscape:cx="37.026455"
     inkscape:cy="40.323664"
     inkscape:window-x="0"
     inkscape:window-y="0"
     inkscape:window-maximized="1"
     inkscape:current-layer="svg21" />
  <defs
     id="defs7">
    <linearGradient
       id="a"
       x1="50"
       x2="50"
       y1="59"
       y2="39"
       gradientTransform="scale(.26458)"
       gradientUnits="userSpaceOnUse">
      <stop
         offset="0"
         id="stop2" />
      <stop
         stop-opacity="0"
         offset="1"
         id="stop4" />
    </linearGradient>
  </defs>
  <rect
     style="fill:#0a0a0a;stroke-width:0.806361;stroke-linecap:round"
     id="rect847"
     width="9.2602348"
     height="9.2602348"
     x="1.4548827"
     y="5.5773768" />
  <rect
     style="fill:#23afc8;fill-opacity:1;stroke-width:0.806361;stroke-linecap:round"
     id="rect845"
     width="9.2602348"
     height="9.2602348"
     x="6.2178826"
     y="2.0953884" />
  <path
     id="rect914"
     style="opacity:1;fill:#ffffff;fill-opacity:1;stroke:none;stroke-width:5;stroke-linecap:round"
     d="M 33.378906 17.666016 L 28.001953 32.964844 L 31.480469 32.964844 L 32.585938 29.337891 L 38.140625 29.337891 L 39.242188 32.960938 L 39.244141 32.964844 L 42.724609 32.964844 L 37.328125 17.666016 L 33.378906 17.666016 z M 35.369141 20.03125 A 17.516936 17.516936 0 0 0 35.640625 21.050781 C 35.771685 21.487806 36.345457 23.341905 37.367188 26.628906 L 33.398438 26.628906 C 34.480626 23.119955 35.140594 20.921854 35.369141 20.03125 z M 48.925781 21.074219 A 9.4707013 9.4707013 0 0 0 44.695312 22.126953 L 45.746094 24.273438 C 47.003182 23.712188 48.099773 23.429688 49.027344 23.429688 C 50.237209 23.429687 50.841797 24.021489 50.841797 25.201172 L 50.841797 25.708984 L 48.822266 25.775391 C 47.077832 25.835915 45.769456 26.162395 44.902344 26.753906 C 44.041951 27.33874 43.613281 28.245616 43.613281 29.482422 C 43.613281 30.665377 43.931764 31.576295 44.570312 32.214844 C 45.215543 32.853432 46.099022 33.173828 47.214844 33.173828 C 48.125599 33.173828 48.863096 33.045895 49.427734 32.787109 C 49.995688 32.524986 50.54623 32.055001 51.083984 31.382812 L 51.164062 31.382812 L 51.779297 32.960938 L 51.783203 32.964844 L 54.001953 32.964844 L 54.001953 25.201172 C 54.001953 23.809748 53.583482 22.777966 52.75 22.095703 C 51.91659 21.413431 50.717087 21.074219 49.154297 21.074219 A 9.4707013 9.4707013 0 0 0 48.925781 21.074219 z M 50.841797 27.568359 L 50.841797 28.525391 A 2.2249015 2.2249015 0 0 1 50.175781 30.212891 C 49.738821 30.636356 49.152067 30.851562 48.416016 30.851562 C 47.387578 30.851563 46.873047 30.399866 46.873047 29.505859 C 46.873047 28.880784 47.097066 28.41522 47.550781 28.109375 C 48.001091 27.80353 48.691001 27.634295 49.615234 27.607422 L 50.841797 27.568359 z "
     transform="scale(0.26457812)" />
</svg>
