<?xml version="1.0" encoding="UTF-8"?>
<svg width="64" height="64" version="1.1" viewBox="0 0 16.933 16.933" xmlns="http://www.w3.org/2000/svg" xmlns:cc="http://creativecommons.org/ns#" xmlns:dc="http://purl.org/dc/elements/1.1/" xmlns:rdf="http://www.w3.org/1999/02/22-rdf-syntax-ns#">
 <metadata>
  <rdf:RDF>
   <cc:Work rdf:about="">
    <dc:format>image/svg+xml</dc:format>
    <dc:type rdf:resource="http://purl.org/dc/dcmitype/StillImage"/>
    <dc:title/>
   </cc:Work>
  </rdf:RDF>
 </metadata>
 <defs>
  <style type="text/css"/>
  <style type="text/css"/>
 </defs>
 <g transform="matrix(.015659 0 0 .015659 .45299 .45299)" fill="#f34482">
  <path d="m863.74 47.104h-704c-61.952 0-112.64 50.688-112.64 112.64v704c0 61.952 50.688 112.64 112.64 112.64h704c61.952 0 112.64-50.688 112.64-112.64v-704c0-61.952-49.664-112.64-112.64-112.64zm-135.68 615.42-19.456-18.432-109.57 109.57c-4.608 5.12-11.776 7.68-17.92 7.68s-12.8-2.56-17.92-7.68c-10.24-10.24-10.24-26.112 0-36.352l127.49-127.49c9.728-9.728 25.6-10.24 35.84-0.512l37.888 35.84c10.24 9.728 10.752 26.112 0 36.352-9.216 10.24-26.112 10.752-36.352 1.024zm102.4 62.464c-5.12 5.632-12.288 8.192-18.944 8.192-6.144 0-12.288-2.048-17.408-6.656l-20.48-18.944c-10.24-9.728-11.264-26.112-1.536-36.352s26.112-11.264 36.352-1.536l20.48 18.944c10.752 9.728 11.776 26.112 1.536 36.352zm95.744-93.696-192.51-206.34c-4.608-5.12-11.264-8.192-18.432-8.192s-13.824 2.56-18.432 7.168l-250.88 248.32-152.58-129.02c-9.728-8.192-24.576-8.192-34.304 1.024l-160.26 152.06v-536.58c0-33.792 27.648-61.44 61.952-61.44h704c33.792 0 61.44 27.648 61.44 61.44z" p-id="15144"/>
  <path d="m323.58 292.86m-78.336 0a78.336 78.336 0 1 0 156.67 0 78.336 78.336 0 1 0-156.67 0z" p-id="15145"/>
 </g>
</svg>
