<?xml version="1.0" encoding="UTF-8" standalone="no"?>
<svg
   xmlns:dc="http://purl.org/dc/elements/1.1/"
   xmlns:cc="http://creativecommons.org/ns#"
   xmlns:rdf="http://www.w3.org/1999/02/22-rdf-syntax-ns#"
   xmlns:svg="http://www.w3.org/2000/svg"
   xmlns="http://www.w3.org/2000/svg"
   xmlns:sodipodi="http://sodipodi.sourceforge.net/DTD/sodipodi-0.dtd"
   xmlns:inkscape="http://www.inkscape.org/namespaces/inkscape"
   width="64"
   height="64"
   version="1.1"
   viewBox="0 0 16.933 16.933"
   id="svg34"
   sodipodi:docname="github-desktop.svg"
   inkscape:version="1.0.1 (3bc2e813f5, 2020-09-07)">
  <sodipodi:namedview
     pagecolor="#ffffff"
     bordercolor="#666666"
     borderopacity="1"
     objecttolerance="10"
     gridtolerance="10"
     guidetolerance="10"
     inkscape:pageopacity="0"
     inkscape:pageshadow="2"
     inkscape:window-width="1920"
     inkscape:window-height="978"
     id="namedview36"
     showgrid="false"
     inkscape:zoom="6.4921875"
     inkscape:cx="10.169885"
     inkscape:cy="22.519847"
     inkscape:window-x="0"
     inkscape:window-y="0"
     inkscape:window-maximized="1"
     inkscape:current-layer="svg34" />
  <defs
     id="defs12">
    <style
       type="text/css"
       id="style2" />
    <filter
       id="filter2761-3"
       x="-.024"
       y="-.024"
       width="1.048"
       height="1.048"
       color-interpolation-filters="sRGB">
      <feGaussianBlur
         stdDeviation="0.14552168"
         id="feGaussianBlur4" />
    </filter>
    <linearGradient
       id="linearGradient4673"
       x1="1.2573"
       x2="15.644"
       y1="15.429"
       y2="1.1082"
       gradientTransform="translate(-7e-4 .21485)"
       gradientUnits="userSpaceOnUse">
      <stop
         stop-color="#32dcff"
         offset="0"
         id="stop7" />
      <stop
         stop-color="#3296ff"
         offset="1"
         id="stop9" />
    </linearGradient>
    <style
       type="text/css"
       id="style861" />
  </defs>
  <metadata
     id="metadata14">
    <rdf:RDF>
      <cc:Work
         rdf:about="">
        <dc:format>image/svg+xml</dc:format>
        <dc:type
           rdf:resource="http://purl.org/dc/dcmitype/StillImage" />
        <dc:title></dc:title>
      </cc:Work>
    </rdf:RDF>
  </metadata>
  <circle
     cx="-327.3"
     cy="-349.81"
     r="0"
     fill="#5e4aa6"
     stroke-width=".26458"
     id="circle22" />
  <g
     transform="translate(3.0582 -21.439)"
     fill="#5e4aa6"
     stroke-width=".26458"
     id="g32">
    <circle
       cx="-299.02"
       cy="-338.77"
       r="0"
       id="circle24" />
    <circle
       cx="-8.1062"
       cy="-3.9487"
       r="0"
       fill-rule="evenodd"
       id="circle26" />
    <circle
       cx="-278.25"
       cy="-357.69"
       r="0"
       id="circle28" />
    <circle
       cx="12.663"
       cy="-22.859"
       r="0"
       fill-rule="evenodd"
       id="circle30" />
  </g>
  <path
     d="m 11.152948,15.7424 c -0.37693,0 -0.628218,-0.251287 -0.628218,-0.628218 v -2.45005 c 0.06282,-0.565395 -0.188465,-0.942326 -0.439752,-1.193614 -0.1256429,-0.188465 -0.1884649,-0.439752 -0.1256429,-0.628217 0.06282,-0.188466 0.2512869,-0.376931 0.5025739,-0.376931 2.073118,-0.251287 3.455198,-1.0051493 3.455198,-3.7693073 0,-0.753861 -0.251287,-1.382079 -0.753862,-1.947475 -0.188465,-0.188465 -0.188465,-0.439752 -0.125643,-0.69104 0.188465,-0.439752 0.188465,-1.005148 0.06282,-1.507722 -0.314109,0.06282 -0.816683,0.251287 -1.633366,0.816683 -0.125643,0.125643 -0.314109,0.125643 -0.502574,0.06282 -1.3192569,-0.376931 -2.7641575,-0.376931 -4.0834155,0 -0.125643,0 -0.314109,0 -0.502574,-0.125644 -0.753862,-0.502574 -1.319257,-0.69104 -1.633366,-0.753861 -0.125644,0.502574 -0.125644,1.06797 0.06282,1.507722 0.125644,0.251288 0.06282,0.502575 -0.125643,0.69104 -0.502574,0.502574 -0.753862,1.193614 -0.753862,1.947475 0,2.952624 1.696188,3.5180203 3.455198,3.7693073 0.251287,0 0.439753,0.188465 0.502575,0.439752 0.06282,0.251288 0,0.502575 -0.125644,0.628218 -0.314109,0.314109 -0.439752,0.69104 -0.376931,1.130792 v 2.45005 c 0,0.376931 -0.251287,0.628218 -0.628217,0.628218 -0.376931,0 -0.628218,-0.251287 -0.628218,-0.628218 v -1.06797 c -1.884654,0.314109 -2.701337,-0.753862 -3.266733,-1.444901 -0.251287,-0.314109 -0.439752,-0.565396 -0.691039,-0.628218 -0.314109,-0.06282 -0.565396,-0.439753 -0.439753,-0.753862 0.06282,-0.314109 0.439753,-0.565396 0.753862,-0.439752 0.628217,0.188465 1.005148,0.628218 1.382079,1.06797 0.502574,0.69104 0.942326,1.193614 2.261584,0.942327 -0.06282,-0.376931 0,-0.816683 0.125644,-1.193614 -1.75901,-0.439752 -3.580842,-1.507722 -3.580842,-4.8372773 0,-0.942327 0.314109,-1.821832 0.879505,-2.512871 -0.251287,-0.879505 -0.188466,-1.75901 0.188465,-2.5756931 0.06282,-0.188466 0.188465,-0.314109 0.376931,-0.376931 0.251287,-0.06282 1.130792,-0.251287 2.764158,0.816683 1.382079,-0.314109 2.7641586,-0.314109 4.1462375,0 1.633366,-1.06797 2.512871,-0.942327 2.764158,-0.879505 0.188465,0.06282 0.314109,0.188466 0.376931,0.376931 0.314109,0.8166831 0.439752,1.6961881 0.188465,2.5128711 0.565396,0.753862 0.879505,1.570545 0.879505,2.512871 0,3.3923773 -1.884653,4.4603473 -3.643663,4.8372773 0.188465,0.376931 0.251287,0.816684 0.188465,1.256436 v 2.387228 c 0,0.376931 -0.251287,0.628218 -0.628218,0.628218 z"
     p-id="4297"
     id="path865"
     style="stroke-width:0.0148242;fill:#7f0bbb;fill-opacity:1" />
</svg>
