<?xml version="1.0" encoding="UTF-8" standalone="no"?>
<svg
   xmlns:dc="http://purl.org/dc/elements/1.1/"
   xmlns:cc="http://creativecommons.org/ns#"
   xmlns:rdf="http://www.w3.org/1999/02/22-rdf-syntax-ns#"
   xmlns:svg="http://www.w3.org/2000/svg"
   xmlns="http://www.w3.org/2000/svg"
   xmlns:sodipodi="http://sodipodi.sourceforge.net/DTD/sodipodi-0.dtd"
   xmlns:inkscape="http://www.inkscape.org/namespaces/inkscape"
   width="64"
   height="64"
   version="1.1"
   viewBox="0 0 16.933 16.933"
   id="svg62"
   sodipodi:docname="gnome-paint.svg"
   inkscape:version="1.0.1 (3bc2e813f5, 2020-09-07)">
  <g
     id="g949"
     transform="translate(-18.524701)">
    <path
       id="path936"
       style="fill:#23afc8;stroke-width:0.775669;stroke-linecap:round;fill-opacity:1"
       d="m 19.715303,1.1906012 v 3.4395155 c 0,0.4540203 0.08742,0.8867886 0.245976,1.2825837 0.158555,0.3957951 0.388256,0.7545644 0.673847,1.0608964 0.285591,0.306332 0.62708,0.5600452 1.008187,0.7456761 0.381108,0.1856309 0.801824,0.3032319 1.246928,0.3369238 v 0.013436 h 3.704094 v -3.439516 c 0,-1.8160803 -1.394522,-3.2913126 -3.174938,-3.42608 v -0.013435 h -0.264578 z" />
    <path
       id="path939"
       style="fill:#23afc8;stroke-width:0.775669;stroke-linecap:round;fill-opacity:1"
       d="m 34.2671,1.1906012 v 3.4395155 c 0,0.4540203 -0.08742,0.8867886 -0.245975,1.2825837 -0.158556,0.3957951 -0.388256,0.7545644 -0.673848,1.0608964 -0.285591,0.306332 -0.62708,0.5600452 -1.008187,0.7456761 -0.381107,0.1856309 -0.801824,0.3032319 -1.246928,0.3369238 v 0.013436 h -3.704093 v -3.439516 c 0,-1.8160803 1.394522,-3.2913126 3.174937,-3.42608 v -0.013435 h 0.264578 z" />
    <path
       id="path941"
       style="fill:#0a0a0a;stroke-width:0.775669;stroke-linecap:round"
       d="m 19.715303,8.8633628 v 3.4395152 c 0,0.454021 0.08742,0.886789 0.245976,1.282584 0.158555,0.395795 0.388256,0.754564 0.673847,1.060896 0.285591,0.306332 0.62708,0.560046 1.008187,0.745677 0.381108,0.18563 0.801824,0.303231 1.246928,0.336923 v 0.01344 h 3.704094 v -3.439516 c 0,-1.81608 -1.394522,-3.2913123 -3.174938,-3.4260797 v -0.013439 h -0.264578 z" />
    <path
       id="path943"
       style="fill:#0a0a0a;stroke-width:0.775669;stroke-linecap:round"
       d="m 34.2671,8.8633628 v 3.4395152 c 0,0.454021 -0.08742,0.886789 -0.245975,1.282584 -0.158556,0.395795 -0.388256,0.754564 -0.673848,1.060896 -0.285591,0.306332 -0.62708,0.560046 -1.008187,0.745677 -0.381107,0.18563 -0.801824,0.303231 -1.246928,0.336923 v 0.01344 h -3.704093 v -3.439516 c 0,-1.81608 1.394522,-3.2913123 3.174937,-3.4260797 v -0.013435 h 0.264578 z" />
  </g>
  <sodipodi:namedview
     pagecolor="#ffffff"
     bordercolor="#666666"
     borderopacity="1"
     objecttolerance="10"
     gridtolerance="10"
     guidetolerance="10"
     inkscape:pageopacity="0"
     inkscape:pageshadow="2"
     inkscape:window-width="1920"
     inkscape:window-height="941"
     id="namedview64"
     showgrid="false"
     inkscape:zoom="4.3862718"
     inkscape:cx="1.223983"
     inkscape:cy="49.843142"
     inkscape:window-x="0"
     inkscape:window-y="37"
     inkscape:window-maximized="1"
     inkscape:current-layer="svg62" />
  <defs
     id="defs38">
    <filter
       id="filter2761"
       x="-.024"
       y="-.024"
       width="1.048"
       height="1.048"
       color-interpolation-filters="sRGB">
      <feGaussianBlur
         stdDeviation="0.14552168"
         id="feGaussianBlur2" />
    </filter>
    <linearGradient
       id="linearGradient1024"
       x1="1.3315"
       x2="14.217"
       y1="15.576"
       y2="2.6243"
       gradientUnits="userSpaceOnUse">
      <stop
         stop-color="#ff7d1e"
         offset="0"
         id="stop5" />
      <stop
         stop-color="#ffa53c"
         offset="1"
         id="stop7" />
    </linearGradient>
    <linearGradient
       id="linearGradient32549-7"
       x1="-6.1472"
       x2="-6.1472"
       y1="-137.82"
       y2="-100.78"
       gradientTransform="matrix(.074691 0 0 .074691 9.0053 14.066)"
       gradientUnits="userSpaceOnUse">
      <stop
         stop-color="#32b4ff"
         offset="0"
         id="stop10" />
      <stop
         stop-color="#3287ff"
         offset="1"
         id="stop12" />
    </linearGradient>
    <linearGradient
       id="linearGradient957-3"
       x1="-6.1472"
       x2="-6.1472"
       y1="-137.82"
       y2="-100.78"
       gradientTransform="matrix(.049218 0 0 .049218 6.3549 12.326)"
       gradientUnits="userSpaceOnUse">
      <stop
         stop-color="#14dc78"
         offset="0"
         id="stop15" />
      <stop
         stop-color="#14a03c"
         offset="1"
         id="stop17" />
    </linearGradient>
    <linearGradient
       id="linearGradient961-5"
       x1="-6.1472"
       x2="-6.1472"
       y1="-137.82"
       y2="-100.78"
       gradientTransform="matrix(.049218 0 0 .049218 11.516 12.233)"
       gradientUnits="userSpaceOnUse">
      <stop
         stop-color="#dc28e6"
         offset="0"
         id="stop20" />
      <stop
         stop-color="#8c14e6"
         offset="1"
         id="stop22" />
    </linearGradient>
    <linearGradient
       id="linearGradient963-6"
       x1="-6.1472"
       x2="-6.1472"
       y1="-137.82"
       y2="-100.78"
       gradientTransform="matrix(.074691 0 0 .074691 5.7759 17.892)"
       gradientUnits="userSpaceOnUse">
      <stop
         stop-color="#ffbe14"
         offset="0"
         id="stop25" />
      <stop
         stop-color="#ff8214"
         offset="1"
         id="stop27" />
    </linearGradient>
    <linearGradient
       id="linearGradient1342"
       x1="-6.1472"
       x2="-6.1472"
       y1="-137.82"
       y2="-100.78"
       gradientTransform="matrix(.049218 0 0 .049218 6.7607 17.197)"
       gradientUnits="userSpaceOnUse">
      <stop
         stop-color="#ff3c69"
         offset="0"
         id="stop30" />
      <stop
         stop-color="#ff462b"
         offset="1"
         id="stop32" />
    </linearGradient>
    <filter
       id="filter1346"
       x="-.083571"
       y="-.084434"
       width="1.1671"
       height="1.1689"
       color-interpolation-filters="sRGB">
      <feGaussianBlur
         stdDeviation="0.3616237"
         id="feGaussianBlur35" />
    </filter>
    <filter
       id="filter2761-3"
       x="-.024"
       y="-.024"
       width="1.048"
       height="1.048"
       color-interpolation-filters="sRGB">
      <feGaussianBlur
         stdDeviation="0.14552168"
         id="feGaussianBlur2-6" />
    </filter>
    <linearGradient
       id="linearGradient1024-7"
       x1="1.3315"
       x2="15.65"
       y1="15.576"
       y2="1.17"
       gradientUnits="userSpaceOnUse">
      <stop
         stop-color="#96aab4"
         offset="0"
         id="stop5-5" />
      <stop
         stop-color="#a0b4c3"
         offset="1"
         id="stop7-3" />
    </linearGradient>
  </defs>
  <metadata
     id="metadata40">
    <rdf:RDF>
      <cc:Work
         rdf:about="">
        <dc:format>image/svg+xml</dc:format>
        <dc:type
           rdf:resource="http://purl.org/dc/dcmitype/StillImage" />
        <dc:title></dc:title>
      </cc:Work>
    </rdf:RDF>
  </metadata>
</svg>
