<?xml version="1.0" encoding="UTF-8"?>
<svg width="64" height="64" version="1.1" viewBox="0 0 16.933 16.933" xmlns="http://www.w3.org/2000/svg" xmlns:cc="http://creativecommons.org/ns#" xmlns:dc="http://purl.org/dc/elements/1.1/" xmlns:rdf="http://www.w3.org/1999/02/22-rdf-syntax-ns#">
 <defs>
  <style type="text/css"/>
 </defs>
 <metadata>
  <rdf:RDF>
   <cc:Work rdf:about="">
    <dc:format>image/svg+xml</dc:format>
    <dc:type rdf:resource="http://purl.org/dc/dcmitype/StillImage"/>
    <dc:title/>
   </cc:Work>
  </rdf:RDF>
 </metadata>
 <path d="m10.527 12.994c0.05239 0.28303 0.20736 0.53914 0.44747 0.71304l0.02328 0.01601 0.05457 0.0342 0.55151 0.31723a0.66647 0.66647 0 0 1-0.49185 0.21318h-5.732a0.65483 0.65483 0 0 1-0.66211-0.64683 0.65483 0.65483 0 0 1 0.66211-0.64683zm4.7744-4.9549a1.1198 1.1198 0 0 0-0.08586-0.06767l-0.02037-0.01382-0.05675-0.03565-0.72759-0.41618-0.06185-0.02474a1.1714 1.1714 0 0 0-1.2369 0.23428 1.1692 1.1692 0 0 0-1.2536-0.23865l-0.04875 0.01892-0.75087 0.42273-0.06839 0.04365a1.1569 1.1569 0 0 0-0.44528 1.2587c-0.48385 0.05093-0.81854 0.45111-0.90585 0.92404-0.04366 0.22846-0.06767 0.46056-0.07058 0.69412 0 0.24229 0.03347 0.49258 0.07058 0.69558 0.0422 0.22555 0.14042 0.4351 0.28667 0.59735h-7.8536c-0.48748 0-0.88184-0.38562-0.88184-0.86219v-7.7612c0-0.47584 0.39508-0.86219 0.88184-0.86219h12.347c0.48748 0 0.88184 0.38562 0.88184 0.86219zm-7.9293 0.05166s0 1.6138-8e-3 1.6138c0 0.14916 0.14916 0.27139 0.33032 0.27139h0.66211c0.1819 0 0.33033-0.12224 0.33033-0.27139v-1.6131c0-0.14916-0.14843-0.27066-0.33105-0.27066h-0.65265c-0.1819 0-0.33105 0.12151-0.33105 0.27066zm-2.2126-2.5582v4.1444c0 0.16516 0.14988 0.29977 0.33251 0.29977h0.65701c0.18335 0 0.33324-0.1346 0.33324-0.29977v-4.1444c0-0.16516-0.14988-0.29904-0.33324-0.29904h-0.65701c-0.18262 0-0.33251 0.13388-0.33251 0.29831zm-1.8743 0.99389c-0.1819 0-0.33105 0.13097-0.33105 0.29031 0 0 0 2.8696 0.01673 2.8696 0 0.16007 0.14916 0.28958 0.33033 0.28958h0.64537c0.1819 0 0.33033-0.13097 0.33033-0.28958v-2.8696c0-0.16007-0.14843-0.29031-0.33033-0.29031h-0.66211zm10.605 6.899a0.33615 0.33615 0 0 1-0.25029-0.11059c-0.08222-0.09313-0.34342-0.33688-0.55588-0.33688-0.21173 0-0.4773 0.24447-0.5537 0.33033a0.33542 0.33542 0 0 1-0.38271 0.07858l-0.65483-0.38053a0.33178 0.33178 0 0 1-0.10477-0.38999c0.03492-0.08731 0.0553-0.17899 0.05893-0.27212 0-0.3929-0.3085-0.71304-0.68684-0.71304h-0.02765c-0.10914 0-0.19718-0.09968-0.22555-0.25466a3.5579 3.5579 0 0 1-0.05602-0.53842c0-0.22992 0.05384-0.52386 0.05602-0.53623 0.02838-0.15643 0.1186-0.25757 0.22919-0.25466h0.02256c0.3798 0 0.6883-0.32014 0.6883-0.71231 0-0.12878-0.05893-0.27139-0.05966-0.27285a0.3296 0.3296 0 0 1 0.11205-0.3929l0.69339-0.3929a0.34051 0.34051 0 0 1 0.37325 0.08003c0.08149 0.08877 0.3376 0.31723 0.54424 0.31723 0.20591 0 0.46056-0.2241 0.5406-0.30995a0.34197 0.34197 0 0 1 0.38271-0.07494l0.66793 0.38562a0.33033 0.33033 0 0 1 0.10477 0.38926 0.82945 0.82945 0 0 0-0.05893 0.27212c0 0.3929 0.30777 0.71231 0.68757 0.71231h0.02183c0.11132-0.0022 0.20154 0.09822 0.22992 0.25466 0.0022 0.01237 0.05602 0.30559 0.05602 0.53696a3.5696 3.5696 0 0 1-0.0553 0.53696c-0.0291 0.15716-0.12005 0.25757-0.22992 0.25466h-0.02328c-0.37907 0-0.6883 0.32014-0.6883 0.71304 0 0.12951 0.05966 0.27139 0.06039 0.27285a0.33105 0.33105 0 0 1-0.11205 0.39363l-0.67957 0.38853a0.30268 0.30268 0 0 1-0.12514 0.02619zm-0.79307-1.7244c0.31505 0 0.60608-0.16444 0.76397-0.43146a0.84546 0.84546 0 0 0 0-0.86219 0.88548 0.88548 0 0 0-0.76397-0.43146c-0.48748 0-0.88184 0.38562-0.88184 0.86219 0 0.47657 0.39435 0.86219 0.88184 0.86219z" fill="#32a0ff" stroke-width=".011376" p-id="5969"/>
</svg>
