<?xml version="1.0" encoding="UTF-8" standalone="no"?>
<svg
   xmlns:dc="http://purl.org/dc/elements/1.1/"
   xmlns:cc="http://creativecommons.org/ns#"
   xmlns:rdf="http://www.w3.org/1999/02/22-rdf-syntax-ns#"
   xmlns:svg="http://www.w3.org/2000/svg"
   xmlns="http://www.w3.org/2000/svg"
   xmlns:sodipodi="http://sodipodi.sourceforge.net/DTD/sodipodi-0.dtd"
   xmlns:inkscape="http://www.inkscape.org/namespaces/inkscape"
   width="64"
   height="64"
   version="1.1"
   id="svg29"
   sodipodi:docname="help.svg"
   inkscape:version="1.0.1 (3bc2e813f5, 2020-09-07)">
  <metadata
     id="metadata33">
    <rdf:RDF>
      <cc:Work
         rdf:about="">
        <dc:format>image/svg+xml</dc:format>
        <dc:type
           rdf:resource="http://purl.org/dc/dcmitype/StillImage" />
        <dc:title></dc:title>
      </cc:Work>
    </rdf:RDF>
  </metadata>
  <sodipodi:namedview
     pagecolor="#ffffff"
     bordercolor="#666666"
     borderopacity="1"
     objecttolerance="10"
     gridtolerance="10"
     guidetolerance="10"
     inkscape:pageopacity="0"
     inkscape:pageshadow="2"
     inkscape:window-width="1920"
     inkscape:window-height="985"
     id="namedview31"
     showgrid="false"
     inkscape:zoom="4.5409514"
     inkscape:cx="-2.8869238"
     inkscape:cy="38.71584"
     inkscape:window-x="0"
     inkscape:window-y="0"
     inkscape:window-maximized="1"
     inkscape:current-layer="svg29" />
  <defs
     id="defs17">
    <linearGradient
       id="a"
       x1="540"
       x2="540"
       y1="212.36"
       y2="872.36"
       gradientTransform="matrix(.063513 0 0 .063513 -.40795 -2.556)"
       gradientUnits="userSpaceOnUse">
      <stop
         stop-color="#fff"
         offset="0"
         id="stop2" />
      <stop
         stop-color="#d7d7d7"
         offset="1"
         id="stop4" />
    </linearGradient>
    <linearGradient
       id="linearGradient898"
       x1="200"
       x2="400"
       y1="952.36"
       y2="952.36"
       gradientTransform="matrix(.16259 0 0 .16259 -16.667 15.636)"
       gradientUnits="userSpaceOnUse">
      <stop
         stop-color="#f4fbfc"
         offset="0"
         id="stop7" />
      <stop
         stop-color="#d6d6d6"
         offset="1"
         id="stop9" />
    </linearGradient>
    <linearGradient
       id="linearGradient862-3"
       x1="7.9373"
       x2="7.9373"
       y1="15.081"
       y2="1.852"
       gradientTransform="scale(3.7796)"
       gradientUnits="userSpaceOnUse">
      <stop
         stop-color="#2ec2b4"
         offset="0"
         id="stop12" />
      <stop
         stop-color="#79eec1"
         offset="1"
         id="stop14" />
    </linearGradient>
    <filter
       id="filter2761"
       x="-.024"
       y="-.024"
       width="1.048"
       height="1.048"
       color-interpolation-filters="sRGB">
      <feGaussianBlur
         stdDeviation="0.14552168"
         id="feGaussianBlur2" />
    </filter>
    <linearGradient
       id="linearGradient1024-6"
       x1="1.3315"
       x2="15.65"
       y1="15.576"
       y2="1.17"
       gradientUnits="userSpaceOnUse"
       gradientTransform="translate(0,-25.157565)">
      <stop
         stop-color="#dddfe1"
         offset="0"
         id="stop5" />
      <stop
         stop-color="#f3f4f6"
         stop-opacity=".99608"
         offset="1"
         id="stop7-3" />
    </linearGradient>
  </defs>
  <g
     id="g878"
     transform="scale(3.779602)">
    <path
       id="path865"
       style="fill:#0a0a0a;fill-opacity:1;stroke-width:4.04962;stroke-linecap:round"
       d="M 31.841797,2 V 12.001953 A 20,20 0 0 1 51.695312,32 a 20,20 0 0 1 -20,20 A 20,20 0 0 1 12.617188,38 H 2.3046875 a 29.999998,29.999998 0 0 0 29.3906245,24 29.999998,29.999998 0 0 0 30,-30 A 29.999998,29.999998 0 0 0 31.841797,2 Z"
       transform="scale(0.26457812)" />
    <circle
       style="fill:#23afc8;stroke-width:0.92128;stroke-linecap:round"
       id="path887"
       cx="8.4665003"
       cy="8.4665003"
       r="3.7040937" />
    <path
       id="path891"
       style="fill:#0a0a0a;fill-opacity:1;stroke:none;stroke-width:2.33333;stroke-linecap:round;stroke-miterlimit:4;stroke-dasharray:none;stroke-opacity:1"
       d="M 31.90625,25 A 6.9999996,6.9999996 0 0 0 25,32 6.9999996,6.9999996 0 0 0 31.839844,38.998047 V 34.494141 A 2.5,2.5 0 0 1 29.5,32 2.5,2.5 0 0 1 32,29.5 2.5,2.5 0 0 1 34.5,32 H 39 a 6.9999996,6.9999996 0 0 0 -7,-7 6.9999996,6.9999996 0 0 0 -0.09375,0 z"
       transform="scale(0.26457812)" />
  </g>
</svg>
