<?xml version="1.0" encoding="UTF-8" standalone="no"?>
<svg
   xmlns:dc="http://purl.org/dc/elements/1.1/"
   xmlns:cc="http://creativecommons.org/ns#"
   xmlns:rdf="http://www.w3.org/1999/02/22-rdf-syntax-ns#"
   xmlns:svg="http://www.w3.org/2000/svg"
   xmlns="http://www.w3.org/2000/svg"
   xmlns:sodipodi="http://sodipodi.sourceforge.net/DTD/sodipodi-0.dtd"
   xmlns:inkscape="http://www.inkscape.org/namespaces/inkscape"
   width="64"
   height="64"
   version="1.1"
   viewBox="0 0 16.933 16.933"
   id="svg14"
   sodipodi:docname="help-browser.svg"
   inkscape:version="1.0.1 (3bc2e813f5, 2020-09-07)">
  <defs
     id="defs18">
    <filter
       id="filter2761"
       x="-.024"
       y="-.024"
       width="1.048"
       height="1.048"
       color-interpolation-filters="sRGB">
      <feGaussianBlur
         stdDeviation="0.14552168"
         id="feGaussianBlur2" />
    </filter>
    <linearGradient
       id="linearGradient1024-6"
       x1="1.3315"
       x2="15.65"
       y1="15.576"
       y2="1.17"
       gradientUnits="userSpaceOnUse"
       gradientTransform="translate(0,-25.157565)">
      <stop
         stop-color="#dddfe1"
         offset="0"
         id="stop5" />
      <stop
         stop-color="#f3f4f6"
         stop-opacity=".99608"
         offset="1"
         id="stop7" />
    </linearGradient>
  </defs>
  <sodipodi:namedview
     pagecolor="#ffffff"
     bordercolor="#666666"
     borderopacity="1"
     objecttolerance="10"
     gridtolerance="10"
     guidetolerance="10"
     inkscape:pageopacity="0"
     inkscape:pageshadow="2"
     inkscape:window-width="1920"
     inkscape:window-height="941"
     id="namedview16"
     showgrid="false"
     showguides="true"
     inkscape:guide-bbox="true"
     inkscape:snap-smooth-nodes="true"
     inkscape:snap-midpoints="true"
     inkscape:snap-intersection-paths="true"
     inkscape:object-paths="true"
     inkscape:zoom="2.1931359"
     inkscape:cx="-7.6737742"
     inkscape:cy="68.785429"
     inkscape:window-x="0"
     inkscape:window-y="37"
     inkscape:window-maximized="1"
     inkscape:current-layer="svg14" />
  <metadata
     id="metadata2">
    <rdf:RDF>
      <cc:Work
         rdf:about="">
        <dc:format>image/svg+xml</dc:format>
        <dc:type
           rdf:resource="http://purl.org/dc/dcmitype/StillImage" />
        <dc:title></dc:title>
      </cc:Work>
    </rdf:RDF>
  </metadata>
  <path
     id="path865"
     style="fill:#0a0a0a;fill-opacity:1;stroke-width:4.04962;stroke-linecap:round"
     d="M 31.841797 2 L 31.841797 12.001953 A 20 20 0 0 1 51.695312 32 A 20 20 0 0 1 31.695312 52 A 20 20 0 0 1 12.617188 38 L 2.3046875 38 A 29.999998 29.999998 0 0 0 31.695312 62 A 29.999998 29.999998 0 0 0 61.695312 32 A 29.999998 29.999998 0 0 0 31.841797 2 z "
     transform="scale(0.26457812)" />
  <circle
     style="fill:#23afc8;stroke-width:0.92128;stroke-linecap:round"
     id="path887"
     cx="8.4665003"
     cy="8.4665003"
     r="3.7040937" />
  <path
     id="path891"
     style="fill:#0a0a0a;fill-opacity:1;stroke:none;stroke-width:2.33333;stroke-linecap:round;stroke-miterlimit:4;stroke-dasharray:none;stroke-opacity:1"
     d="M 31.90625 25 A 6.9999996 6.9999996 0 0 0 25 32 A 6.9999996 6.9999996 0 0 0 31.839844 38.998047 L 31.839844 34.494141 A 2.5 2.5 0 0 1 29.5 32 A 2.5 2.5 0 0 1 32 29.5 A 2.5 2.5 0 0 1 34.5 32 L 39 32 A 6.9999996 6.9999996 0 0 0 32 25 A 6.9999996 6.9999996 0 0 0 31.90625 25 z "
     transform="scale(0.26457812)" />
</svg>
