<?xml version="1.0" encoding="UTF-8" standalone="no"?>
<svg
   xmlns:dc="http://purl.org/dc/elements/1.1/"
   xmlns:cc="http://creativecommons.org/ns#"
   xmlns:rdf="http://www.w3.org/1999/02/22-rdf-syntax-ns#"
   xmlns:svg="http://www.w3.org/2000/svg"
   xmlns="http://www.w3.org/2000/svg"
   xmlns:sodipodi="http://sodipodi.sourceforge.net/DTD/sodipodi-0.dtd"
   xmlns:inkscape="http://www.inkscape.org/namespaces/inkscape"
   width="64"
   height="64"
   version="1.1"
   viewBox="0 0 16.933 16.933"
   id="svg20"
   sodipodi:docname="inkscape.svg"
   inkscape:version="1.0.1 (3bc2e813f5, 2020-09-07)">
  <sodipodi:namedview
     pagecolor="#ffffff"
     bordercolor="#666666"
     borderopacity="1"
     objecttolerance="10"
     gridtolerance="10"
     guidetolerance="10"
     inkscape:pageopacity="0"
     inkscape:pageshadow="2"
     inkscape:window-width="1920"
     inkscape:window-height="978"
     id="namedview22"
     showgrid="false"
     inkscape:zoom="6.4921875"
     inkscape:cx="24.069418"
     inkscape:cy="42.736059"
     inkscape:window-x="0"
     inkscape:window-y="0"
     inkscape:window-maximized="1"
     inkscape:current-layer="svg20"
     inkscape:document-rotation="0" />
  <defs
     id="defs10">
    <filter
       id="filter2761"
       x="-.024"
       y="-.024"
       width="1.048"
       height="1.048"
       color-interpolation-filters="sRGB">
      <feGaussianBlur
         stdDeviation="0.14552168"
         id="feGaussianBlur2" />
    </filter>
    <linearGradient
       id="linearGradient1024"
       x1="1.3315"
       x2="15.65"
       y1="15.576"
       y2="1.17"
       gradientUnits="userSpaceOnUse">
      <stop
         stop-color="#dddfe1"
         offset="0"
         id="stop5" />
      <stop
         stop-color="#f3f4f6"
         stop-opacity=".99608"
         offset="1"
         id="stop7" />
    </linearGradient>
    <linearGradient
       id="linearGradient3764"
       x1="1"
       x2="47"
       gradientTransform="matrix(0,-0.26457812,0.26457812,0,-19.797504,10.314111)"
       gradientUnits="userSpaceOnUse">
      <stop
         style="stop-color:#e1ddb1"
         offset="0"
         id="stop847" />
      <stop
         style="stop-color:#e7e4c0"
         offset="1"
         id="stop849" />
    </linearGradient>
  </defs>
  <metadata
     id="metadata12">
    <rdf:RDF>
      <cc:Work
         rdf:about="">
        <dc:format>image/svg+xml</dc:format>
        <dc:type
           rdf:resource="http://purl.org/dc/dcmitype/StillImage" />
        <dc:title></dc:title>
      </cc:Work>
    </rdf:RDF>
  </metadata>
  <g
     transform="matrix(0.55968451,0,0,0.55968451,-4.4062436,-4.4062435)"
     id="g866"
     style="fill:#0a0a0a;fill-opacity:1">
    <g
       style="opacity:0.1;fill:#0a0a0a;fill-opacity:1"
       id="g864" />
  </g>
  <path
     d="m 5.5695743,6.9799781 c 0,0 0.2468189,0.367153 0.5708772,0.3626755 C 6.4751428,7.3404113 6.7964018,7.1198992 7.0169173,6.8859512 7.2531043,6.6368915 7.4170918,5.9591136 7.4170918,5.9591136 7.5766024,6.4488376 7.7232392,6.894906 8.0618484,7.2402314 8.4116512,7.0762446 8.5734,6.7090908 8.7284326,6.3855931 9.1985677,6.7617011 9.6491136,7.1702709 9.8936958,7.6974936 10.035856,7.5575714 10.175777,7.3409747 10.195366,7.1047877 10.17802,6.7219636 10.094623,6.3419377 10.005072,5.9591136 10.437708,6.0990357 10.849076,6.2674996 11.271078,6.4796203 11.16418,6.2630222 11.083025,6.0290742 11.041609,5.8063198 9.8981733,5.032276 9.6468749,3.9324959 8.8946589,3.1522957 7.9459937,4.5168066 6.9553522,5.8936306 5.5695743,6.9805379"
     style="fill:#ffc832;stroke-width:0.559684;fill-opacity:1"
     id="path868" />
  <path
     d="M 9.1717028,13.503661 C 9.7666475,13.409633 10.197045,13.138747 10.603935,12.659657 10.242939,12.543802 9.9653355,12.292503 9.8388467,11.911918 9.9373512,10.866987 11.534691,10.746655 12.381493,10.162904 10.210477,9.9200009 9.000999,9.3603162 7.7053293,7.8519666 7.0538566,7.9611056 6.3956676,7.8849877 5.7509114,7.5917133 4.8503795,7.7338735 4.4720323,8.8420485 3.4293402,8.9886859 3.8183213,9.089429 4.3517008,9.1375624 4.3628933,9.3384886 5.4408468,9.0256249 6.2277623,9.2662884 7.2726934,9.6535911 6.9575909,10.458417 6.3609672,10.965492 5.484502,11.308578 c 1.0449302,0.594945 2.3019817,0.566401 3.2444903,1.425516 0.2994312,0.212121 0.4001745,0.557447 0.4438299,0.769567"
     style="fill:#ffc832;stroke-width:0.559684;fill-opacity:1"
     id="path870" />
  <path
     d="m 15.182714,8.4665002 c 0,0.3083861 -0.251298,0.5596845 -0.559684,0.5596845 -0.308386,0 -0.559685,-0.2512984 -0.559685,-0.5596845 0,-0.3083863 0.251299,-0.5596845 0.559685,-0.5596845 0.308386,0 0.559684,0.2512982 0.559684,0.5596845"
     style="fill:#ffc832;stroke-width:0.559684;fill-opacity:1"
     id="path872" />
  <path
     d="M 14.284421,8.5896308 8.7357087,1.9629661 9.2713266,1.6064472 14.837389,8.2504619 m -0.552968,0.3386092"
     style="fill:#ffc832;stroke-width:0.559684;fill-opacity:1"
     id="path874" />
  <path
     d="m 4.5487087,11.824607 c 0,0.308386 -0.2512993,0.559685 -0.5596843,0.559685 -0.3083871,0 -0.5596842,-0.251299 -0.5596842,-0.559685 0,-0.308386 0.2512971,-0.559684 0.5596842,-0.559684 0.308385,0 0.5596843,0.251298 0.5596843,0.559684"
     style="fill:#ffc832;stroke-width:0.559684;fill-opacity:1"
     id="path876" />
  <path
     d="m 8.4665004,13.503661 c 0,0.308385 -0.2512984,0.559685 -0.5596845,0.559685 -0.3083863,0 -0.5596847,-0.2513 -0.5596847,-0.559685 0,-0.308387 0.2512984,-0.559684 0.5596847,-0.559684 0.3083861,0 0.5596845,0.251297 0.5596845,0.559684"
     style="fill:#ffc832;stroke-width:0.559684;fill-opacity:1"
     id="path878" />
  <path
     d="m 7.3471312,15.182714 c 0,0.308387 -0.2512982,0.559684 -0.5596845,0.559684 -0.308386,0 -0.5596844,-0.251297 -0.5596844,-0.559684 0,-0.308387 0.2512984,-0.559684 0.5596844,-0.559684 0.3083863,0 0.5596845,0.251297 0.5596845,0.559684"
     style="fill:#ffc832;stroke-width:0.559684;fill-opacity:1"
     id="path880" />
  <path
     d="m 9.5858693,15.182714 c 0,0.308387 -0.2512984,0.559684 -0.5596845,0.559684 -0.3083861,0 -0.5596844,-0.251297 -0.5596844,-0.559684 0,-0.308387 0.2512983,-0.559684 0.5596844,-0.559684 0.3083861,0 0.5596845,0.251297 0.5596845,0.559684"
     style="fill:#ffc832;stroke-width:0.559684;fill-opacity:1"
     id="path882" />
  <path
     d="m 6.2277623,10.145554 c 0,0.308386 -0.2512984,0.559684 -0.5596851,0.559684 -0.308385,0 -0.5596843,-0.251298 -0.5596843,-0.559684 0,-0.3083865 0.2512993,-0.5596849 0.5596843,-0.5596849 0.3083867,0 0.5596851,0.2512984 0.5596851,0.5596849"
     style="fill:#ffc832;stroke-width:0.559684;fill-opacity:1"
     id="path884" />
  <path
     d="m 7.9180094,13.831635 -4.0991296,-1.690246 0.345326,-0.6386 4.0666674,1.801624 m -0.3128638,0.528902"
     style="fill:#ffc832;stroke-width:0.559684;fill-opacity:1"
     id="path886" />
  <path
     d="M 6.9861349,15.429535 8.280685,13.562427 7.7473057,13.357023 6.5076046,15.073017 m 0.4785303,0.356518"
     style="fill:#ffc832;stroke-width:0.559684;fill-opacity:1"
     id="path888" />
  <path
     d="m 6.7085313,15.50845 2.4989913,0.02183 -0.043655,-0.502596 -2.4486198,0.0023 m -0.00671,0.47853"
     style="fill:#ffc832;stroke-width:0.559684;fill-opacity:1"
     id="path890" />
  <path
     d="M 4.109356,12.126277 5.9938141,10.13436 5.4167801,9.9200009 3.6308263,11.771997 m 0.4785297,0.35428"
     style="fill:#ffc832;stroke-width:0.559684;fill-opacity:1"
     id="path892" />
  <path
     d="M 5.8471762,9.9048892 2.2769484,9.3580775 2.0625901,9.9351124 5.4928958,10.38342 M 5.8471762,9.9048892"
     style="fill:#ffc832;stroke-width:0.559684;fill-opacity:1"
     id="path894" />
  <path
     d="M 2.0368438,9.3670326 8.8582795,1.4441386 9.2147984,1.9797568 2.376014,9.9222396 M 2.0374043,9.3670326"
     style="fill:#ffc832;stroke-width:0.559684;fill-opacity:1"
     id="path896" />
  <path
     d="m 9.5858693,1.750286 c 0,0.3083863 -0.2512984,0.5596847 -0.5596845,0.5596847 -0.3083861,0 -0.5596844,-0.2512984 -0.5596844,-0.5596847 0,-0.3083861 0.2512983,-0.5596845 0.5596844,-0.5596845 0.3083861,0 0.5596845,0.2512984 0.5596845,0.5596845"
     style="fill:#ffc832;stroke-width:0.559684;fill-opacity:1"
     id="path898" />
  <path
     d="m 2.8696559,9.5858691 c 0,0.3083863 -0.2512992,0.5596849 -0.5596842,0.5596849 -0.3083872,0 -0.5596864,-0.2512986 -0.5596864,-0.5596849 0,-0.308386 0.2512992,-0.5596844 0.5596864,-0.5596844 0.308385,0 0.5596842,0.2512984 0.5596842,0.5596844"
     style="fill:#ffc832;stroke-width:0.559684;fill-opacity:1"
     id="path900" />
</svg>
