<?xml version="1.0" encoding="UTF-8" standalone="no"?>
<svg
   xmlns:dc="http://purl.org/dc/elements/1.1/"
   xmlns:cc="http://creativecommons.org/ns#"
   xmlns:rdf="http://www.w3.org/1999/02/22-rdf-syntax-ns#"
   xmlns:svg="http://www.w3.org/2000/svg"
   xmlns="http://www.w3.org/2000/svg"
   xmlns:sodipodi="http://sodipodi.sourceforge.net/DTD/sodipodi-0.dtd"
   xmlns:inkscape="http://www.inkscape.org/namespaces/inkscape"
   width="64"
   height="64"
   version="1.1"
   viewBox="0 0 16.933 16.933"
   id="svg12"
   sodipodi:docname="jockey.svg"
   inkscape:version="1.0.1 (3bc2e813f5, 2020-09-07)">
  <metadata
     id="metadata18">
    <rdf:RDF>
      <cc:Work
         rdf:about="">
        <dc:format>image/svg+xml</dc:format>
        <dc:type
           rdf:resource="http://purl.org/dc/dcmitype/StillImage" />
        <dc:title></dc:title>
      </cc:Work>
    </rdf:RDF>
  </metadata>
  <defs
     id="defs16" />
  <sodipodi:namedview
     pagecolor="#ffffff"
     bordercolor="#666666"
     borderopacity="1"
     objecttolerance="10"
     gridtolerance="10"
     guidetolerance="10"
     inkscape:pageopacity="0"
     inkscape:pageshadow="2"
     inkscape:window-width="1920"
     inkscape:window-height="941"
     id="namedview14"
     showgrid="false"
     inkscape:zoom="4.3862718"
     inkscape:cx="22.655113"
     inkscape:cy="53.708397"
     inkscape:window-x="0"
     inkscape:window-y="37"
     inkscape:window-maximized="1"
     inkscape:current-layer="svg12" />
  <path
     id="path857"
     style="fill:#0a0a0a;fill-opacity:1;stroke-width:2.79275;stroke-linecap:round"
     d="M 38.033203 2.6132812 L 38 2.5800781 A 29.999995 29.999995 0 0 0 33.914062 2.0371094 L 33.939453 2.0625 A 29.999999 29.999999 0 0 1 34.300781 2.0878906 A 29.999999 29.999999 0 0 1 34.759766 2.1269531 A 29.999999 29.999999 0 0 1 35.21875 2.1738281 A 29.999999 29.999999 0 0 1 35.675781 2.2265625 A 29.999999 29.999999 0 0 1 36.132812 2.2851562 A 29.999999 29.999999 0 0 1 36.587891 2.3535156 A 29.999999 29.999999 0 0 1 37.042969 2.4277344 A 29.999999 29.999999 0 0 1 37.496094 2.5078125 A 29.999999 29.999999 0 0 1 37.947266 2.5957031 A 29.999999 29.999999 0 0 1 38.033203 2.6132812 z "
     transform="scale(0.26457812)" />
  <path
     id="path928"
     style="fill:#0a0a0a;fill-opacity:1;stroke-width:2.79275;stroke-linecap:round"
     d="M 59.878906 20.923828 L 59.931641 20.976562 A 29.999995 29.999995 0 0 0 43.019531 4.0664062 L 43.072266 4.1191406 A 29.999999 29.999999 0 0 1 43.234375 4.1835938 A 29.999999 29.999999 0 0 1 43.660156 4.359375 A 29.999999 29.999999 0 0 1 44.082031 4.5410156 A 29.999999 29.999999 0 0 1 44.501953 4.7285156 A 29.999999 29.999999 0 0 1 44.919922 4.9238281 A 29.999999 29.999999 0 0 1 45.333984 5.1269531 A 29.999999 29.999999 0 0 1 45.744141 5.3339844 A 29.999999 29.999999 0 0 1 46.152344 5.5488281 A 29.999999 29.999999 0 0 1 46.556641 5.7675781 A 29.999999 29.999999 0 0 1 46.958984 5.9941406 A 29.999999 29.999999 0 0 1 47.355469 6.2285156 A 29.999999 29.999999 0 0 1 47.75 6.4667969 A 29.999999 29.999999 0 0 1 48.138672 6.7109375 A 29.999999 29.999999 0 0 1 48.525391 6.9628906 A 29.999999 29.999999 0 0 1 48.908203 7.21875 A 29.999999 29.999999 0 0 1 49.287109 7.4804688 A 29.999999 29.999999 0 0 1 49.662109 7.75 A 29.999999 29.999999 0 0 1 50.03125 8.0234375 A 29.999999 29.999999 0 0 1 50.396484 8.3027344 A 29.999999 29.999999 0 0 1 50.759766 8.5878906 A 29.999999 29.999999 0 0 1 51.115234 8.8789062 A 29.999999 29.999999 0 0 1 51.46875 9.1757812 A 29.999999 29.999999 0 0 1 51.816406 9.4765625 A 29.999999 29.999999 0 0 1 52.160156 9.7832031 A 29.999999 29.999999 0 0 1 52.5 10.095703 A 29.999999 29.999999 0 0 1 52.832031 10.414062 A 29.999999 29.999999 0 0 1 53.162109 10.736328 A 29.999999 29.999999 0 0 1 53.486328 11.0625 A 29.999999 29.999999 0 0 1 53.804688 11.394531 A 29.999999 29.999999 0 0 1 54.119141 11.732422 A 29.999999 29.999999 0 0 1 54.427734 12.074219 A 29.999999 29.999999 0 0 1 54.730469 12.421875 A 29.999999 29.999999 0 0 1 55.027344 12.771484 A 29.999999 29.999999 0 0 1 55.320312 13.128906 A 29.999999 29.999999 0 0 1 55.607422 13.488281 A 29.999999 29.999999 0 0 1 55.888672 13.853516 A 29.999999 29.999999 0 0 1 56.164062 14.222656 A 29.999999 29.999999 0 0 1 56.435547 14.595703 A 29.999999 29.999999 0 0 1 56.699219 14.972656 A 29.999999 29.999999 0 0 1 56.957031 15.353516 A 29.999999 29.999999 0 0 1 57.210938 15.738281 A 29.999999 29.999999 0 0 1 57.457031 16.126953 A 29.999999 29.999999 0 0 1 57.697266 16.519531 A 29.999999 29.999999 0 0 1 57.931641 16.916016 A 29.999999 29.999999 0 0 1 58.160156 17.316406 A 29.999999 29.999999 0 0 1 58.382812 17.71875 A 29.999999 29.999999 0 0 1 58.599609 18.126953 A 29.999999 29.999999 0 0 1 58.808594 18.537109 A 29.999999 29.999999 0 0 1 59.011719 18.949219 A 29.999999 29.999999 0 0 1 59.208984 19.365234 A 29.999999 29.999999 0 0 1 59.400391 19.785156 A 29.999999 29.999999 0 0 1 59.583984 20.207031 A 29.999999 29.999999 0 0 1 59.761719 20.632812 A 29.999999 29.999999 0 0 1 59.878906 20.923828 z "
     transform="scale(0.26457812)" />
  <path
     id="path926"
     style="fill:#23afc8;fill-opacity:1;stroke-width:2.79275;stroke-linecap:round"
     d="M 59.878906 20.923828 A 29.999999 29.999999 0 0 0 59.761719 20.632812 A 29.999999 29.999999 0 0 0 59.583984 20.207031 A 29.999999 29.999999 0 0 0 59.400391 19.785156 A 29.999999 29.999999 0 0 0 59.208984 19.365234 A 29.999999 29.999999 0 0 0 59.011719 18.949219 A 29.999999 29.999999 0 0 0 58.808594 18.537109 A 29.999999 29.999999 0 0 0 58.599609 18.126953 A 29.999999 29.999999 0 0 0 58.382812 17.71875 A 29.999999 29.999999 0 0 0 58.160156 17.316406 A 29.999999 29.999999 0 0 0 57.931641 16.916016 A 29.999999 29.999999 0 0 0 57.697266 16.519531 A 29.999999 29.999999 0 0 0 57.457031 16.126953 A 29.999999 29.999999 0 0 0 57.210938 15.738281 A 29.999999 29.999999 0 0 0 56.957031 15.353516 A 29.999999 29.999999 0 0 0 56.699219 14.972656 A 29.999999 29.999999 0 0 0 56.435547 14.595703 A 29.999999 29.999999 0 0 0 56.164062 14.222656 A 29.999999 29.999999 0 0 0 55.888672 13.853516 A 29.999999 29.999999 0 0 0 55.607422 13.488281 A 29.999999 29.999999 0 0 0 55.320312 13.128906 A 29.999999 29.999999 0 0 0 55.027344 12.771484 A 29.999999 29.999999 0 0 0 54.730469 12.421875 A 29.999999 29.999999 0 0 0 54.427734 12.074219 A 29.999999 29.999999 0 0 0 54.119141 11.732422 A 29.999999 29.999999 0 0 0 53.804688 11.394531 A 29.999999 29.999999 0 0 0 53.486328 11.0625 A 29.999999 29.999999 0 0 0 53.162109 10.736328 A 29.999999 29.999999 0 0 0 52.832031 10.414062 A 29.999999 29.999999 0 0 0 52.5 10.095703 A 29.999999 29.999999 0 0 0 52.160156 9.7832031 A 29.999999 29.999999 0 0 0 51.816406 9.4765625 A 29.999999 29.999999 0 0 0 51.46875 9.1757812 A 29.999999 29.999999 0 0 0 51.115234 8.8789062 A 29.999999 29.999999 0 0 0 50.759766 8.5878906 A 29.999999 29.999999 0 0 0 50.396484 8.3027344 A 29.999999 29.999999 0 0 0 50.03125 8.0234375 A 29.999999 29.999999 0 0 0 49.662109 7.75 A 29.999999 29.999999 0 0 0 49.287109 7.4804688 A 29.999999 29.999999 0 0 0 48.908203 7.21875 A 29.999999 29.999999 0 0 0 48.525391 6.9628906 A 29.999999 29.999999 0 0 0 48.138672 6.7109375 A 29.999999 29.999999 0 0 0 47.75 6.4667969 A 29.999999 29.999999 0 0 0 47.355469 6.2285156 A 29.999999 29.999999 0 0 0 46.958984 5.9941406 A 29.999999 29.999999 0 0 0 46.556641 5.7675781 A 29.999999 29.999999 0 0 0 46.152344 5.5488281 A 29.999999 29.999999 0 0 0 45.744141 5.3339844 A 29.999999 29.999999 0 0 0 45.333984 5.1269531 A 29.999999 29.999999 0 0 0 44.919922 4.9238281 A 29.999999 29.999999 0 0 0 44.501953 4.7285156 A 29.999999 29.999999 0 0 0 44.082031 4.5410156 A 29.999999 29.999999 0 0 0 43.660156 4.359375 A 29.999999 29.999999 0 0 0 43.234375 4.1835938 A 29.999999 29.999999 0 0 0 43.072266 4.1191406 L 59.878906 20.923828 z "
     transform="scale(0.26457812)" />
  <path
     id="path924"
     style="fill:#0a0a0a;fill-opacity:1;stroke-width:2.79275;stroke-linecap:round"
     d="M 61.935547 30.056641 L 61.962891 30.083984 A 29.999995 29.999995 0 0 0 61.419922 26 L 61.386719 25.966797 A 29.999999 29.999999 0 0 1 61.464844 26.361328 A 29.999999 29.999999 0 0 1 61.548828 26.814453 A 29.999999 29.999999 0 0 1 61.625 27.269531 A 29.999999 29.999999 0 0 1 61.693359 27.724609 A 29.999999 29.999999 0 0 1 61.755859 28.181641 A 29.999999 29.999999 0 0 1 61.810547 28.638672 A 29.999999 29.999999 0 0 1 61.859375 29.095703 A 29.999999 29.999999 0 0 1 61.900391 29.554688 A 29.999999 29.999999 0 0 1 61.933594 30.013672 A 29.999999 29.999999 0 0 1 61.935547 30.056641 z "
     transform="scale(0.26457812)" />
  <path
     id="path922"
     style="fill:#0a0a0a;fill-opacity:1;stroke-width:2.79275;stroke-linecap:round"
     d="M 61.935547 30.056641 A 29.999999 29.999999 0 0 0 61.933594 30.013672 A 29.999999 29.999999 0 0 0 61.900391 29.554688 A 29.999999 29.999999 0 0 0 61.859375 29.095703 A 29.999999 29.999999 0 0 0 61.810547 28.638672 A 29.999999 29.999999 0 0 0 61.755859 28.181641 A 29.999999 29.999999 0 0 0 61.693359 27.724609 A 29.999999 29.999999 0 0 0 61.625 27.269531 A 29.999999 29.999999 0 0 0 61.548828 26.814453 A 29.999999 29.999999 0 0 0 61.464844 26.361328 A 29.999999 29.999999 0 0 0 61.386719 25.966797 L 38.033203 2.6132812 A 29.999999 29.999999 0 0 0 37.947266 2.5957031 A 29.999999 29.999999 0 0 0 37.496094 2.5078125 A 29.999999 29.999999 0 0 0 37.042969 2.4277344 A 29.999999 29.999999 0 0 0 36.587891 2.3535156 A 29.999999 29.999999 0 0 0 36.132812 2.2851562 A 29.999999 29.999999 0 0 0 35.675781 2.2265625 A 29.999999 29.999999 0 0 0 35.21875 2.1738281 A 29.999999 29.999999 0 0 0 34.759766 2.1269531 A 29.999999 29.999999 0 0 0 34.300781 2.0878906 A 29.999999 29.999999 0 0 0 33.939453 2.0625 L 61.935547 30.056641 z "
     transform="scale(0.26457812)" />
  <path
     id="path920"
     style="fill:#0a0a0a;fill-opacity:1;stroke-width:2.79275;stroke-linecap:round"
     d="M 61.609375 36.808594 L 61.625 36.824219 A 29.999995 29.999995 0 0 0 61.976562 33.634766 L 61.955078 33.613281 A 29.999999 29.999999 0 0 1 61.943359 33.841797 A 29.999999 29.999999 0 0 1 61.912109 34.300781 A 29.999999 29.999999 0 0 1 61.873047 34.759766 A 29.999999 29.999999 0 0 1 61.826172 35.21875 A 29.999999 29.999999 0 0 1 61.773438 35.675781 A 29.999999 29.999999 0 0 1 61.714844 36.132812 A 29.999999 29.999999 0 0 1 61.646484 36.587891 A 29.999999 29.999999 0 0 1 61.609375 36.808594 z "
     transform="scale(0.26457812)" />
  <path
     id="path918"
     style="fill:#0a0a0a;fill-opacity:1;stroke-width:2.79275;stroke-linecap:round"
     d="M 60.134766 42.410156 L 60.144531 42.419922 A 29.999995 29.999995 0 0 0 61 39.734375 L 60.988281 39.722656 A 29.999999 29.999999 0 0 1 60.984375 39.742188 A 29.999999 29.999999 0 0 1 60.861328 40.185547 A 29.999999 29.999999 0 0 1 60.732422 40.626953 A 29.999999 29.999999 0 0 1 60.597656 41.068359 A 29.999999 29.999999 0 0 1 60.455078 41.505859 A 29.999999 29.999999 0 0 1 60.304688 41.941406 A 29.999999 29.999999 0 0 1 60.148438 42.375 A 29.999999 29.999999 0 0 1 60.134766 42.410156 z "
     transform="scale(0.26457812)" />
  <path
     id="path916"
     style="fill:#0a0a0a;fill-opacity:1;stroke-width:2.79275;stroke-linecap:round"
     d="M 57.857422 47.208984 L 57.863281 47.214844 A 29.999995 29.999995 0 0 0 59.095703 44.904297 L 59.087891 44.896484 A 29.999999 29.999999 0 0 1 59.076172 44.919922 A 29.999999 29.999999 0 0 1 58.873047 45.333984 A 29.999999 29.999999 0 0 1 58.666016 45.744141 A 29.999999 29.999999 0 0 1 58.451172 46.152344 A 29.999999 29.999999 0 0 1 58.232422 46.556641 A 29.999999 29.999999 0 0 1 58.005859 46.958984 A 29.999999 29.999999 0 0 1 57.857422 47.208984 z "
     transform="scale(0.26457812)" />
  <path
     id="path914"
     style="fill:#0a0a0a;fill-opacity:1;stroke-width:2.79275;stroke-linecap:round"
     d="M 56.470703 49.355469 A 29.999999 29.999999 0 0 1 56.25 49.662109 A 29.999999 29.999999 0 0 1 55.976562 50.03125 A 29.999999 29.999999 0 0 1 55.697266 50.396484 A 29.999999 29.999999 0 0 1 55.412109 50.759766 A 29.999999 29.999999 0 0 1 55.121094 51.115234 A 29.999999 29.999999 0 0 1 54.824219 51.46875 A 29.999999 29.999999 0 0 1 54.523438 51.816406 A 29.999995 29.999995 0 0 0 56.474609 49.359375 L 56.470703 49.355469 z "
     transform="scale(0.26457812)" />
  <path
     id="path912"
     style="fill:#0a0a0a;fill-opacity:1;stroke-width:2.79275;stroke-linecap:round"
     d="M 14.644531 7.53125 L 14.638672 7.5253906 A 29.999995 29.999995 0 0 0 11.732422 9.8808594 A 29.999999 29.999999 0 0 1 12.074219 9.5722656 A 29.999999 29.999999 0 0 1 12.421875 9.2695312 A 29.999999 29.999999 0 0 1 12.771484 8.9726562 A 29.999999 29.999999 0 0 1 13.128906 8.6796875 A 29.999999 29.999999 0 0 1 13.488281 8.3925781 A 29.999999 29.999999 0 0 1 13.853516 8.1113281 A 29.999999 29.999999 0 0 1 14.222656 7.8359375 A 29.999999 29.999999 0 0 1 14.595703 7.5644531 A 29.999999 29.999999 0 0 1 14.644531 7.53125 z "
     transform="scale(0.26457812)" />
  <path
     id="path910"
     style="fill:#0a0a0a;fill-opacity:1;stroke-width:2.79275;stroke-linecap:round"
     d="M 14.644531 7.53125 A 29.999999 29.999999 0 0 0 14.595703 7.5644531 A 29.999999 29.999999 0 0 0 14.222656 7.8359375 A 29.999999 29.999999 0 0 0 13.853516 8.1113281 A 29.999999 29.999999 0 0 0 13.488281 8.3925781 A 29.999999 29.999999 0 0 0 13.128906 8.6796875 A 29.999999 29.999999 0 0 0 12.771484 8.9726562 A 29.999999 29.999999 0 0 0 12.421875 9.2695312 A 29.999999 29.999999 0 0 0 12.074219 9.5722656 A 29.999999 29.999999 0 0 0 11.732422 9.8808594 A 29.999999 29.999999 0 0 0 11.394531 10.195312 A 29.999995 29.999995 0 0 0 11.0625 10.513672 A 29.999999 29.999999 0 0 0 10.736328 10.837891 A 29.999999 29.999999 0 0 0 10.414062 11.167969 A 29.999995 29.999995 0 0 0 9.5175781 12.138672 A 29.999995 29.999995 0 0 0 9.2148438 12.486328 A 29.999995 29.999995 0 0 0 9.1757812 12.53125 A 29.999995 29.999995 0 0 0 2.0234375 31.976562 A 29.999995 29.999995 0 0 0 32.023438 61.976562 A 29.999995 29.999995 0 0 0 52.183594 54.193359 A 29.999995 29.999995 0 0 0 52.855469 53.564453 A 29.999995 29.999995 0 0 0 53.142578 53.28125 A 29.999995 29.999995 0 0 0 53.34375 53.082031 A 29.999999 29.999999 0 0 0 53.585938 52.832031 A 29.999999 29.999999 0 0 0 53.896484 52.509766 A 29.999995 29.999995 0 0 0 54.246094 52.128906 A 29.999999 29.999999 0 0 0 54.523438 51.816406 A 29.999999 29.999999 0 0 0 54.824219 51.46875 A 29.999999 29.999999 0 0 0 55.121094 51.115234 A 29.999999 29.999999 0 0 0 55.412109 50.759766 A 29.999999 29.999999 0 0 0 55.697266 50.396484 A 29.999999 29.999999 0 0 0 55.976562 50.03125 A 29.999999 29.999999 0 0 0 56.25 49.662109 A 29.999999 29.999999 0 0 0 56.470703 49.355469 L 14.644531 7.53125 z "
     transform="scale(0.26457812)" />
  <path
     id="path908"
     style="fill:#0a0a0a;fill-opacity:1;stroke-width:2.79275;stroke-linecap:round"
     d="M 19.105469 4.9140625 L 19.095703 4.9042969 A 29.999995 29.999995 0 0 0 16.785156 6.1347656 L 16.792969 6.1425781 A 29.999999 29.999999 0 0 1 16.916016 6.0683594 A 29.999999 29.999999 0 0 1 17.316406 5.8398438 A 29.999999 29.999999 0 0 1 17.71875 5.6171875 A 29.999999 29.999999 0 0 1 18.126953 5.4003906 A 29.999999 29.999999 0 0 1 18.537109 5.1914062 A 29.999999 29.999999 0 0 1 18.949219 4.9882812 A 29.999999 29.999999 0 0 1 19.105469 4.9140625 z "
     transform="scale(0.26457812)" />
  <path
     id="path906"
     style="fill:#23afc8;fill-opacity:1;stroke-width:2.79275;stroke-linecap:round"
     d="M 19.105469 4.9140625 A 29.999999 29.999999 0 0 0 18.949219 4.9882812 A 29.999999 29.999999 0 0 0 18.537109 5.1914062 A 29.999999 29.999999 0 0 0 18.126953 5.4003906 A 29.999999 29.999999 0 0 0 17.71875 5.6171875 A 29.999999 29.999999 0 0 0 17.316406 5.8398438 A 29.999999 29.999999 0 0 0 16.916016 6.0683594 A 29.999999 29.999999 0 0 0 16.792969 6.1425781 L 57.857422 47.208984 A 29.999999 29.999999 0 0 0 58.005859 46.958984 A 29.999999 29.999999 0 0 0 58.232422 46.556641 A 29.999999 29.999999 0 0 0 58.451172 46.152344 A 29.999999 29.999999 0 0 0 58.666016 45.744141 A 29.999999 29.999999 0 0 0 58.873047 45.333984 A 29.999999 29.999999 0 0 0 59.076172 44.919922 A 29.999999 29.999999 0 0 0 59.087891 44.896484 L 19.105469 4.9140625 z "
     transform="scale(0.26457812)" />
  <path
     id="path904"
     style="fill:#0a0a0a;fill-opacity:1;stroke-width:2.79275;stroke-linecap:round"
     d="M 24.277344 3.0117188 L 24.263672 2.9980469 A 29.999995 29.999995 0 0 0 21.580078 3.8535156 L 21.591797 3.8652344 A 29.999999 29.999999 0 0 1 21.921875 3.7441406 A 29.999999 29.999999 0 0 1 22.357422 3.5917969 A 29.999999 29.999999 0 0 1 22.794922 3.4472656 A 29.999999 29.999999 0 0 1 23.234375 3.3085938 A 29.999999 29.999999 0 0 1 23.675781 3.1777344 A 29.999999 29.999999 0 0 1 24.119141 3.0546875 A 29.999999 29.999999 0 0 1 24.277344 3.0117188 z "
     transform="scale(0.26457812)" />
  <path
     id="path902"
     style="fill:#0a0a0a;fill-opacity:1;stroke-width:2.79275;stroke-linecap:round"
     d="M 24.277344 3.0117188 A 29.999999 29.999999 0 0 0 24.119141 3.0546875 A 29.999999 29.999999 0 0 0 23.675781 3.1777344 A 29.999999 29.999999 0 0 0 23.234375 3.3085938 A 29.999999 29.999999 0 0 0 22.794922 3.4472656 A 29.999999 29.999999 0 0 0 22.357422 3.5917969 A 29.999999 29.999999 0 0 0 21.921875 3.7441406 A 29.999999 29.999999 0 0 0 21.591797 3.8652344 L 60.134766 42.410156 A 29.999999 29.999999 0 0 0 60.148438 42.375 A 29.999999 29.999999 0 0 0 60.304688 41.941406 A 29.999999 29.999999 0 0 0 60.455078 41.505859 A 29.999999 29.999999 0 0 0 60.597656 41.068359 A 29.999999 29.999999 0 0 0 60.732422 40.626953 A 29.999999 29.999999 0 0 0 60.861328 40.185547 A 29.999999 29.999999 0 0 0 60.984375 39.742188 A 29.999999 29.999999 0 0 0 60.988281 39.722656 L 24.277344 3.0117188 z "
     transform="scale(0.26457812)" />
  <path
     id="path900"
     style="fill:#0a0a0a;fill-opacity:1;stroke-width:2.79275;stroke-linecap:round"
     d="M 30.388672 2.0449219 L 30.367188 2.0234375 A 29.999995 29.999995 0 0 0 27.173828 2.3710938 L 27.191406 2.3886719 A 29.999999 29.999999 0 0 1 27.269531 2.375 A 29.999999 29.999999 0 0 1 27.724609 2.3066406 A 29.999999 29.999999 0 0 1 28.181641 2.2441406 A 29.999999 29.999999 0 0 1 28.638672 2.1894531 A 29.999999 29.999999 0 0 1 29.095703 2.140625 A 29.999999 29.999999 0 0 1 29.554688 2.0996094 A 29.999999 29.999999 0 0 1 30.013672 2.0664062 A 29.999999 29.999999 0 0 1 30.388672 2.0449219 z "
     transform="scale(0.26457812)" />
  <path
     id="path898"
     style="fill:#23afc8;fill-opacity:1;stroke-width:2.79275;stroke-linecap:round"
     d="M 30.388672 2.0449219 A 29.999999 29.999999 0 0 0 30.013672 2.0664062 A 29.999999 29.999999 0 0 0 29.554688 2.0996094 A 29.999999 29.999999 0 0 0 29.095703 2.140625 A 29.999999 29.999999 0 0 0 28.638672 2.1894531 A 29.999999 29.999999 0 0 0 28.181641 2.2441406 A 29.999999 29.999999 0 0 0 27.724609 2.3066406 A 29.999999 29.999999 0 0 0 27.269531 2.375 A 29.999999 29.999999 0 0 0 27.191406 2.3886719 L 61.609375 36.808594 A 29.999999 29.999999 0 0 0 61.646484 36.587891 A 29.999999 29.999999 0 0 0 61.714844 36.132812 A 29.999999 29.999999 0 0 0 61.773438 35.675781 A 29.999999 29.999999 0 0 0 61.826172 35.21875 A 29.999999 29.999999 0 0 0 61.873047 34.759766 A 29.999999 29.999999 0 0 0 61.912109 34.300781 A 29.999999 29.999999 0 0 0 61.943359 33.841797 A 29.999999 29.999999 0 0 0 61.955078 33.613281 L 30.388672 2.0449219 z "
     transform="scale(0.26457812)" />
</svg>
