<?xml version="1.0" encoding="UTF-8" standalone="no"?>
<svg
   xmlns:dc="http://purl.org/dc/elements/1.1/"
   xmlns:cc="http://creativecommons.org/ns#"
   xmlns:rdf="http://www.w3.org/1999/02/22-rdf-syntax-ns#"
   xmlns:svg="http://www.w3.org/2000/svg"
   xmlns="http://www.w3.org/2000/svg"
   xmlns:sodipodi="http://sodipodi.sourceforge.net/DTD/sodipodi-0.dtd"
   xmlns:inkscape="http://www.inkscape.org/namespaces/inkscape"
   width="64"
   height="64"
   version="1.1"
   id="svg59"
   sodipodi:docname="kate.svg"
   inkscape:version="1.0.1 (3bc2e813f5, 2020-09-07)">
  <metadata
     id="metadata63">
    <rdf:RDF>
      <cc:Work
         rdf:about="">
        <dc:format>image/svg+xml</dc:format>
        <dc:type
           rdf:resource="http://purl.org/dc/dcmitype/StillImage" />
        <dc:title></dc:title>
      </cc:Work>
    </rdf:RDF>
  </metadata>
  <sodipodi:namedview
     pagecolor="#ffffff"
     bordercolor="#666666"
     borderopacity="1"
     objecttolerance="10"
     gridtolerance="10"
     guidetolerance="10"
     inkscape:pageopacity="0"
     inkscape:pageshadow="2"
     inkscape:window-width="1920"
     inkscape:window-height="978"
     id="namedview61"
     showgrid="false"
     inkscape:zoom="6.4921875"
     inkscape:cx="38.298122"
     inkscape:cy="17.463178"
     inkscape:window-x="0"
     inkscape:window-y="0"
     inkscape:window-maximized="1"
     inkscape:current-layer="svg59" />
  <defs
     id="defs37">
    <linearGradient
       id="c-3"
       x1="61.163"
       x2="64.928"
       y1="105.11"
       y2="109.04"
       gradientUnits="userSpaceOnUse">
      <stop
         stop-color="#e6e6e6"
         offset="0"
         id="stop2" />
      <stop
         stop-color="#bfbfbf"
         offset="1"
         id="stop4" />
    </linearGradient>
    <linearGradient
       id="g"
       x1="77.401"
       x2="68.67"
       y1="106.37"
       y2="120.36"
       gradientUnits="userSpaceOnUse">
      <stop
         stop-color="#fff"
         offset="0"
         id="stop7" />
      <stop
         stop-color="#bfbfbf"
         offset="1"
         id="stop9" />
    </linearGradient>
    <linearGradient
       id="h"
       x1="68.229"
       x2="68.164"
       y1="112.73"
       y2="118.55"
       gradientUnits="userSpaceOnUse">
      <stop
         stop-color="#c7c7c7"
         offset="0"
         id="stop12" />
      <stop
         stop-color="#fff"
         offset="1"
         id="stop14" />
    </linearGradient>
    <linearGradient
       id="i"
       x1="63.367"
       x2="71.136"
       y1="106.86"
       y2="104.89"
       gradientUnits="userSpaceOnUse">
      <stop
         stop-color="#fff"
         offset="0"
         id="stop17" />
      <stop
         stop-color="#ccc"
         offset="1"
         id="stop19" />
    </linearGradient>
    <linearGradient
       id="j"
       x1="66.951"
       x2="66.336"
       y1="104.46"
       y2="109.67"
       gradientUnits="userSpaceOnUse">
      <stop
         stop-color="#e5e5e5"
         offset="0"
         id="stop22" />
      <stop
         stop-color="#ccc"
         offset="1"
         id="stop24" />
    </linearGradient>
    <linearGradient
       id="k"
       x1="62.961"
       x2="77.488"
       y1="115.88"
       y2="107.31"
       gradientUnits="userSpaceOnUse">
      <stop
         stop-color="#e6e6e6"
         offset="0"
         id="stop27" />
      <stop
         stop-color="#fff"
         offset="1"
         id="stop29" />
    </linearGradient>
    <linearGradient
       id="linearGradient862"
       x1="7.9373"
       x2="7.9373"
       y1="15.081"
       y2="1.852"
       gradientTransform="matrix(3.7796,0,0,3.7796,72.814465,0)"
       gradientUnits="userSpaceOnUse">
      <stop
         stop-color="#0a72ff"
         offset="0"
         id="stop32" />
      <stop
         stop-color="#28d1ff"
         offset="1"
         id="stop34" />
    </linearGradient>
  </defs>
  <path
     id="path1268"
     style="fill:#0a0a0a;fill-opacity:1;stroke-width:1.40582;stroke-linecap:round"
     d="M 4.500001,4.5000002 V 42.162602 c 0,9.18184 7.067278,16.646055 16.080455,17.286637 v 0.05076 h 1.256955 8.649474 29.013113 v -37.66259 c 0,-9.181841 -7.067266,-16.6460565 -16.080445,-17.2866378 v -0.05076 h -1.25696 -8.64947 z"
     sodipodi:nodetypes="cscccccsccccc" />
  <rect
     style="fill:#0a0a0a;fill-opacity:1;stroke-linecap:round;paint-order:stroke fill markers"
     id="rect1270"
     width="23.079861"
     height="21.081575"
     x="4.5000019"
     y="38.418423" />
  <path
     id="rect1037"
     style="fill:#1a8598;fill-opacity:1;stroke-linecap:round;paint-order:stroke fill markers"
     d="M 46.972656 17.767578 C 41.648693 19.584452 34.780912 21.677732 26.810547 23.884766 C 21.23334 25.429215 18.115916 28.994664 20.470703 33.945312 C 22.830482 38.906521 26.907165 39.021189 31.941406 42.388672 C 35.871674 45.017543 36.833084 46.356044 39.369141 50 C 38.841857 44.965231 36.40857 38.476248 35.269531 35.617188 C 39.666315 38.247257 41.896877 38.836451 48.027344 39.478516 C 40.0723 33.815655 38.563203 32.709486 34.009766 28.828125 C 30.954878 28.982116 31.28979 28.955291 29.488281 29.058594 C 31.859869 32.405311 32.796954 37.318654 28.460938 38.220703 C 24.402248 39.065081 20.48893 35.56291 21.601562 31.810547 C 22.809857 27.735956 28.024946 28.519311 33.496094 27.8125 C 38.967242 27.105566 43.965952 21.739043 46.972656 17.767578 z " />
  <path
     id="rect1033"
     style="fill:#1a8598;fill-opacity:1;stroke-linecap:round;paint-order:stroke fill markers"
     d="M 30.195312 14.007812 C 27.568729 14.094776 24.602919 14.911563 21.722656 16.998047 C 18.732478 19.164271 17.421206 19.756536 15.970703 20.476562 C 17.263176 20.575114 24.995167 19.473615 26.363281 24.015625 C 27.074589 23.794992 29.54344 23.108586 31.107422 22.654297 C 29.87761 20.257551 28.287116 15.708033 36.636719 15.390625 C 35.109611 14.562015 32.821896 13.920849 30.195312 14.007812 z " />
  <path
     id="rect1025"
     style="fill:#51cae1;fill-opacity:1;stroke-linecap:round;paint-order:stroke fill markers"
     d="M 30.195312 14.009766 C 27.568729 14.096729 24.602919 14.911563 21.722656 16.998047 C 18.732478 19.164271 17.421206 19.758489 15.970703 20.478516 C 22.164004 19.100021 23.78445 17.508381 29.332031 18.677734 C 29.362845 17.373505 28.287115 15.709986 36.636719 15.392578 C 35.10961 14.563968 32.821896 13.922802 30.195312 14.009766 z " />
  <path
     id="rect1029"
     style="fill:#23afc8;fill-opacity:1;stroke-linecap:round;paint-order:stroke fill markers"
     d="M 32.703125 14.359375 C 28.375727 14.141329 23.833804 16.582063 27.775391 23.605469 C 29.077849 23.260749 30.133058 22.937316 31.107422 22.654297 C 29.87761 20.25755 28.287116 15.709985 36.636719 15.392578 C 35.564377 14.800211 34.145591 14.432057 32.703125 14.359375 z " />
  <path
     id="rect1041"
     style="fill:#51cae1;fill-opacity:1;stroke-linecap:round;paint-order:stroke fill markers"
     d="M 46.972656 17.771484 C 41.648176 19.588358 34.53984 21.220939 26.644531 23.693359 C 18.765289 26.160841 17.926043 30.875271 21.804688 36.042969 C 14.934927 26.844421 32.726942 23.199384 46.972656 17.771484 z M 21.804688 36.042969 C 21.864407 36.122932 21.911142 36.200442 21.974609 36.28125 L 21.976562 36.28125 C 21.914554 36.201406 21.864458 36.122604 21.804688 36.042969 z " />
  <path
     id="rect1045"
     style="fill:#23afc8;fill-opacity:1;stroke-linecap:round;paint-order:stroke fill markers"
     d="M 34.011719 28.818359 C 30.956831 28.97235 31.291744 28.945525 29.490234 29.048828 C 33.982731 36.538771 40.033282 38.896745 48.029297 39.46875 C 40.074252 33.805888 38.565156 32.69972 34.011719 28.818359 z " />
</svg>
