<?xml version="1.0" encoding="UTF-8" standalone="no"?>
<svg
   xmlns:dc="http://purl.org/dc/elements/1.1/"
   xmlns:cc="http://creativecommons.org/ns#"
   xmlns:rdf="http://www.w3.org/1999/02/22-rdf-syntax-ns#"
   xmlns:svg="http://www.w3.org/2000/svg"
   xmlns="http://www.w3.org/2000/svg"
   xmlns:sodipodi="http://sodipodi.sourceforge.net/DTD/sodipodi-0.dtd"
   xmlns:inkscape="http://www.inkscape.org/namespaces/inkscape"
   width="64"
   height="64"
   version="1.1"
   viewBox="0 0 16.933 16.933"
   id="svg24"
   sodipodi:docname="preferences-system-time.svg"
   inkscape:version="1.0.1 (3bc2e813f5, 2020-09-07)">
  <sodipodi:namedview
     pagecolor="#ffffff"
     bordercolor="#666666"
     borderopacity="1"
     objecttolerance="10"
     gridtolerance="10"
     guidetolerance="10"
     inkscape:pageopacity="0"
     inkscape:pageshadow="2"
     inkscape:window-width="1920"
     inkscape:window-height="978"
     id="namedview26"
     showgrid="false"
     inkscape:zoom="3.2460938"
     inkscape:cx="-2.201714"
     inkscape:cy="-14.105157"
     inkscape:window-x="0"
     inkscape:window-y="0"
     inkscape:window-maximized="1"
     inkscape:current-layer="svg24" />
  <defs
     id="defs10">
    <filter
       id="filter2761"
       x="-.024"
       y="-.024"
       width="1.048"
       height="1.048"
       color-interpolation-filters="sRGB">
      <feGaussianBlur
         stdDeviation="0.14552168"
         id="feGaussianBlur2" />
    </filter>
    <linearGradient
       id="linearGradient1024-6"
       x1="1.3315"
       x2="15.65"
       y1="15.576"
       y2="1.17"
       gradientUnits="userSpaceOnUse"
       gradientTransform="translate(0,-25.157565)">
      <stop
         stop-color="#dddfe1"
         offset="0"
         id="stop5" />
      <stop
         stop-color="#f3f4f6"
         stop-opacity=".99608"
         offset="1"
         id="stop7" />
    </linearGradient>
  </defs>
  <metadata
     id="metadata12">
    <rdf:RDF>
      <cc:Work
         rdf:about="">
        <dc:format>image/svg+xml</dc:format>
        <dc:type
           rdf:resource="http://purl.org/dc/dcmitype/StillImage" />
        <dc:title></dc:title>
      </cc:Work>
    </rdf:RDF>
  </metadata>
  <path
     id="path865"
     style="fill:#0a0a0a;fill-opacity:1;stroke-width:4.04962;stroke-linecap:round"
     d="M 31.855469 2 A 29.999998 29.999998 0 0 0 2 32 A 29.999998 29.999998 0 0 0 32 62 A 29.999998 29.999998 0 0 0 61.392578 38 L 51.078125 38 A 20 20 0 0 1 32 52 A 20 20 0 0 1 12 32 A 20 20 0 0 1 32 12 A 20 20 0 0 1 51.078125 26 L 61.392578 26 A 29.999998 29.999998 0 0 0 32 2 A 29.999998 29.999998 0 0 0 31.855469 2 z "
     transform="scale(0.26457812)" />
  <path
     id="circle869"
     style="fill:#23afc8;fill-opacity:1;stroke-width:1.88982;stroke-linecap:round"
     d="M 32 18 A 14 14 0 0 0 18 32 A 14 14 0 0 0 32 46 A 14 14 0 0 0 46 32 A 14 14 0 0 0 32 18 z M 31.90625 25 A 6.9999997 6.9999997 0 0 1 32 25 A 6.9999997 6.9999997 0 0 1 39 32 A 6.9999997 6.9999997 0 0 1 32 39 A 6.9999997 6.9999997 0 0 1 25 32 A 6.9999997 6.9999997 0 0 1 31.90625 25 z "
     transform="scale(0.26457812)" />
</svg>
