<?xml version="1.0" encoding="UTF-8" standalone="no"?>
<svg
   xmlns:dc="http://purl.org/dc/elements/1.1/"
   xmlns:cc="http://creativecommons.org/ns#"
   xmlns:rdf="http://www.w3.org/1999/02/22-rdf-syntax-ns#"
   xmlns:svg="http://www.w3.org/2000/svg"
   xmlns="http://www.w3.org/2000/svg"
   xmlns:sodipodi="http://sodipodi.sourceforge.net/DTD/sodipodi-0.dtd"
   xmlns:inkscape="http://www.inkscape.org/namespaces/inkscape"
   width="64"
   height="64"
   version="1.1"
   id="svg22"
   sodipodi:docname="preferences-kde-connect.svg"
   inkscape:version="1.0.1 (3bc2e813f5, 2020-09-07)">
  <metadata
     id="metadata28">
    <rdf:RDF>
      <cc:Work
         rdf:about="">
        <dc:format>image/svg+xml</dc:format>
        <dc:type
           rdf:resource="http://purl.org/dc/dcmitype/StillImage" />
        <dc:title></dc:title>
      </cc:Work>
    </rdf:RDF>
  </metadata>
  <defs
     id="defs26" />
  <sodipodi:namedview
     pagecolor="#ffffff"
     bordercolor="#666666"
     borderopacity="1"
     objecttolerance="10"
     gridtolerance="10"
     guidetolerance="10"
     inkscape:pageopacity="0"
     inkscape:pageshadow="2"
     inkscape:window-width="1920"
     inkscape:window-height="978"
     id="namedview24"
     showgrid="false"
     inkscape:zoom="9.1813396"
     inkscape:cx="16.234749"
     inkscape:cy="27.602276"
     inkscape:window-x="0"
     inkscape:window-y="0"
     inkscape:window-maximized="1"
     inkscape:current-layer="svg22"
     inkscape:document-rotation="0" />
  <g
     id="g863"
     transform="translate(-38.238266,-20.52467)">
    <rect
       style="fill:#000000;stroke-width:3.14632;stroke-linecap:round"
       id="rect2486"
       width="35"
       height="55"
       x="52.738266"
       y="25.02467" />
    <rect
       style="fill:#23afc8;fill-opacity:1;stroke-width:1.31215;stroke-linecap:round"
       id="rect2488"
       width="10"
       height="3"
       x="65.238266"
       y="74.363487" />
  </g>
  <g
     id="g890"
     transform="matrix(1.3888889,0,0,1.3888889,90.171792,-15.294331)"
     style="fill:#23afc8;fill-opacity:1">
    <path
       d="m -45.88369,24.0001 c -0.55228,0 -1,0.44772 -1,1 0,0.55228 0.44772,1 1,1 0.55228,0 1,-0.44772 1,-1 0,-0.55228 -0.44772,-1 -1,-1 z"
       id="path8"
       style="fill:#23afc8;fill-opacity:1" />
    <path
       d="m -38.88369,24.0001 -2,2 4,4 -4,4 2,2 6,-6 -2,-2 z"
       id="path10"
       style="fill:#23afc8;fill-opacity:1" />
    <path
       d="m -48.88369,30.0001 c -1.1046,0 -2,0.89544 -2,2 0,1.1046 0.89544,2 2,2 1.10456,0 2,-0.89544 2,-2 0,-1.1046 -0.89544,-2 -2,-2 z"
       id="path12"
       style="fill:#23afc8;fill-opacity:1" />
    <path
       d="m -43.88369,36.0001 c -1.6569,0 -3,1.3431 -3,3 0,1.6569 1.3431,3 3,3 1.6569,0 3,-1.3431 3,-3 0,-1.6569 -1.3431,-3 -3,-3 z"
       id="path14"
       style="fill:#23afc8;fill-opacity:1" />
  </g>
</svg>
