<?xml version="1.0" encoding="UTF-8" standalone="no"?>
<svg
   xmlns:dc="http://purl.org/dc/elements/1.1/"
   xmlns:cc="http://creativecommons.org/ns#"
   xmlns:rdf="http://www.w3.org/1999/02/22-rdf-syntax-ns#"
   xmlns:svg="http://www.w3.org/2000/svg"
   xmlns="http://www.w3.org/2000/svg"
   xmlns:sodipodi="http://sodipodi.sourceforge.net/DTD/sodipodi-0.dtd"
   xmlns:inkscape="http://www.inkscape.org/namespaces/inkscape"
   width="64"
   height="64"
   version="1.1"
   viewBox="0 0 16.933 16.933"
   id="svg37"
   sodipodi:docname="preferences-desktop-user-password.svg"
   inkscape:version="1.0.1 (3bc2e813f5, 2020-09-07)">
  <sodipodi:namedview
     pagecolor="#ffffff"
     bordercolor="#666666"
     borderopacity="1"
     objecttolerance="10"
     gridtolerance="10"
     guidetolerance="10"
     inkscape:pageopacity="0"
     inkscape:pageshadow="2"
     inkscape:window-width="1920"
     inkscape:window-height="978"
     id="namedview39"
     showgrid="true"
     inkscape:snap-bbox="true"
     inkscape:bbox-nodes="true"
     inkscape:snap-bbox-edge-midpoints="true"
     inkscape:zoom="12.984375"
     inkscape:cx="40.627118"
     inkscape:cy="31.282568"
     inkscape:window-x="0"
     inkscape:window-y="0"
     inkscape:window-maximized="1"
     inkscape:current-layer="svg37">
    <inkscape:grid
       type="xygrid"
       id="grid864" />
  </sodipodi:namedview>
  <defs
     id="defs13">
    <filter
       id="filter2761"
       x="-.024"
       y="-.024"
       width="1.048"
       height="1.048"
       color-interpolation-filters="sRGB">
      <feGaussianBlur
         stdDeviation="0.14552168"
         id="feGaussianBlur2" />
    </filter>
    <linearGradient
       id="linearGradient1024-1"
       x1="1.3315"
       x2="15.65"
       y1="15.576"
       y2="1.17"
       gradientTransform="translate(-20.718125,-0.07421)"
       gradientUnits="userSpaceOnUse">
      <stop
         stop-color="#00c8ff"
         offset="0"
         id="stop5" />
      <stop
         stop-color="#14a0ff"
         offset="1"
         id="stop7" />
    </linearGradient>
    <filter
       id="filter951"
       x="-.10129"
       y="-.07175"
       width="1.2026"
       height="1.1435"
       color-interpolation-filters="sRGB">
      <feGaussianBlur
         stdDeviation="15.306655"
         id="feGaussianBlur10" />
    </filter>
  </defs>
  <metadata
     id="metadata15">
    <rdf:RDF>
      <cc:Work
         rdf:about="">
        <dc:format>image/svg+xml</dc:format>
        <dc:type
           rdf:resource="http://purl.org/dc/dcmitype/StillImage" />
        <dc:title></dc:title>
      </cc:Work>
    </rdf:RDF>
  </metadata>
  <path
     id="path866"
     style="fill:#23afc8;stroke-width:0.851113;stroke-linecap:round"
     d="M 8.4282605,0.52916801 A 7.9373433,7.9373433 0 0 0 0.5291564,8.4665116 7.9373433,7.9373433 0 0 0 8.4665,16.403855 7.9373433,7.9373433 0 0 0 16.403844,8.4665116 7.9373433,7.9373433 0 0 0 8.4665,0.52916801 a 7.9373433,7.9373433 0 0 0 -0.038239,0 z M 8.4665,2.3812148 A 6.0852965,6.0852965 0 0 1 14.551797,8.4665116 6.0852965,6.0852965 0 0 1 8.4665,14.551808 6.0852965,6.0852965 0 0 1 2.3812032,8.4665116 6.0852965,6.0852965 0 0 1 8.4665,2.3812148 Z" />
  <circle
     style="fill:#0a0a0a;fill-opacity:1;stroke-width:1.53936;stroke-linecap:round"
     id="path878"
     cx="8.4665003"
     cy="8.4665003"
     r="4.2332501" />
  <path
     id="rect942"
     style="fill:#23afc8;fill-opacity:1;stroke-width:2;stroke-linecap:round"
     d="M 32.015625 26.195312 C 30.01439 26.186884 28.385378 27.801499 28.376953 29.802734 C 28.371284 31.186036 29.152838 32.452822 30.392578 33.066406 L 29.832031 36.978516 C 29.77598 37.374822 30.052905 37.742778 30.449219 37.798828 C 30.482857 37.803742 30.516878 37.804688 30.550781 37.804688 L 33.449219 37.804688 C 33.849467 37.808845 34.17763 37.488153 34.181641 37.087891 C 34.181977 37.050851 34.178968 37.015027 34.173828 36.978516 L 33.615234 33.064453 C 34.839822 32.451613 35.615098 31.203222 35.623047 29.833984 C 35.631362 27.832749 34.01686 26.203737 32.015625 26.195312 z "
     transform="scale(0.26457812)" />
</svg>
