<?xml version="1.0" encoding="UTF-8"?>
<svg width="64" height="64" version="1.1" viewBox="0 0 16.933 16.933" xmlns="http://www.w3.org/2000/svg" xmlns:cc="http://creativecommons.org/ns#" xmlns:dc="http://purl.org/dc/elements/1.1/" xmlns:rdf="http://www.w3.org/1999/02/22-rdf-syntax-ns#" xmlns:xlink="http://www.w3.org/1999/xlink">
 <metadata>
  <rdf:RDF>
   <cc:Work rdf:about="">
    <dc:format>image/svg+xml</dc:format>
    <dc:type rdf:resource="http://purl.org/dc/dcmitype/StillImage"/>
    <dc:title/>
   </cc:Work>
  </rdf:RDF>
 </metadata>
 <defs>
  <linearGradient id="a-6">
   <stop stop-color="#f00" offset="0"/>
   <stop stop-color="#f00" stop-opacity="0" offset="1"/>
  </linearGradient>
  <style type="text/css"/>
  <linearGradient id="linearGradient923" x1="40" x2="40" y1="168" y2="136" gradientTransform="matrix(.20794 0 0 .26458 -12.302 -37.543)" gradientUnits="userSpaceOnUse" xlink:href="#a-6"/>
  <linearGradient id="linearGradient925" x1="40" x2="40" y1="168" y2="136" gradientTransform="matrix(.20794 0 0 .26458 -12.302 -52.413)" gradientUnits="userSpaceOnUse" xlink:href="#a-6"/>
 </defs>
 <g transform="matrix(.014605 0 0 .014605 .98849 1.1906)" fill="#ff0a0a">
  <path d="m96.865 747.24v83.027a83.027 83.027 0 0 0 78.156 82.889l4.8709 0.13838h664.22a83.027 83.027 0 0 0 82.889-78.156l0.13837-4.8709v-83.027h83.027v83.027a166.05 166.05 0 0 1-166.05 166.05h-664.22a166.05 166.05 0 0 1-166.05-166.05v-83.027zm-83.027-581.19a166.05 166.05 0 0 1 166.05-166.05h664.22a166.05 166.05 0 0 1 166.05 166.05v110.7h-83.027v-110.7a83.027 83.027 0 0 0-78.156-82.889l-4.8709-0.13838h-664.22a83.027 83.027 0 0 0-82.889 78.156l-0.13838 4.8709v110.7h-83.027z" p-id="9224"/>
  <path d="m13.838 470.49h996.32v83.027h-996.32z" p-id="9225"/>
 </g>
 <g transform="matrix(.31251 0 0 .29143 2.4334 6.2997)">
  <rect x="-3.9841" y="6.9059" width="46.579" height="1.0583" enable-background="new" fill="#f00"/>
  <rect x="-3.9841" y="-1.5606" width="46.579" height="8.4665" enable-background="new" fill="url(#linearGradient923)" opacity=".4"/>
  <rect transform="scale(1,-1)" x="-3.9841" y="-16.431" width="46.579" height="8.4665" enable-background="new" fill="url(#linearGradient925)" opacity=".4"/>
 </g>
</svg>
