<?xml version="1.0" encoding="UTF-8"?>
<svg width="64" height="64" version="1.1" viewBox="0 0 16.933 16.933" xmlns="http://www.w3.org/2000/svg" xmlns:cc="http://creativecommons.org/ns#" xmlns:dc="http://purl.org/dc/elements/1.1/" xmlns:rdf="http://www.w3.org/1999/02/22-rdf-syntax-ns#" xmlns:xlink="http://www.w3.org/1999/xlink">
 <metadata>
  <rdf:RDF>
   <cc:Work rdf:about="">
    <dc:format>image/svg+xml</dc:format>
    <dc:type rdf:resource="http://purl.org/dc/dcmitype/StillImage"/>
    <dc:title/>
   </cc:Work>
  </rdf:RDF>
 </metadata>
 <defs>
  <style type="text/css"/>
  <linearGradient id="linearGradient996" x1="1.1906" x2="15.742" y1="8.4665" y2="8.4665" gradientUnits="userSpaceOnUse">
   <stop stop-color="#f54381" offset="0"/>
   <stop stop-color="#497cf9" offset="1"/>
  </linearGradient>
 </defs>
 <path d="m6.8131 4.4977h3.3069a0.33069 0.33069 0 1 0 0-0.66138h-3.3069a0.33105 0.33105 0 0 0 0 0.66138m1.6534 2.6459a1.9849 1.9849 0 0 0 0 3.969 1.9849 1.9849 0 0 0 0-3.969m0 3.3073a1.3231 1.3231 0 1 1 7.15e-4 -2.6462 1.3231 1.3231 0 0 1-7.15e-4 2.6462m0-4.63a3.3073 3.3073 0 0 0-3.3073 3.3073c0 1.8266 1.4803 3.3076 3.3073 3.3076 1.827 0 3.3073-1.4806 3.3073-3.3076a3.3069 3.3069 0 0 0-3.3073-3.3073m0 5.9531a2.6461 2.6461 0 1 1 0-5.2921 2.6461 2.6461 0 0 1 0 5.2921m4.9611-3.969a0.33105 0.33105 0 1 0 0 0.66211 0.33105 0.33105 0 0 0 0-0.66211m0-2.6455a0.99243 0.99243 0 1 0 0 1.9834 0.99243 0.99243 0 0 0 0-1.9834m0 1.3228a0.33069 0.33069 0 1 1-0.0011-0.66102 0.33069 0.33069 0 0 1 0.0011 0.66102m0.9917-2.6459h-1.3231c-0.9917 0-0.9917-1.3228-2.3148-1.3228h-4.63c-1.3228 0-1.3228 1.3228-2.3148 1.3228h-1.3231a1.3228 1.3228 0 0 0-1.3228 1.3231v7.9373a1.3224 1.3224 0 0 0 1.3228 1.3228h11.906a1.3228 1.3228 0 0 0 1.3231-1.3228v-7.9373a1.3231 1.3231 0 0 0-1.3231-1.3231m0.66174 6.6145h-2.8762a3.9395 3.9395 0 0 1-0.30486 0.66138h3.181v1.9841a0.66138 0.66138 0 0 1-0.66138 0.66138h-11.906a0.66174 0.66174 0 0 1-0.66138-0.66138v-1.9841h3.1814a3.9239 3.9239 0 0 1-0.30486-0.66138h-2.8765v-5.2914a0.66211 0.66211 0 0 1 0.66138-0.66138h1.3231c1.3228 0 1.3228-1.3228 2.3148-1.3228h4.63c0.99243 0 0.99243 1.3228 2.3148 1.3228h1.3231c0.36525 0 0.66138 0.29649 0.66138 0.66138v5.2914z" fill="url(#linearGradient996)" stroke-width=".014211" p-id="2727"/>
</svg>
