<?xml version="1.0" encoding="UTF-8" standalone="no"?>
<svg
   xmlns:dc="http://purl.org/dc/elements/1.1/"
   xmlns:cc="http://creativecommons.org/ns#"
   xmlns:rdf="http://www.w3.org/1999/02/22-rdf-syntax-ns#"
   xmlns:svg="http://www.w3.org/2000/svg"
   xmlns="http://www.w3.org/2000/svg"
   xmlns:sodipodi="http://sodipodi.sourceforge.net/DTD/sodipodi-0.dtd"
   xmlns:inkscape="http://www.inkscape.org/namespaces/inkscape"
   width="64"
   height="64"
   version="1.1"
   viewBox="0 0 16.933 16.933"
   id="svg17"
   sodipodi:docname="terminal.svg"
   inkscape:version="1.0.1 (3bc2e813f5, 2020-09-07)">
  <metadata
     id="metadata21">
    <rdf:RDF>
      <cc:Work
         rdf:about="">
        <dc:format>image/svg+xml</dc:format>
        <dc:type
           rdf:resource="http://purl.org/dc/dcmitype/StillImage" />
        <dc:title></dc:title>
      </cc:Work>
    </rdf:RDF>
  </metadata>
  <sodipodi:namedview
     pagecolor="#ffffff"
     bordercolor="#666666"
     borderopacity="1"
     objecttolerance="10"
     gridtolerance="10"
     guidetolerance="10"
     inkscape:pageopacity="0"
     inkscape:pageshadow="2"
     inkscape:window-width="1920"
     inkscape:window-height="941"
     id="namedview19"
     showgrid="true"
     inkscape:zoom="6.203125"
     inkscape:cx="7.0568976"
     inkscape:cy="28.182589"
     inkscape:window-x="0"
     inkscape:window-y="37"
     inkscape:window-maximized="1"
     inkscape:current-layer="svg17"
     inkscape:document-rotation="0">
    <inkscape:grid
       type="xygrid"
       id="grid875" />
  </sodipodi:namedview>
  <defs
     id="defs7">
    <linearGradient
       id="a"
       x1="47"
       x2="59.998"
       y1="41"
       y2="53.978"
       gradientTransform="matrix(0.26458,0,0,0.26458,4.2601771,-1.181004)"
       gradientUnits="userSpaceOnUse">
      <stop
         offset="0"
         id="stop2" />
      <stop
         stop-color="#242424"
         stop-opacity="0"
         offset="1"
         id="stop4" />
    </linearGradient>
    <filter
       id="filter2761"
       x="-.024"
       y="-.024"
       width="1.048"
       height="1.048"
       color-interpolation-filters="sRGB">
      <feGaussianBlur
         stdDeviation="0.14552168"
         id="feGaussianBlur2" />
    </filter>
    <linearGradient
       id="linearGradient1024"
       x1="1.3315"
       x2="14.217"
       y1="15.576"
       y2="2.6243"
       gradientUnits="userSpaceOnUse">
      <stop
         stop-color="#ff7d1e"
         offset="0"
         id="stop5" />
      <stop
         stop-color="#ffa53c"
         offset="1"
         id="stop7" />
    </linearGradient>
  </defs>
  <path
     id="rect873"
     style="opacity:1;fill:#0a0a0a;fill-opacity:1;stroke-width:0.371948;stroke-linecap:round"
     d="m 1.1906023,1.1906016 v 9.9647004 c 0,2.429314 1.869847,4.404182 4.2545364,4.573666 v 0.01343 H 5.7777014 8.066163 15.742398 V 5.7777006 c 0,-2.4293143 -1.869844,-4.4041823 -4.254534,-4.5736661 v -0.01343 H 11.1553 8.8668395 Z"
     sodipodi:nodetypes="cscccccsccccc" />
  <path
     id="rect11"
     style="fill:#23afc8;fill-opacity:1;stroke-width:0.843695;paint-order:stroke markers fill"
     d="M 4.199479,3.9687945 A 0.22273538,0.22273538 0 0 0 3.9989783,4.0804134 0.22273538,0.22273538 0 0 0 4.0806255,4.3858152 L 6.4783647,5.7691661 4.0806255,7.1540669 A 0.22273538,0.22273538 0 0 0 3.9989783,7.4594687 C 4.0614113,7.566618 4.1972309,7.602706 4.30438,7.5411159 L 7.0101048,5.9784514 A 0.21936059,0.21936059 0 0 0 7.1170729,5.7888025 c 0.00169,-0.00675 7.038e-4,-0.012697 0.00155,-0.018603 0,-0.00675 1.397e-4,-0.012887 -0.00155,-0.019637 A 0.21936059,0.21936059 0 0 0 7.0101048,5.5619474 L 4.30438,3.9982495 A 0.22442277,0.22442277 0 0 0 4.219632,3.9703445 0.22273538,0.22273538 0 0 0 4.199479,3.9687945 Z M 5.5559586,8.020147 c -0.1238631,0 -0.2232378,0.099609 -0.2232378,0.2232378 0,0.1236291 0.099375,0.2232378 0.2232378,0.2232378 h 3.1242956 c 0.123863,0 0.2237545,-0.099609 0.2237545,-0.2232378 0,-0.1236292 -0.099892,-0.2232378 -0.2237545,-0.2232378 z" />
</svg>
